font.ufo
<glyph name="exclam" format="1">
  <advance width="363"/>
  <unicode hex="0021"/>
  <outline>
    <contour>
      <point x="233" y="52" type="curve" smooth="yes"/>
      <point x="233" y="77"/>
      <point x="215" y="95"/>
      <point x="191" y="95" type="curve" smooth="yes"/>
      <point x="159" y="95"/>
      <point x="130" y="68"/>
      <point x="130" y="35" type="curve" smooth="yes"/>
      <point x="130" y="10"/>
      <point x="147" y="-8"/>
      <point x="174" y="-8" type="curve" smooth="yes"/>
      <point x="204" y="-8"/>
      <point x="233" y="21"/>
    </contour>
    <contour>
      <point x="199" y="275" type="curve"/>
      <point x="212" y="718" type="line" smooth="yes"/>
      <point x="212" y="763"/>
      <point x="196" y="782"/>
      <point x="176" y="782" type="curve" smooth="yes"/>
      <point x="157" y="782"/>
      <point x="143" y="763"/>
      <point x="143" y="718" type="curve"/>
      <point x="150" y="235" type="line" smooth="yes"/>
      <point x="152" y="193"/>
      <point x="164" y="176"/>
      <point x="185" y="176" type="curve" smooth="yes"/>
      <point x="197" y="176"/>
      <point x="204" y="182"/>
      <point x="210" y="192" type="curve"/>
      <point x="202" y="208"/>
      <point x="197" y="223"/>
    </contour>
  </outline>
</glyph>
<glyph name="numbersign" format="1">
  <advance width="736"/>
  <unicode hex="0023"/>
  <outline>
    <contour>
      <point x="347" y="720" type="curve" smooth="yes"/>
      <point x="321" y="720"/>
      <point x="299" y="700"/>
      <point x="290" y="663" type="curve" smooth="yes"/>
      <point x="117" y="51" type="line" smooth="yes"/>
      <point x="113" y="33"/>
      <point x="103" y="26"/>
      <point x="88" y="21" type="curve"/>
      <point x="91" y="5"/>
      <point x="103" y="-8"/>
      <point x="121" y="-8" type="curve" smooth="yes"/>
      <point x="147" y="-8"/>
      <point x="167" y="12"/>
      <point x="176" y="49" type="curve" smooth="yes"/>
      <point x="349" y="660" type="line" smooth="yes"/>
      <point x="354" y="679"/>
      <point x="363" y="686"/>
      <point x="379" y="691" type="curve"/>
      <point x="375" y="707"/>
      <point x="364" y="720"/>
    </contour>
    <contour>
      <point x="607" y="720" type="curve" smooth="yes"/>
      <point x="580" y="720"/>
      <point x="561" y="700"/>
      <point x="548" y="663" type="curve" smooth="yes"/>
      <point x="378" y="51" type="line" smooth="yes"/>
      <point x="372" y="33"/>
      <point x="362" y="26"/>
      <point x="349" y="21" type="curve"/>
      <point x="351" y="5"/>
      <point x="363" y="-8"/>
      <point x="381" y="-8" type="curve" smooth="yes"/>
      <point x="407" y="-8"/>
      <point x="427" y="12"/>
      <point x="437" y="49" type="curve" smooth="yes"/>
      <point x="608" y="660" type="line" smooth="yes"/>
      <point x="614" y="679"/>
      <point x="623" y="686"/>
      <point x="639" y="691" type="curve"/>
      <point x="635" y="707"/>
      <point x="624" y="720"/>
    </contour>
    <contour>
      <point x="600" y="219" type="curve" smooth="yes"/>
      <point x="600" y="224"/>
      <point x="598" y="230"/>
      <point x="598" y="232" type="curve"/>
      <point x="119" y="232" type="line" smooth="yes"/>
      <point x="88" y="232"/>
      <point x="53" y="224"/>
      <point x="53" y="190" type="curve" smooth="yes"/>
      <point x="53" y="184"/>
      <point x="55" y="179"/>
      <point x="56" y="176" type="curve"/>
      <point x="534" y="176" type="line" smooth="yes"/>
      <point x="566" y="176"/>
      <point x="600" y="185"/>
    </contour>
    <contour>
      <point x="683" y="521" type="curve" smooth="yes"/>
      <point x="683" y="526"/>
      <point x="682" y="532"/>
      <point x="681" y="534" type="curve"/>
      <point x="202" y="534" type="line" smooth="yes"/>
      <point x="172" y="534"/>
      <point x="137" y="526"/>
      <point x="137" y="492" type="curve" smooth="yes"/>
      <point x="137" y="487"/>
      <point x="138" y="481"/>
      <point x="140" y="478" type="curve"/>
      <point x="618" y="478" type="line" smooth="yes"/>
      <point x="650" y="478"/>
      <point x="683" y="487"/>
    </contour>
  </outline>
</glyph>
<glyph name="dollar" format="1">
  <advance width="575"/>
  <unicode hex="0024"/>
  <outline>
    <contour>
      <point x="293" y="697" type="line"/>
      <point x="293" y="796" type="line" smooth="yes"/>
      <point x="293" y="815"/>
      <point x="284" y="822"/>
      <point x="270" y="827" type="curve"/>
      <point x="278" y="843"/>
      <point x="293" y="856"/>
      <point x="312" y="856" type="curve" smooth="yes"/>
      <point x="341" y="856"/>
      <point x="356" y="837"/>
      <point x="356" y="800" type="curve" smooth="yes"/>
      <point x="356" y="697" type="line"/>
    </contour>
    <contour>
      <point x="328" y="19" type="line"/>
      <point x="328" y="-80" type="line" smooth="yes"/>
      <point x="328" y="-98"/>
      <point x="336" y="-104"/>
      <point x="351" y="-110" type="curve"/>
      <point x="342" y="-126"/>
      <point x="327" y="-139"/>
      <point x="308" y="-139" type="curve" smooth="yes"/>
      <point x="280" y="-139"/>
      <point x="264" y="-119"/>
      <point x="264" y="-82" type="curve" smooth="yes"/>
      <point x="264" y="19" type="line"/>
    </contour>
    <component base="S"/>
  </outline>
</glyph>
<glyph name="quotesingle" format="1">
  <advance width="126"/>
  <unicode hex="0027"/>
  <outline>
    <contour>
      <point x="96" y="788" type="curve" smooth="yes"/>
      <point x="96" y="817"/>
      <point x="87" y="842"/>
      <point x="62" y="842" type="curve" smooth="yes"/>
      <point x="38" y="842"/>
      <point x="30" y="817"/>
      <point x="30" y="789" type="curve" smooth="yes"/>
      <point x="30" y="711"/>
      <point x="41" y="595"/>
      <point x="63" y="595" type="curve" smooth="yes"/>
      <point x="86" y="595"/>
      <point x="96" y="709"/>
    </contour>
  </outline>
</glyph>
<glyph name="asterisk" format="1">
  <advance width="522"/>
  <unicode hex="002A"/>
  <outline>
    <contour>
      <point x="299" y="898" type="curve" smooth="yes"/>
      <point x="299" y="861"/>
      <point x="292" y="810"/>
      <point x="285" y="776" type="curve"/>
      <point x="324" y="799"/>
      <point x="389" y="834"/>
      <point x="426" y="834" type="curve" smooth="yes"/>
      <point x="447" y="834"/>
      <point x="466" y="823"/>
      <point x="466" y="800" type="curve" smooth="yes"/>
      <point x="466" y="755"/>
      <point x="367" y="737"/>
      <point x="302" y="734" type="curve"/>
      <point x="300" y="734"/>
      <point x="297" y="733"/>
      <point x="296" y="733" type="curve"/>
      <point x="338" y="699"/>
      <point x="400" y="635"/>
      <point x="400" y="597" type="curve" smooth="yes"/>
      <point x="400" y="580"/>
      <point x="388" y="566"/>
      <point x="368" y="566" type="curve" smooth="yes"/>
      <point x="330" y="566"/>
      <point x="283" y="648"/>
      <point x="260" y="704" type="curve"/>
      <point x="239" y="650"/>
      <point x="192" y="565"/>
      <point x="154" y="565" type="curve" smooth="yes"/>
      <point x="133" y="565"/>
      <point x="123" y="582"/>
      <point x="123" y="598" type="curve" smooth="yes"/>
      <point x="123" y="633"/>
      <point x="183" y="698"/>
      <point x="225" y="733" type="curve"/>
      <point x="224" y="733"/>
      <point x="222" y="733"/>
      <point x="220" y="733" type="curve"/>
      <point x="156" y="738"/>
      <point x="56" y="753"/>
      <point x="56" y="800" type="curve" smooth="yes"/>
      <point x="56" y="823"/>
      <point x="78" y="831"/>
      <point x="96" y="831" type="curve" smooth="yes"/>
      <point x="130" y="831"/>
      <point x="199" y="799"/>
      <point x="239" y="775" type="curve"/>
      <point x="231" y="809"/>
      <point x="225" y="861"/>
      <point x="225" y="898" type="curve" smooth="yes"/>
      <point x="225" y="931"/>
      <point x="236" y="958"/>
      <point x="260" y="958" type="curve" smooth="yes"/>
      <point x="287" y="958"/>
      <point x="299" y="932"/>
    </contour>
  </outline>
</glyph>
<glyph name="plus" format="1">
  <advance width="659"/>
  <unicode hex="002B"/>
  <outline>
    <contour>
      <point x="355" y="531" type="line"/>
      <point x="353" y="532"/>
      <point x="347" y="535"/>
      <point x="341" y="535" type="curve" smooth="yes"/>
      <point x="301" y="535"/>
      <point x="303" y="492"/>
      <point x="303" y="476" type="curve" smooth="yes"/>
      <point x="305" y="418"/>
      <point x="306" y="364"/>
      <point x="307" y="315" type="curve"/>
      <point x="256" y="316"/>
      <point x="194" y="317"/>
      <point x="133" y="318" type="curve" smooth="yes"/>
      <point x="116" y="318"/>
      <point x="74" y="319"/>
      <point x="74" y="281" type="curve" smooth="yes"/>
      <point x="74" y="275"/>
      <point x="76" y="269"/>
      <point x="78" y="265" type="curve"/>
      <point x="306" y="269" type="line"/>
      <point x="302" y="35" type="line"/>
      <point x="306" y="33"/>
      <point x="312" y="33"/>
      <point x="317" y="33" type="curve" smooth="yes"/>
      <point x="357" y="33"/>
      <point x="355" y="76"/>
      <point x="355" y="91" type="curve"/>
      <point x="354" y="154"/>
      <point x="353" y="214"/>
      <point x="352" y="269" type="curve"/>
      <point x="403" y="269"/>
      <point x="465" y="267"/>
      <point x="526" y="265" type="curve" smooth="yes"/>
      <point x="543" y="265"/>
      <point x="585" y="265"/>
      <point x="585" y="305" type="curve" smooth="yes"/>
      <point x="585" y="308"/>
      <point x="584" y="316"/>
      <point x="582" y="318" type="curve"/>
      <point x="352" y="315" type="line"/>
    </contour>
  </outline>
</glyph>
<glyph name="comma" format="1">
  <advance width="239"/>
  <unicode hex="002C"/>
  <outline>
    <contour>
      <point x="130" y="-27" type="curve" smooth="yes"/>
      <point x="130" y="-66"/>
      <point x="113" y="-109"/>
      <point x="79" y="-132" type="curve"/>
      <point x="81" y="-144"/>
      <point x="91" y="-150"/>
      <point x="101" y="-150" type="curve" smooth="yes"/>
      <point x="144" y="-150"/>
      <point x="187" y="-80"/>
      <point x="187" y="10" type="curve" smooth="yes"/>
      <point x="187" y="57"/>
      <point x="166" y="117"/>
      <point x="113" y="117" type="curve" smooth="yes"/>
      <point x="84" y="117"/>
      <point x="60" y="93"/>
      <point x="62" y="67" type="curve"/>
      <point x="103" y="60"/>
      <point x="130" y="19"/>
    </contour>
  </outline>
</glyph>
<glyph name="hyphen" format="1">
  <advance width="481"/>
  <unicode hex="002D"/>
  <outline>
    <contour>
      <point x="421" y="305" type="curve" smooth="yes"/>
      <point x="421" y="309"/>
      <point x="420" y="316"/>
      <point x="419" y="319" type="curve"/>
      <point x="117" y="319" type="line" smooth="yes"/>
      <point x="100" y="319"/>
      <point x="60" y="319"/>
      <point x="60" y="281" type="curve" smooth="yes"/>
      <point x="60" y="276"/>
      <point x="62" y="270"/>
      <point x="64" y="266" type="curve"/>
      <point x="364" y="266" type="line" smooth="yes"/>
      <point x="381" y="266"/>
      <point x="421" y="266"/>
    </contour>
  </outline>
</glyph>
<glyph name="slash" format="1">
  <advance width="544"/>
  <unicode hex="002F"/>
  <outline>
    <contour>
      <point x="472" y="919" type="curve"/>
      <point x="460" y="926"/>
      <point x="451" y="930"/>
      <point x="439" y="930" type="curve" smooth="yes"/>
      <point x="409" y="930"/>
      <point x="398" y="896"/>
      <point x="393" y="881" type="curve" smooth="yes"/>
      <point x="61" y="-67" type="line" smooth="yes"/>
      <point x="56" y="-82"/>
      <point x="46" y="-101"/>
      <point x="40" y="-107" type="curve"/>
      <point x="54" y="-118"/>
      <point x="65" y="-119"/>
      <point x="71" y="-119" type="curve" smooth="yes"/>
      <point x="102" y="-119"/>
      <point x="115" y="-86"/>
      <point x="118" y="-71" type="curve" smooth="yes"/>
      <point x="450" y="879" type="line" smooth="yes"/>
      <point x="455" y="892"/>
      <point x="462" y="912"/>
    </contour>
  </outline>
</glyph>
<glyph name="two" format="1">
  <advance width="575"/>
  <unicode hex="0032"/>
  <outline>
    <contour>
      <point x="479" y="509" type="curve" smooth="yes"/>
      <point x="479" y="356"/>
      <point x="342" y="232"/>
      <point x="128" y="31" type="curve"/>
      <point x="87" y="49" type="line"/>
      <point x="413" y="60" type="line" smooth="yes"/>
      <point x="456" y="60"/>
      <point x="489" y="72"/>
      <point x="507" y="88" type="curve"/>
      <point x="521" y="79"/>
      <point x="526" y="69"/>
      <point x="526" y="57" type="curve" smooth="yes"/>
      <point x="526" y="23"/>
      <point x="490" y="0"/>
      <point x="433" y="0" type="curve" smooth="yes"/>
      <point x="114" y="0" type="line" smooth="yes"/>
      <point x="81" y="0"/>
      <point x="63" y="20"/>
      <point x="61" y="42" type="curve"/>
      <point x="304" y="250"/>
      <point x="413" y="394"/>
      <point x="413" y="516" type="curve" smooth="yes"/>
      <point x="413" y="621"/>
      <point x="343" y="673"/>
      <point x="269" y="673" type="curve" smooth="yes"/>
      <point x="195" y="673"/>
      <point x="123" y="630"/>
      <point x="123" y="557" type="curve" smooth="yes"/>
      <point x="123" y="533"/>
      <point x="130" y="514"/>
      <point x="144" y="498" type="curve"/>
      <point x="133" y="493"/>
      <point x="122" y="490"/>
      <point x="111" y="490" type="curve" smooth="yes"/>
      <point x="82" y="490"/>
      <point x="58" y="519"/>
      <point x="58" y="559" type="curve" smooth="yes"/>
      <point x="58" y="652"/>
      <point x="151" y="720"/>
      <point x="268" y="720" type="curve" smooth="yes"/>
      <point x="393" y="720"/>
      <point x="479" y="637"/>
    </contour>
  </outline>
</glyph>
<glyph name="three" format="1">
  <advance width="549"/>
  <unicode hex="0033"/>
  <outline>
    <contour>
      <point x="457" y="574" type="curve" smooth="yes"/>
      <point x="457" y="663"/>
      <point x="382" y="720"/>
      <point x="287" y="720" type="curve" smooth="yes"/>
      <point x="180" y="720"/>
      <point x="91" y="646"/>
      <point x="91" y="621" type="curve" smooth="yes"/>
      <point x="91" y="610"/>
      <point x="100" y="606"/>
      <point x="106" y="603" type="curve"/>
      <point x="144" y="635"/>
      <point x="206" y="662"/>
      <point x="273" y="662" type="curve" smooth="yes"/>
      <point x="340" y="662"/>
      <point x="392" y="627"/>
      <point x="392" y="565" type="curve" smooth="yes"/>
      <point x="392" y="437"/>
      <point x="158" y="411"/>
      <point x="158" y="355" type="curve" smooth="yes"/>
      <point x="158" y="345"/>
      <point x="163" y="335"/>
      <point x="169" y="332" type="curve"/>
      <point x="189" y="337"/>
      <point x="209" y="340"/>
      <point x="230" y="340" type="curve" smooth="yes"/>
      <point x="327" y="340"/>
      <point x="435" y="287"/>
      <point x="435" y="179" type="curve" smooth="yes"/>
      <point x="435" y="104"/>
      <point x="363" y="42"/>
      <point x="268" y="42" type="curve" smooth="yes"/>
      <point x="182" y="42"/>
      <point x="116" y="93"/>
      <point x="82" y="163" type="curve"/>
      <point x="57" y="157"/>
      <point x="49" y="139"/>
      <point x="49" y="120" type="curve" smooth="yes"/>
      <point x="49" y="50"/>
      <point x="151" y="-8"/>
      <point x="247" y="-8" type="curve" smooth="yes"/>
      <point x="389" y="-8"/>
      <point x="488" y="66"/>
      <point x="488" y="194" type="curve" smooth="yes"/>
      <point x="488" y="303"/>
      <point x="400" y="386"/>
      <point x="285" y="394" type="curve"/>
      <point x="376" y="422"/>
      <point x="457" y="491"/>
    </contour>
  </outline>
</glyph>
<glyph name="seven" format="1">
  <advance width="469"/>
  <unicode hex="0037"/>
  <outline>
    <contour>
      <point x="110" y="712" type="line"/>
      <point x="56" y="712"/>
      <point x="25" y="687"/>
      <point x="25" y="651" type="curve" smooth="yes"/>
      <point x="25" y="631"/>
      <point x="37" y="619"/>
      <point x="49" y="615" type="curve"/>
      <point x="67" y="636"/>
      <point x="89" y="648"/>
      <point x="126" y="648" type="curve" smooth="yes"/>
      <point x="273" y="648" type="line" smooth="yes"/>
      <point x="304" y="648"/>
      <point x="343" y="649"/>
      <point x="377" y="658" type="curve"/>
      <point x="263" y="487"/>
      <point x="111" y="222"/>
      <point x="111" y="79" type="curve" smooth="yes"/>
      <point x="111" y="22"/>
      <point x="138" y="-8"/>
      <point x="172" y="-8" type="curve" smooth="yes"/>
      <point x="198" y="-8"/>
      <point x="212" y="9"/>
      <point x="216" y="29" type="curve"/>
      <point x="196" y="34"/>
      <point x="186" y="57"/>
      <point x="186" y="85" type="curve" smooth="yes"/>
      <point x="186" y="321"/>
      <point x="425" y="597"/>
      <point x="425" y="675" type="curve" smooth="yes"/>
      <point x="425" y="695"/>
      <point x="420" y="707"/>
      <point x="417" y="712" type="curve"/>
    </contour>
  </outline>
</glyph>
<glyph name="nine" format="1">
  <advance width="534"/>
  <unicode hex="0039"/>
  <outline>
    <contour>
      <point x="496" y="406" type="curve" smooth="yes"/>
      <point x="496" y="588"/>
      <point x="401" y="720"/>
      <point x="239" y="720" type="curve" smooth="yes"/>
      <point x="124" y="720"/>
      <point x="28" y="641"/>
      <point x="28" y="505" type="curve" smooth="yes"/>
      <point x="28" y="388"/>
      <point x="127" y="280"/>
      <point x="260" y="280" type="curve" smooth="yes"/>
      <point x="296" y="280"/>
      <point x="335" y="293"/>
      <point x="335" y="333" type="curve"/>
      <point x="206" y="316"/>
      <point x="87" y="386"/>
      <point x="87" y="525" type="curve" smooth="yes"/>
      <point x="87" y="616"/>
      <point x="151" y="666"/>
      <point x="228" y="666" type="curve" smooth="yes"/>
      <point x="383" y="666"/>
      <point x="433" y="496"/>
      <point x="433" y="392" type="curve" smooth="yes"/>
      <point x="433" y="191"/>
      <point x="283" y="38"/>
      <point x="103" y="21" type="curve"/>
      <point x="102" y="19"/>
      <point x="102" y="16"/>
      <point x="102" y="14" type="curve" smooth="yes"/>
      <point x="102" y="-2"/>
      <point x="120" y="-8"/>
      <point x="141" y="-8" type="curve" smooth="yes"/>
      <point x="332" y="-8"/>
      <point x="496" y="193"/>
    </contour>
  </outline>
</glyph>
<glyph name="less" format="1">
  <advance width="634"/>
  <unicode hex="003C"/>
  <outline>
    <contour>
      <point x="137" y="279" type="curve" smooth="yes"/>
      <point x="137" y="324"/>
      <point x="415" y="445"/>
      <point x="537" y="482" type="curve"/>
      <point x="537" y="502"/>
      <point x="522" y="505"/>
      <point x="513" y="505" type="curve" smooth="yes"/>
      <point x="453" y="505"/>
      <point x="65" y="348"/>
      <point x="65" y="272" type="curve" smooth="yes"/>
      <point x="65" y="203"/>
      <point x="419" y="58"/>
      <point x="491" y="58" type="curve" smooth="yes"/>
      <point x="523" y="58"/>
      <point x="544" y="73"/>
      <point x="544" y="106" type="curve"/>
      <point x="379" y="139"/>
      <point x="137" y="253"/>
    </contour>
  </outline>
</glyph>
<glyph name="question" format="1">
  <advance width="463"/>
  <unicode hex="003F"/>
  <outline>
    <contour>
      <point x="245" y="302" type="curve" smooth="yes"/>
      <point x="245" y="419"/>
      <point x="403" y="437"/>
      <point x="403" y="606" type="curve" smooth="yes"/>
      <point x="403" y="683"/>
      <point x="340" y="754"/>
      <point x="234" y="754" type="curve" smooth="yes"/>
      <point x="135" y="754"/>
      <point x="53" y="691"/>
      <point x="53" y="611" type="curve" smooth="yes"/>
      <point x="53" y="549"/>
      <point x="88" y="509"/>
      <point x="140" y="509" type="curve" smooth="yes"/>
      <point x="155" y="509"/>
      <point x="178" y="513"/>
      <point x="181" y="529" type="curve"/>
      <point x="134" y="547"/>
      <point x="114" y="584"/>
      <point x="114" y="624" type="curve" smooth="yes"/>
      <point x="114" y="684"/>
      <point x="164" y="716"/>
      <point x="224" y="716" type="curve" smooth="yes"/>
      <point x="297" y="716"/>
      <point x="337" y="653"/>
      <point x="337" y="599" type="curve" smooth="yes"/>
      <point x="337" y="459"/>
      <point x="175" y="420"/>
      <point x="175" y="281" type="curve" smooth="yes"/>
      <point x="175" y="235"/>
      <point x="212" y="202"/>
      <point x="252" y="202" type="curve" smooth="yes"/>
      <point x="275" y="202"/>
      <point x="295" y="219"/>
      <point x="296" y="243" type="curve"/>
      <point x="263" y="245"/>
      <point x="245" y="269"/>
    </contour>
    <contour>
      <point x="283" y="55" type="curve" smooth="yes"/>
      <point x="283" y="80"/>
      <point x="265" y="98"/>
      <point x="238" y="98" type="curve" smooth="yes"/>
      <point x="208" y="98"/>
      <point x="176" y="69"/>
      <point x="176" y="38" type="curve" smooth="yes"/>
      <point x="176" y="11"/>
      <point x="194" y="-8"/>
      <point x="221" y="-8" type="curve" smooth="yes"/>
      <point x="253" y="-8"/>
      <point x="283" y="22"/>
    </contour>
  </outline>
</glyph>
<glyph name="at" format="1">
  <advance width="847"/>
  <unicode hex="0040"/>
  <outline>
    <contour>
      <point x="527" y="296" type="curve"/>
      <point x="529" y="328" type="line"/>
      <point x="335" y="322"/>
      <point x="250" y="265"/>
      <point x="246" y="187" type="curve" smooth="yes"/>
      <point x="242" y="120"/>
      <point x="296" y="82"/>
      <point x="366" y="82" type="curve" smooth="yes"/>
      <point x="436" y="82"/>
      <point x="495" y="116"/>
      <point x="531" y="176" type="curve"/>
      <point x="525" y="204" type="line"/>
      <point x="489" y="155"/>
      <point x="438" y="129"/>
      <point x="384" y="129" type="curve" smooth="yes"/>
      <point x="336" y="129"/>
      <point x="305" y="147"/>
      <point x="308" y="192" type="curve" smooth="yes"/>
      <point x="310" y="244"/>
      <point x="374" y="290"/>
    </contour>
    <contour>
      <point x="584" y="384" type="line"/>
      <point x="587" y="460"/>
      <point x="535" y="512"/>
      <point x="437" y="512" type="curve" smooth="yes"/>
      <point x="349" y="512"/>
      <point x="279" y="471"/>
      <point x="276" y="422" type="curve" smooth="yes"/>
      <point x="274" y="397"/>
      <point x="294" y="384"/>
      <point x="318" y="384" type="curve" smooth="yes"/>
      <point x="325" y="384"/>
      <point x="339" y="387"/>
      <point x="349" y="392" type="curve"/>
      <point x="340" y="401"/>
      <point x="338" y="412"/>
      <point x="339" y="422" type="curve" smooth="yes"/>
      <point x="340" y="450"/>
      <point x="369" y="481"/>
      <point x="437" y="481" type="curve" smooth="yes"/>
      <point x="505" y="481"/>
      <point x="528" y="444"/>
      <point x="525" y="370" type="curve" smooth="yes"/>
      <point x="513" y="167" type="line" smooth="yes"/>
      <point x="509" y="113"/>
      <point x="542" y="80"/>
      <point x="592" y="80" type="curve" smooth="yes"/>
      <point x="667" y="80"/>
      <point x="775" y="172"/>
      <point x="775" y="339" type="curve" smooth="yes"/>
      <point x="775" y="534"/>
      <point x="622" y="649"/>
      <point x="453" y="649" type="curve" smooth="yes"/>
      <point x="247" y="649"/>
      <point x="74" y="505"/>
      <point x="74" y="249" type="curve" smooth="yes"/>
      <point x="74" y="9"/>
      <point x="239" y="-70"/>
      <point x="362" y="-70" type="curve" smooth="yes"/>
      <point x="516" y="-70"/>
      <point x="572" y="-5"/>
      <point x="546" y="17" type="curve"/>
      <point x="503" y="-10"/>
      <point x="441" y="-29"/>
      <point x="368" y="-29" type="curve" smooth="yes"/>
      <point x="268" y="-29"/>
      <point x="120" y="33"/>
      <point x="120" y="249" type="curve" smooth="yes"/>
      <point x="120" y="480"/>
      <point x="260" y="609"/>
      <point x="448" y="609" type="curve" smooth="yes"/>
      <point x="595" y="608"/>
      <point x="728" y="509"/>
      <point x="729" y="341" type="curve" smooth="yes"/>
      <point x="729" y="187"/>
      <point x="650" y="125"/>
      <point x="601" y="125" type="curve" smooth="yes"/>
      <point x="579" y="125"/>
      <point x="569" y="135"/>
      <point x="571" y="161" type="curve" smooth="yes"/>
    </contour>
  </outline>
</glyph>
<glyph name="B" format="1">
  <advance width="674"/>
  <unicode hex="0042"/>
  <outline>
    <contour>
      <point x="576" y="534" type="curve" smooth="yes"/>
      <point x="576" y="635"/>
      <point x="497" y="712"/>
      <point x="336" y="712" type="curve" smooth="yes"/>
      <point x="151" y="712" type="line" smooth="yes"/>
      <point x="108" y="712"/>
      <point x="89" y="702"/>
      <point x="74" y="678" type="curve"/>
      <point x="89" y="672"/>
      <point x="97" y="666"/>
      <point x="97" y="646" type="curve" smooth="yes"/>
      <point x="95" y="127" type="line" smooth="yes"/>
      <point x="95" y="38"/>
      <point x="133" y="0"/>
      <point x="231" y="0" type="curve" smooth="yes"/>
      <point x="379" y="0" type="line" smooth="yes"/>
      <point x="527" y="0"/>
      <point x="622" y="78"/>
      <point x="622" y="194" type="curve" smooth="yes"/>
      <point x="622" y="279"/>
      <point x="549" y="355"/>
      <point x="446" y="370" type="curve"/>
      <point x="522" y="393"/>
      <point x="576" y="445"/>
    </contour>
    <contour>
      <point x="163" y="662" type="line"/>
      <point x="326" y="662" type="line" smooth="yes"/>
      <point x="446" y="662"/>
      <point x="505" y="608"/>
      <point x="505" y="526" type="curve" smooth="yes"/>
      <point x="505" y="440"/>
      <point x="446" y="386"/>
      <point x="326" y="386" type="curve" smooth="yes"/>
      <point x="161" y="386" type="line"/>
    </contour>
    <contour>
      <point x="161" y="336" type="line"/>
      <point x="379" y="336" type="line" smooth="yes"/>
      <point x="494" y="336"/>
      <point x="551" y="281"/>
      <point x="551" y="193" type="curve" smooth="yes"/>
      <point x="551" y="105"/>
      <point x="494" y="50"/>
      <point x="379" y="50" type="curve" smooth="yes"/>
      <point x="231" y="50" type="line" smooth="yes"/>
      <point x="181" y="50"/>
      <point x="160" y="66"/>
      <point x="160" y="127" type="curve" smooth="yes"/>
    </contour>
  </outline>
</glyph>
<glyph name="C" format="1">
  <advance width="661"/>
  <unicode hex="0043"/>
  <outline>
    <contour>
      <point x="332" y="712" type="move" name="top"/>
    </contour>
    <contour>
      <point x="332" y="0" type="move" name="bottom"/>
    </contour>
    <contour>
      <point x="588" y="607" type="curve" smooth="yes"/>
      <point x="588" y="667"/>
      <point x="511" y="720"/>
      <point x="400" y="720" type="curve" smooth="yes"/>
      <point x="222" y="720"/>
      <point x="66" y="575"/>
      <point x="66" y="336" type="curve" smooth="yes"/>
      <point x="66" y="128"/>
      <point x="198" y="-8"/>
      <point x="362" y="-8" type="curve" smooth="yes"/>
      <point x="498" y="-8"/>
      <point x="588" y="71"/>
      <point x="588" y="105" type="curve" smooth="yes"/>
      <point x="588" y="120"/>
      <point x="580" y="128"/>
      <point x="572" y="129" type="curve"/>
      <point x="535" y="92"/>
      <point x="465" y="51"/>
      <point x="380" y="51" type="curve" smooth="yes"/>
      <point x="226" y="51"/>
      <point x="138" y="167"/>
      <point x="138" y="351" type="curve" smooth="yes"/>
      <point x="138" y="567"/>
      <point x="266" y="661"/>
      <point x="382" y="661" type="curve" smooth="yes"/>
      <point x="481" y="661"/>
      <point x="527" y="614"/>
      <point x="521" y="566" type="curve"/>
      <point x="529" y="563"/>
      <point x="536" y="563"/>
      <point x="545" y="563" type="curve" smooth="yes"/>
      <point x="571" y="563"/>
      <point x="588" y="581"/>
    </contour>
  </outline>
</glyph>
<glyph name="F" format="1">
  <advance width="591"/>
  <unicode hex="0046"/>
  <outline>
    <contour>
      <point x="402" y="393" type="curve"/>
      <point x="151" y="393" type="line"/>
      <point x="151" y="338" type="line"/>
      <point x="395" y="338" type="line" smooth="yes"/>
      <point x="430" y="338"/>
      <point x="452" y="334"/>
      <point x="468" y="323" type="curve"/>
      <point x="481" y="329"/>
      <point x="491" y="341"/>
      <point x="491" y="359" type="curve" smooth="yes"/>
      <point x="491" y="387"/>
      <point x="463" y="393"/>
    </contour>
    <contour>
      <point x="107" y="646" type="curve"/>
      <point x="107" y="50" type="line" smooth="yes"/>
      <point x="107" y="13"/>
      <point x="123" y="-7"/>
      <point x="151" y="-7" type="curve" smooth="yes"/>
      <point x="170" y="-7"/>
      <point x="185" y="6"/>
      <point x="194" y="22" type="curve"/>
      <point x="178" y="27"/>
      <point x="171" y="34"/>
      <point x="171" y="52" type="curve" smooth="yes"/>
      <point x="171" y="659" type="line"/>
      <point x="458" y="659" type="line" smooth="yes"/>
      <point x="495" y="659"/>
      <point x="515" y="651"/>
      <point x="531" y="632" type="curve"/>
      <point x="548" y="636"/>
      <point x="560" y="649"/>
      <point x="560" y="667" type="curve" smooth="yes"/>
      <point x="560" y="695"/>
      <point x="531" y="712"/>
      <point x="470" y="712" type="curve" smooth="yes"/>
      <point x="161" y="712" type="line" smooth="yes"/>
      <point x="118" y="712"/>
      <point x="99" y="702"/>
      <point x="84" y="678" type="curve"/>
      <point x="99" y="672"/>
      <point x="107" y="666"/>
    </contour>
  </outline>
</glyph>
<glyph name="G" format="1">
  <advance width="695"/>
  <unicode hex="0047"/>
  <outline>
    <contour>
      <point x="405" y="712" type="move" name="top"/>
    </contour>
    <contour>
      <point x="348" y="0" type="move" name="bottom"/>
    </contour>
    <contour>
      <point x="628" y="600" type="curve" smooth="yes"/>
      <point x="628" y="575"/>
      <point x="611" y="557"/>
      <point x="585" y="557" type="curve" smooth="yes"/>
      <point x="576" y="557"/>
      <point x="569" y="558"/>
      <point x="561" y="561" type="curve"/>
      <point x="566" y="614"/>
      <point x="518" y="661"/>
      <point x="414" y="661" type="curve" smooth="yes"/>
      <point x="248" y="661"/>
      <point x="137" y="545"/>
      <point x="138" y="332" type="curve" smooth="yes"/>
      <point x="138" y="150"/>
      <point x="223" y="51"/>
      <point x="360" y="51" type="curve" smooth="yes"/>
      <point x="438" y="51"/>
      <point x="494" y="83"/>
      <point x="554" y="143" type="curve"/>
      <point x="556" y="320" type="line"/>
      <point x="489" y="320" type="line" smooth="yes"/>
      <point x="440" y="320"/>
      <point x="380" y="316"/>
      <point x="360" y="314" type="curve"/>
      <point x="355" y="319"/>
      <point x="350" y="326"/>
      <point x="350" y="336" type="curve" smooth="yes"/>
      <point x="350" y="362"/>
      <point x="389" y="374"/>
      <point x="509" y="374" type="curve" smooth="yes"/>
      <point x="610" y="374"/>
      <point x="619" y="360"/>
      <point x="619" y="321" type="curve" smooth="yes"/>
      <point x="616" y="-38" type="line" smooth="yes"/>
      <point x="616" y="-57"/>
      <point x="625" y="-63"/>
      <point x="639" y="-68" type="curve"/>
      <point x="631" y="-85"/>
      <point x="616" y="-97"/>
      <point x="596" y="-97" type="curve" smooth="yes"/>
      <point x="568" y="-97"/>
      <point x="551" y="-78"/>
      <point x="551" y="-41" type="curve" smooth="yes"/>
      <point x="552" y="103" type="line"/>
      <point x="566" y="103" type="line"/>
      <point x="538" y="60"/>
      <point x="457" y="-8"/>
      <point x="356" y="-8" type="curve" smooth="yes"/>
      <point x="190" y="-8"/>
      <point x="66" y="117"/>
      <point x="66" y="316" type="curve" smooth="yes"/>
      <point x="66" y="558"/>
      <point x="222" y="720"/>
      <point x="430" y="720" type="curve" smooth="yes"/>
      <point x="560" y="720"/>
      <point x="628" y="660"/>
    </contour>
  </outline>
</glyph>
<glyph name="H" format="1">
  <advance width="720"/>
  <unicode hex="0048"/>
  <outline>
    <contour>
      <point x="156" y="51" type="line"/>
      <point x="156" y="33"/>
      <point x="164" y="26"/>
      <point x="179" y="21" type="curve"/>
      <point x="170" y="5"/>
      <point x="154" y="-8"/>
      <point x="136" y="-8" type="curve" smooth="yes"/>
      <point x="107" y="-8"/>
      <point x="92" y="12"/>
      <point x="92" y="49" type="curve" smooth="yes"/>
      <point x="92" y="660" type="line" smooth="yes"/>
      <point x="92" y="679"/>
      <point x="84" y="686"/>
      <point x="69" y="691" type="curve"/>
      <point x="77" y="707"/>
      <point x="93" y="720"/>
      <point x="111" y="720" type="curve" smooth="yes"/>
      <point x="140" y="720"/>
      <point x="156" y="700"/>
      <point x="156" y="663" type="curve" smooth="yes"/>
    </contour>
    <contour>
      <point x="623" y="51" type="line"/>
      <point x="623" y="33"/>
      <point x="631" y="26"/>
      <point x="646" y="21" type="curve"/>
      <point x="637" y="5"/>
      <point x="622" y="-8"/>
      <point x="604" y="-8" type="curve" smooth="yes"/>
      <point x="574" y="-8"/>
      <point x="560" y="12"/>
      <point x="560" y="49" type="curve" smooth="yes"/>
      <point x="560" y="660" type="line" smooth="yes"/>
      <point x="560" y="679"/>
      <point x="551" y="686"/>
      <point x="537" y="691" type="curve"/>
      <point x="544" y="707"/>
      <point x="560" y="720"/>
      <point x="578" y="720" type="curve" smooth="yes"/>
      <point x="608" y="720"/>
      <point x="623" y="700"/>
      <point x="623" y="663" type="curve" smooth="yes"/>
    </contour>
    <contour>
      <point x="585" y="380" type="line"/>
      <point x="585" y="329" type="line"/>
      <point x="129" y="329" type="line"/>
      <point x="129" y="380" type="line"/>
    </contour>
  </outline>
</glyph>
<glyph name="K" format="1">
  <advance width="610"/>
  <unicode hex="004B"/>
  <outline>
    <contour>
      <point x="305" y="700" type="move" name="top"/>
    </contour>
    <contour>
      <point x="314" y="0" type="move" name="bottom"/>
    </contour>
    <contour>
      <point x="156" y="51" type="line"/>
      <point x="156" y="33"/>
      <point x="164" y="26"/>
      <point x="179" y="21" type="curve"/>
      <point x="170" y="5"/>
      <point x="154" y="-8"/>
      <point x="136" y="-8" type="curve" smooth="yes"/>
      <point x="107" y="-8"/>
      <point x="92" y="12"/>
      <point x="92" y="49" type="curve" smooth="yes"/>
      <point x="92" y="660" type="line" smooth="yes"/>
      <point x="92" y="679"/>
      <point x="84" y="686"/>
      <point x="69" y="691" type="curve"/>
      <point x="77" y="707"/>
      <point x="93" y="720"/>
      <point x="111" y="720" type="curve" smooth="yes"/>
      <point x="140" y="720"/>
      <point x="156" y="700"/>
      <point x="156" y="663" type="curve" smooth="yes"/>
    </contour>
    <contour>
      <point x="566" y="673" type="curve"/>
      <point x="539" y="673"/>
      <point x="514" y="658"/>
      <point x="486" y="630" type="curve" smooth="yes"/>
      <point x="187" y="338" type="line"/>
      <point x="187" y="371" type="line"/>
      <point x="446" y="114" type="line" smooth="yes"/>
      <point x="499" y="61"/>
      <point x="517" y="46"/>
      <point x="559" y="51" type="curve"/>
      <point x="559" y="22"/>
      <point x="542" y="-6"/>
      <point x="514" y="-7" type="curve" smooth="yes"/>
      <point x="476" y="-8"/>
      <point x="457" y="9"/>
      <point x="395" y="76" type="curve" smooth="yes"/>
      <point x="148" y="342" type="line"/>
      <point x="148" y="354" type="line"/>
      <point x="438" y="672" type="line" smooth="yes"/>
      <point x="470" y="707"/>
      <point x="490" y="719"/>
      <point x="516" y="719" type="curve" smooth="yes"/>
      <point x="545" y="719"/>
      <point x="562" y="701"/>
    </contour>
  </outline>
</glyph>
<glyph name="L" format="1">
  <advance width="573"/>
  <unicode hex="004C"/>
  <outline>
    <contour>
      <point x="126" y="712" type="move" name="top"/>
    </contour>
    <contour>
      <point x="219" y="700" type="move" name="topright"/>
    </contour>
    <contour>
      <point x="318" y="0" type="move" name="bottom"/>
    </contour>
    <contour>
      <point x="164" y="663" type="line"/>
      <point x="164" y="700"/>
      <point x="148" y="720"/>
      <point x="120" y="720" type="curve" smooth="yes"/>
      <point x="101" y="720"/>
      <point x="85" y="707"/>
      <point x="77" y="691" type="curve"/>
      <point x="91" y="686"/>
      <point x="100" y="679"/>
      <point x="100" y="660" type="curve" smooth="yes"/>
      <point x="100" y="121" type="line" smooth="yes"/>
      <point x="100" y="33"/>
      <point x="148" y="0"/>
      <point x="241" y="0" type="curve" smooth="yes"/>
      <point x="416" y="0" type="line" smooth="yes"/>
      <point x="494" y="0"/>
      <point x="522" y="24"/>
      <point x="522" y="57" type="curve" smooth="yes"/>
      <point x="522" y="72"/>
      <point x="510" y="90"/>
      <point x="492" y="94" type="curve"/>
      <point x="476" y="65"/>
      <point x="454" y="52"/>
      <point x="418" y="52" type="curve" smooth="yes"/>
      <point x="238" y="52" type="line" smooth="yes"/>
      <point x="184" y="52"/>
      <point x="164" y="71"/>
      <point x="164" y="119" type="curve" smooth="yes"/>
    </contour>
  </outline>
</glyph>
<glyph name="P" format="1">
  <advance width="619"/>
  <unicode hex="0050"/>
  <outline>
    <contour>
      <point x="567" y="494" type="curve" smooth="yes"/>
      <point x="567" y="365"/>
      <point x="473" y="275"/>
      <point x="319" y="275" type="curve" smooth="yes"/>
      <point x="175" y="275" type="line"/>
      <point x="175" y="51" type="line" smooth="yes"/>
      <point x="175" y="33"/>
      <point x="182" y="26"/>
      <point x="198" y="21" type="curve"/>
      <point x="189" y="5"/>
      <point x="174" y="-8"/>
      <point x="155" y="-8" type="curve" smooth="yes"/>
      <point x="127" y="-8"/>
      <point x="111" y="12"/>
      <point x="111" y="49" type="curve" smooth="yes"/>
      <point x="111" y="646" type="line" smooth="yes"/>
      <point x="111" y="666"/>
      <point x="103" y="672"/>
      <point x="88" y="678" type="curve"/>
      <point x="103" y="702"/>
      <point x="122" y="712"/>
      <point x="165" y="712" type="curve" smooth="yes"/>
      <point x="319" y="712" type="line" smooth="yes"/>
      <point x="473" y="712"/>
      <point x="567" y="622"/>
    </contour>
    <contour>
      <point x="174" y="656" type="line"/>
      <point x="174" y="330" type="line"/>
      <point x="322" y="330" type="line" smooth="yes"/>
      <point x="443" y="330"/>
      <point x="499" y="401"/>
      <point x="499" y="492" type="curve" smooth="yes"/>
      <point x="499" y="584"/>
      <point x="443" y="656"/>
      <point x="322" y="656" type="curve" smooth="yes"/>
    </contour>
  </outline>
</glyph>
<glyph name="U" format="1">
  <advance width="690"/>
  <unicode hex="0055"/>
  <outline>
    <contour>
      <point x="366" y="712" type="move" name="top"/>
    </contour>
    <contour>
      <point x="428" y="13" type="move" name="ogonek"/>
    </contour>
    <contour>
      <point x="166" y="663" type="curve" smooth="yes"/>
      <point x="166" y="249" type="line" smooth="yes"/>
      <point x="166" y="123"/>
      <point x="217" y="51"/>
      <point x="357" y="51" type="curve" smooth="yes"/>
      <point x="491" y="51"/>
      <point x="547" y="117"/>
      <point x="547" y="249" type="curve" smooth="yes"/>
      <point x="547" y="660" type="line" smooth="yes"/>
      <point x="547" y="679"/>
      <point x="539" y="686"/>
      <point x="524" y="691" type="curve"/>
      <point x="532" y="707"/>
      <point x="547" y="720"/>
      <point x="566" y="720" type="curve" smooth="yes"/>
      <point x="595" y="720"/>
      <point x="610" y="700"/>
      <point x="610" y="663" type="curve" smooth="yes"/>
      <point x="610" y="256" type="line" smooth="yes"/>
      <point x="610" y="101"/>
      <point x="538" y="-7"/>
      <point x="357" y="-7" type="curve" smooth="yes"/>
      <point x="180" y="-7"/>
      <point x="103" y="101"/>
      <point x="103" y="256" type="curve" smooth="yes"/>
      <point x="103" y="660" type="line" smooth="yes"/>
      <point x="103" y="679"/>
      <point x="95" y="686"/>
      <point x="80" y="691" type="curve"/>
      <point x="89" y="707"/>
      <point x="103" y="720"/>
      <point x="122" y="720" type="curve" smooth="yes"/>
      <point x="151" y="720"/>
      <point x="166" y="700"/>
    </contour>
  </outline>
</glyph>
<glyph name="V" format="1">
  <advance width="683"/>
  <unicode hex="0056"/>
  <outline>
    <contour>
      <point x="573" y="572" type="curve" smooth="yes"/>
      <point x="573" y="628"/>
      <point x="566" y="664"/>
      <point x="534" y="701" type="curve"/>
      <point x="546" y="712"/>
      <point x="564" y="720"/>
      <point x="580" y="720" type="curve" smooth="yes"/>
      <point x="624" y="720"/>
      <point x="643" y="671"/>
      <point x="643" y="582" type="curve" smooth="yes"/>
      <point x="643" y="315"/>
      <point x="384" y="-8"/>
      <point x="307" y="-8" type="curve"/>
      <point x="281" y="-8"/>
      <point x="268" y="1"/>
      <point x="257" y="33" type="curve" smooth="yes"/>
      <point x="57" y="639" type="line" smooth="yes"/>
      <point x="48" y="666"/>
      <point x="38" y="677"/>
      <point x="20" y="683" type="curve"/>
      <point x="28" y="707"/>
      <point x="48" y="720"/>
      <point x="68" y="720" type="curve" smooth="yes"/>
      <point x="90" y="720"/>
      <point x="103" y="706"/>
      <point x="118" y="659" type="curve" smooth="yes"/>
      <point x="323" y="14" type="line"/>
      <point x="298" y="24" type="line"/>
      <point x="453" y="157"/>
      <point x="573" y="396"/>
    </contour>
  </outline>
</glyph>
<glyph name="X" format="1">
  <advance width="618"/>
  <unicode hex="0058"/>
  <outline>
    <contour>
      <point x="283" y="362" type="line"/>
      <point x="74" y="67" type="line" smooth="yes"/>
      <point x="59" y="45"/>
      <point x="45" y="37"/>
      <point x="26" y="37" type="curve"/>
      <point x="21" y="7"/>
      <point x="47" y="-8"/>
      <point x="65" y="-8" type="curve" smooth="yes"/>
      <point x="86" y="-8"/>
      <point x="107" y="4"/>
      <point x="146" y="65" type="curve" smooth="yes"/>
      <point x="310" y="323" type="line"/>
    </contour>
    <contour>
      <point x="137" y="677" type="line"/>
      <point x="118" y="706"/>
      <point x="102" y="720"/>
      <point x="76" y="720" type="curve" smooth="yes"/>
      <point x="54" y="720"/>
      <point x="32" y="703"/>
      <point x="25" y="681" type="curve"/>
      <point x="47" y="679"/>
      <point x="63" y="671"/>
      <point x="77" y="649" type="curve" smooth="yes"/>
      <point x="484" y="35" type="line" smooth="yes"/>
      <point x="504" y="6"/>
      <point x="519" y="-8"/>
      <point x="545" y="-8" type="curve" smooth="yes"/>
      <point x="567" y="-8"/>
      <point x="586" y="10"/>
      <point x="592" y="27" type="curve"/>
      <point x="572" y="31"/>
      <point x="559" y="41"/>
      <point x="544" y="63" type="curve" smooth="yes"/>
    </contour>
    <contour>
      <point x="591" y="674" type="curve"/>
      <point x="596" y="704"/>
      <point x="570" y="719"/>
      <point x="552" y="719" type="curve" smooth="yes"/>
      <point x="531" y="719"/>
      <point x="510" y="707"/>
      <point x="471" y="646" type="curve" smooth="yes"/>
      <point x="309" y="392" type="line"/>
      <point x="338" y="355" type="line"/>
      <point x="543" y="644" type="line" smooth="yes"/>
      <point x="558" y="666"/>
      <point x="572" y="674"/>
    </contour>
  </outline>
</glyph>
<glyph name="bracketleft" format="1">
  <advance width="376"/>
  <unicode hex="005B"/>
  <outline>
    <contour>
      <point x="151" y="-157" type="line"/>
      <point x="151" y="742" type="line"/>
      <point x="308" y="742" type="line"/>
      <point x="309" y="744"/>
      <point x="310" y="749"/>
      <point x="310" y="755" type="curve" smooth="yes"/>
      <point x="310" y="790"/>
      <point x="276" y="790"/>
      <point x="262" y="790" type="curve" smooth="yes"/>
      <point x="87" y="790" type="line"/>
      <point x="87" y="-138" type="line" smooth="yes"/>
      <point x="87" y="-202"/>
      <point x="132" y="-202"/>
      <point x="152" y="-202" type="curve" smooth="yes"/>
      <point x="308" y="-202" type="line"/>
      <point x="309" y="-200"/>
      <point x="310" y="-195"/>
      <point x="310" y="-191" type="curve" smooth="yes"/>
      <point x="310" y="-157"/>
      <point x="276" y="-157"/>
      <point x="262" y="-157" type="curve" smooth="yes"/>
    </contour>
  </outline>
</glyph>
<glyph name="backslash" format="1">
  <advance width="544"/>
  <unicode hex="005C"/>
  <outline>
    <contour>
      <point x="85" y="945" type="curve" smooth="yes"/>
      <point x="74" y="945"/>
      <point x="64" y="942"/>
      <point x="53" y="934" type="curve"/>
      <point x="62" y="928"/>
      <point x="70" y="907"/>
      <point x="74" y="894" type="curve" smooth="yes"/>
      <point x="276" y="323"/>
      <point x="319" y="190"/>
      <point x="406" y="-54" type="curve"/>
      <point x="410" y="-70"/>
      <point x="423" y="-103"/>
      <point x="453" y="-103" type="curve" smooth="yes"/>
      <point x="460" y="-103"/>
      <point x="471" y="-103"/>
      <point x="484" y="-91" type="curve"/>
      <point x="479" y="-86"/>
      <point x="468" y="-65"/>
      <point x="464" y="-51" type="curve"/>
      <point x="358" y="244"/>
      <point x="247" y="578"/>
      <point x="132" y="896" type="curve" smooth="yes"/>
      <point x="126" y="911"/>
      <point x="115" y="945"/>
    </contour>
  </outline>
</glyph>
<glyph name="bracketright" format="1">
  <advance width="376"/>
  <unicode hex="005D"/>
  <outline>
    <contour>
      <point x="246" y="744" type="line"/>
      <point x="246" y="-156" type="line"/>
      <point x="89" y="-156" type="line"/>
      <point x="88" y="-158"/>
      <point x="87" y="-162"/>
      <point x="87" y="-168" type="curve" smooth="yes"/>
      <point x="87" y="-202"/>
      <point x="122" y="-202"/>
      <point x="135" y="-202" type="curve" smooth="yes"/>
      <point x="310" y="-202" type="line"/>
      <point x="310" y="724" type="line" smooth="yes"/>
      <point x="310" y="790"/>
      <point x="265" y="790"/>
      <point x="245" y="790" type="curve" smooth="yes"/>
      <point x="89" y="790" type="line"/>
      <point x="88" y="787"/>
      <point x="87" y="782"/>
      <point x="87" y="778" type="curve" smooth="yes"/>
      <point x="87" y="744"/>
      <point x="122" y="744"/>
      <point x="135" y="744" type="curve" smooth="yes"/>
    </contour>
  </outline>
</glyph>
<glyph name="asciicircum" format="1">
  <advance width="527"/>
  <unicode hex="005E"/>
  <outline>
    <contour>
      <point x="281" y="631" type="curve" smooth="yes"/>
      <point x="483" y="253" type="line"/>
      <point x="474" y="244"/>
      <point x="464" y="241"/>
      <point x="456" y="241" type="curve" smooth="yes"/>
      <point x="439" y="241"/>
      <point x="424" y="253"/>
      <point x="412" y="277" type="curve" smooth="yes"/>
      <point x="229" y="618" type="line"/>
      <point x="278" y="616" type="line"/>
      <point x="81" y="238" type="line"/>
      <point x="61" y="238"/>
      <point x="44" y="252"/>
      <point x="44" y="280" type="curve" smooth="yes"/>
      <point x="44" y="297"/>
      <point x="49" y="317"/>
      <point x="62" y="341" type="curve" smooth="yes"/>
      <point x="219" y="626" type="line" smooth="yes"/>
      <point x="229" y="643"/>
      <point x="242" y="650"/>
      <point x="253" y="650" type="curve" smooth="yes"/>
      <point x="265" y="650"/>
      <point x="275" y="645"/>
    </contour>
  </outline>
</glyph>
<glyph name="grave" format="1">
  <advance width="223"/>
  <unicode hex="0060"/>
  <outline>
    <contour>
      <point x="184" y="503" type="move" name="_top"/>
    </contour>
    <contour>
      <point x="67" y="686" type="curve" smooth="yes"/>
      <point x="166" y="584" type="line" smooth="yes"/>
      <point x="190" y="557"/>
      <point x="207" y="569"/>
      <point x="211" y="580" type="curve"/>
      <point x="117" y="719" type="line" smooth="yes"/>
      <point x="97" y="749"/>
      <point x="81" y="760"/>
      <point x="60" y="760" type="curve" smooth="yes"/>
      <point x="28" y="760"/>
      <point x="9" y="738"/>
      <point x="12" y="701" type="curve"/>
      <point x="32" y="707"/>
      <point x="48" y="705"/>
    </contour>
  </outline>
</glyph>
<glyph name="a" format="1">
  <advance width="516"/>
  <unicode hex="0061"/>
  <outline>
    <contour>
      <point x="250" y="503" type="move" name="top"/>
    </contour>
    <contour>
      <point x="479" y="16" type="move" name="ogonek"/>
    </contour>
    <contour>
      <point x="419" y="356" type="curve" smooth="yes"/>
      <point x="419" y="80" type="line" smooth="yes"/>
      <point x="419" y="38"/>
      <point x="439" y="27"/>
      <point x="466" y="26" type="curve"/>
      <point x="458" y="5"/>
      <point x="442" y="-8"/>
      <point x="417" y="-8" type="curve" smooth="yes"/>
      <point x="381" y="-8"/>
      <point x="355" y="19"/>
      <point x="355" y="77" type="curve" smooth="yes"/>
      <point x="355" y="357" type="line" smooth="yes"/>
      <point x="355" y="434"/>
      <point x="315" y="472"/>
      <point x="251" y="472" type="curve" smooth="yes"/>
      <point x="187" y="472"/>
      <point x="147" y="444"/>
      <point x="147" y="403" type="curve" smooth="yes"/>
      <point x="147" y="390"/>
      <point x="150" y="378"/>
      <point x="160" y="368" type="curve"/>
      <point x="149" y="361"/>
      <point x="134" y="357"/>
      <point x="125" y="357" type="curve" smooth="yes"/>
      <point x="100" y="357"/>
      <point x="78" y="372"/>
      <point x="78" y="403" type="curve" smooth="yes"/>
      <point x="78" y="462"/>
      <point x="155" y="512"/>
      <point x="251" y="512" type="curve" smooth="yes"/>
      <point x="360" y="512"/>
      <point x="419" y="449"/>
    </contour>
    <contour>
      <point x="362" y="249" type="line"/>
      <point x="193" y="243"/>
      <point x="126" y="188"/>
      <point x="126" y="125" type="curve" smooth="yes"/>
      <point x="126" y="69"/>
      <point x="162" y="48"/>
      <point x="213" y="48" type="curve" smooth="yes"/>
      <point x="273" y="48"/>
      <point x="328" y="80"/>
      <point x="365" y="139" type="curve"/>
      <point x="372" y="106" type="line"/>
      <point x="335" y="34"/>
      <point x="274" y="-8"/>
      <point x="197" y="-8" type="curve" smooth="yes"/>
      <point x="120" y="-8"/>
      <point x="58" y="37"/>
      <point x="58" y="119" type="curve" smooth="yes"/>
      <point x="58" y="214"/>
      <point x="148" y="283"/>
      <point x="362" y="288" type="curve"/>
    </contour>
  </outline>
</glyph>
<glyph name="d" format="1">
  <advance width="565"/>
  <unicode hex="0064"/>
  <outline>
    <contour>
      <point x="473" y="698" type="curve" smooth="yes"/>
      <point x="473" y="51" type="line" smooth="yes"/>
      <point x="473" y="33"/>
      <point x="481" y="26"/>
      <point x="496" y="21" type="curve"/>
      <point x="487" y="5"/>
      <point x="471" y="-8"/>
      <point x="454" y="-8" type="curve" smooth="yes"/>
      <point x="424" y="-8"/>
      <point x="409" y="12"/>
      <point x="409" y="49" type="curve" smooth="yes"/>
      <point x="409" y="694" type="line" smooth="yes"/>
      <point x="409" y="714"/>
      <point x="401" y="720"/>
      <point x="386" y="726" type="curve"/>
      <point x="394" y="742"/>
      <point x="410" y="754"/>
      <point x="428" y="754" type="curve" smooth="yes"/>
      <point x="457" y="754"/>
      <point x="473" y="735"/>
    </contour>
    <contour>
      <point x="437" y="446" type="curve"/>
      <point x="432" y="390" type="line"/>
      <point x="396" y="436"/>
      <point x="345" y="463"/>
      <point x="282" y="463" type="curve" smooth="yes"/>
      <point x="187" y="463"/>
      <point x="116" y="392"/>
      <point x="116" y="242" type="curve" smooth="yes"/>
      <point x="116" y="106"/>
      <point x="194" y="41"/>
      <point x="274" y="41" type="curve" smooth="yes"/>
      <point x="351" y="41"/>
      <point x="408" y="83"/>
      <point x="430" y="164" type="curve"/>
      <point x="427" y="87" type="line"/>
      <point x="392" y="24"/>
      <point x="339" y="-8"/>
      <point x="263" y="-8" type="curve" smooth="yes"/>
      <point x="165" y="-8"/>
      <point x="52" y="75"/>
      <point x="52" y="244" type="curve" smooth="yes"/>
      <point x="52" y="411"/>
      <point x="157" y="512"/>
      <point x="274" y="512" type="curve" smooth="yes"/>
      <point x="340" y="512"/>
      <point x="392" y="488"/>
    </contour>
  </outline>
</glyph>
<glyph name="f" format="1">
  <advance width="374"/>
  <unicode hex="0066"/>
  <outline>
    <contour>
      <point x="357" y="503" type="curve"/>
      <point x="115" y="503" type="line" smooth="yes"/>
      <point x="84" y="503"/>
      <point x="60" y="505"/>
      <point x="48" y="508" type="curve"/>
      <point x="42" y="501"/>
      <point x="38" y="493"/>
      <point x="38" y="483" type="curve" smooth="yes"/>
      <point x="38" y="464"/>
      <point x="63" y="447"/>
      <point x="158" y="447" type="curve" smooth="yes"/>
      <point x="204" y="447" type="line" smooth="yes"/>
      <point x="330" y="447"/>
      <point x="362" y="467"/>
      <point x="362" y="486" type="curve" smooth="yes"/>
      <point x="362" y="493"/>
      <point x="361" y="498"/>
    </contour>
    <contour>
      <point x="389" y="676" type="curve" smooth="yes"/>
      <point x="389" y="716"/>
      <point x="343" y="754"/>
      <point x="269" y="754" type="curve" smooth="yes"/>
      <point x="192" y="754"/>
      <point x="126" y="706"/>
      <point x="126" y="598" type="curve" smooth="yes"/>
      <point x="126" y="-120" type="line" smooth="yes"/>
      <point x="126" y="-178"/>
      <point x="107" y="-202"/>
      <point x="50" y="-202" type="curve"/>
      <point x="65" y="-230"/>
      <point x="90" y="-243"/>
      <point x="114" y="-243" type="curve" smooth="yes"/>
      <point x="156" y="-243"/>
      <point x="190" y="-209"/>
      <point x="190" y="-137" type="curve" smooth="yes"/>
      <point x="190" y="605" type="line" smooth="yes"/>
      <point x="190" y="673"/>
      <point x="227" y="703"/>
      <point x="276" y="703" type="curve" smooth="yes"/>
      <point x="324" y="703"/>
      <point x="354" y="680"/>
      <point x="377" y="653" type="curve"/>
      <point x="383" y="657"/>
      <point x="389" y="665"/>
    </contour>
  </outline>
</glyph>
<glyph name="g" format="1">
  <advance width="556"/>
  <unicode hex="0067"/>
  <outline>
    <contour>
      <point x="249" y="500" type="move" name="top"/>
    </contour>
    <contour>
      <point x="261" y="512" type="curve" smooth="yes"/>
      <point x="169" y="512"/>
      <point x="72" y="441"/>
      <point x="72" y="315" type="curve" smooth="yes"/>
      <point x="72" y="186"/>
      <point x="169" y="117"/>
      <point x="261" y="117" type="curve" smooth="yes"/>
      <point x="351" y="117"/>
      <point x="450" y="186"/>
      <point x="450" y="315" type="curve" smooth="yes"/>
      <point x="450" y="441"/>
      <point x="351" y="512"/>
    </contour>
    <contour>
      <point x="387" y="315" type="curve" smooth="yes"/>
      <point x="393" y="219"/>
      <point x="333" y="159"/>
      <point x="268" y="159" type="curve" smooth="yes"/>
      <point x="202" y="159"/>
      <point x="142" y="219"/>
      <point x="135" y="315" type="curve" smooth="yes"/>
      <point x="127" y="408"/>
      <point x="187" y="469"/>
      <point x="253" y="469" type="curve" smooth="yes"/>
      <point x="318" y="469"/>
      <point x="381" y="408"/>
    </contour>
    <contour>
      <point x="161" y="160" type="line"/>
      <point x="112" y="148"/>
      <point x="81" y="117"/>
      <point x="81" y="76" type="curve" smooth="yes"/>
      <point x="81" y="5"/>
      <point x="147" y="-20"/>
      <point x="232" y="-20" type="curve" smooth="yes"/>
      <point x="351" y="-20" type="line" smooth="yes"/>
      <point x="415" y="-20"/>
      <point x="446" y="-42"/>
      <point x="446" y="-80" type="curve" smooth="yes"/>
      <point x="446" y="-139"/>
      <point x="384" y="-182"/>
      <point x="275" y="-182" type="curve" smooth="yes"/>
      <point x="129" y="-182"/>
      <point x="90" y="-111"/>
      <point x="87" y="-39" type="curve"/>
      <point x="60" y="-46"/>
      <point x="39" y="-68"/>
      <point x="39" y="-106" type="curve" smooth="yes"/>
      <point x="40" y="-177"/>
      <point x="123" y="-242"/>
      <point x="266" y="-242" type="curve" smooth="yes"/>
      <point x="384" y="-242"/>
      <point x="501" y="-172"/>
      <point x="501" y="-77" type="curve" smooth="yes"/>
      <point x="501" y="-6"/>
      <point x="447" y="39"/>
      <point x="349" y="39" type="curve" smooth="yes"/>
      <point x="240" y="39" type="line" smooth="yes"/>
      <point x="173" y="39"/>
      <point x="141" y="52"/>
      <point x="141" y="84" type="curve" smooth="yes"/>
      <point x="141" y="120"/>
      <point x="178" y="136"/>
      <point x="261" y="136" type="curve"/>
    </contour>
    <contour>
      <point x="453" y="590" type="curve" smooth="yes"/>
      <point x="406" y="590"/>
      <point x="350" y="538"/>
      <point x="350" y="464" type="curve"/>
      <point x="384" y="440" type="line"/>
      <point x="384" y="485"/>
      <point x="410" y="523"/>
      <point x="452" y="523" type="curve" smooth="yes"/>
      <point x="469" y="523"/>
      <point x="487" y="517"/>
      <point x="501" y="506" type="curve"/>
      <point x="511" y="513"/>
      <point x="520" y="528"/>
      <point x="520" y="541" type="curve" smooth="yes"/>
      <point x="520" y="568"/>
      <point x="497" y="590"/>
    </contour>
  </outline>
</glyph>
<glyph name="h" format="1">
  <advance width="583"/>
  <unicode hex="0068"/>
  <outline>
    <contour>
      <point x="159" y="51" type="curve"/>
      <point x="159" y="698" type="line" smooth="yes"/>
      <point x="159" y="735"/>
      <point x="144" y="754"/>
      <point x="114" y="754" type="curve" smooth="yes"/>
      <point x="96" y="754"/>
      <point x="80" y="742"/>
      <point x="73" y="726" type="curve"/>
      <point x="87" y="720"/>
      <point x="96" y="714"/>
      <point x="96" y="694" type="curve" smooth="yes"/>
      <point x="96" y="49" type="line" smooth="yes"/>
      <point x="96" y="12"/>
      <point x="110" y="-8"/>
      <point x="140" y="-8" type="curve" smooth="yes"/>
      <point x="158" y="-8"/>
      <point x="173" y="5"/>
      <point x="182" y="21" type="curve"/>
      <point x="167" y="26"/>
      <point x="159" y="33"/>
    </contour>
    <contour>
      <point x="491" y="342" type="line"/>
      <point x="491" y="459"/>
      <point x="431" y="512"/>
      <point x="340" y="512" type="curve" smooth="yes"/>
      <point x="250" y="512"/>
      <point x="180" y="442"/>
      <point x="152" y="370" type="curve"/>
      <point x="150" y="244" type="line"/>
      <point x="160" y="371"/>
      <point x="247" y="454"/>
      <point x="329" y="454" type="curve" smooth="yes"/>
      <point x="403" y="454"/>
      <point x="428" y="409"/>
      <point x="428" y="341" type="curve" smooth="yes"/>
      <point x="428" y="49" type="line" smooth="yes"/>
      <point x="428" y="12"/>
      <point x="444" y="-8"/>
      <point x="472" y="-8" type="curve" smooth="yes"/>
      <point x="491" y="-8"/>
      <point x="506" y="5"/>
      <point x="515" y="21" type="curve"/>
      <point x="499" y="26"/>
      <point x="491" y="33"/>
      <point x="491" y="51" type="curve" smooth="yes"/>
    </contour>
  </outline>
</glyph>
<glyph name="j" format="1">
  <advance width="255"/>
  <unicode hex="006A"/>
  <outline>
    <contour>
      <point x="179" y="670" type="curve" smooth="yes"/>
      <point x="179" y="640"/>
      <point x="151" y="613"/>
      <point x="117" y="613" type="curve" smooth="yes"/>
      <point x="89" y="613"/>
      <point x="67" y="634"/>
      <point x="67" y="659" type="curve" smooth="yes"/>
      <point x="67" y="696"/>
      <point x="103" y="716"/>
      <point x="130" y="716" type="curve" smooth="yes"/>
      <point x="157" y="716"/>
      <point x="179" y="698"/>
    </contour>
    <contour>
      <point x="159" y="-137" type="line"/>
      <point x="159" y="-209"/>
      <point x="124" y="-243"/>
      <point x="83" y="-243" type="curve" smooth="yes"/>
      <point x="59" y="-243"/>
      <point x="34" y="-230"/>
      <point x="18" y="-202" type="curve"/>
      <point x="76" y="-202"/>
      <point x="96" y="-178"/>
      <point x="96" y="-120" type="curve" smooth="yes"/>
      <point x="96" y="452" type="line"/>
      <point x="96" y="470"/>
      <point x="87" y="478"/>
      <point x="73" y="483" type="curve"/>
      <point x="80" y="498"/>
      <point x="96" y="512"/>
      <point x="114" y="512" type="curve" smooth="yes"/>
      <point x="144" y="512"/>
      <point x="159" y="492"/>
      <point x="159" y="455" type="curve"/>
    </contour>
  </outline>
</glyph>
<glyph name="k" format="1">
  <advance width="540"/>
  <unicode hex="006B"/>
  <outline>
    <contour>
      <point x="275" y="0" type="move" name="bottom"/>
    </contour>
    <contour>
      <point x="159" y="51" type="curve" smooth="yes"/>
      <point x="159" y="698" type="line" smooth="yes"/>
      <point x="159" y="735"/>
      <point x="144" y="754"/>
      <point x="114" y="754" type="curve" smooth="yes"/>
      <point x="96" y="754"/>
      <point x="80" y="742"/>
      <point x="73" y="726" type="curve"/>
      <point x="87" y="720"/>
      <point x="96" y="714"/>
      <point x="96" y="694" type="curve" smooth="yes"/>
      <point x="96" y="49" type="line" smooth="yes"/>
      <point x="96" y="12"/>
      <point x="110" y="-8"/>
      <point x="140" y="-8" type="curve" smooth="yes"/>
      <point x="158" y="-8"/>
      <point x="173" y="5"/>
      <point x="182" y="21" type="curve"/>
      <point x="167" y="26"/>
      <point x="159" y="33"/>
    </contour>
    <contour>
      <point x="155" y="298" type="curve"/>
      <point x="155" y="270" type="line"/>
      <point x="339" y="46"/>
      <point x="378" y="-8"/>
      <point x="441" y="-8" type="curve" smooth="yes"/>
      <point x="475" y="-8"/>
      <point x="490" y="24"/>
      <point x="490" y="52" type="curve"/>
      <point x="433" y="52"/>
      <point x="386" y="68"/>
      <point x="206" y="290" type="curve"/>
      <point x="198" y="275" type="line"/>
      <point x="372" y="314"/>
      <point x="479" y="377"/>
      <point x="479" y="453" type="curve" smooth="yes"/>
      <point x="479" y="493"/>
      <point x="448" y="512"/>
      <point x="415" y="512" type="curve"/>
      <point x="415" y="427"/>
      <point x="364" y="366"/>
    </contour>
  </outline>
</glyph>
<glyph name="m" format="1">
  <advance width="918"/>
  <unicode hex="006D"/>
  <outline>
    <contour>
      <point x="159" y="51" type="line"/>
      <point x="159" y="33"/>
      <point x="167" y="26"/>
      <point x="182" y="21" type="curve"/>
      <point x="173" y="5"/>
      <point x="158" y="-8"/>
      <point x="140" y="-8" type="curve" smooth="yes"/>
      <point x="110" y="-8"/>
      <point x="96" y="12"/>
      <point x="96" y="49" type="curve" smooth="yes"/>
      <point x="96" y="452" type="line" smooth="yes"/>
      <point x="96" y="470"/>
      <point x="87" y="478"/>
      <point x="73" y="483" type="curve"/>
      <point x="80" y="498"/>
      <point x="96" y="512"/>
      <point x="114" y="512" type="curve" smooth="yes"/>
      <point x="144" y="512"/>
      <point x="159" y="492"/>
      <point x="159" y="455" type="curve" smooth="yes"/>
    </contour>
    <contour>
      <point x="491" y="342" type="curve" smooth="yes"/>
      <point x="491" y="51" type="line" smooth="yes"/>
      <point x="491" y="33"/>
      <point x="499" y="26"/>
      <point x="515" y="21" type="curve"/>
      <point x="506" y="5"/>
      <point x="491" y="-8"/>
      <point x="472" y="-8" type="curve" smooth="yes"/>
      <point x="444" y="-8"/>
      <point x="428" y="12"/>
      <point x="428" y="49" type="curve" smooth="yes"/>
      <point x="428" y="341" type="line" smooth="yes"/>
      <point x="428" y="409"/>
      <point x="403" y="454"/>
      <point x="329" y="454" type="curve" smooth="yes"/>
      <point x="247" y="454"/>
      <point x="160" y="371"/>
      <point x="150" y="244" type="curve"/>
      <point x="152" y="370" type="line"/>
      <point x="180" y="442"/>
      <point x="250" y="512"/>
      <point x="340" y="512" type="curve" smooth="yes"/>
      <point x="431" y="512"/>
      <point x="491" y="459"/>
    </contour>
    <contour>
      <point x="824" y="342" type="curve" smooth="yes"/>
      <point x="824" y="51" type="line" smooth="yes"/>
      <point x="824" y="33"/>
      <point x="833" y="26"/>
      <point x="847" y="21" type="curve"/>
      <point x="839" y="5"/>
      <point x="823" y="-8"/>
      <point x="805" y="-8" type="curve" smooth="yes"/>
      <point x="776" y="-8"/>
      <point x="760" y="12"/>
      <point x="760" y="49" type="curve" smooth="yes"/>
      <point x="760" y="341" type="line" smooth="yes"/>
      <point x="760" y="409"/>
      <point x="735" y="454"/>
      <point x="661" y="454" type="curve" smooth="yes"/>
      <point x="580" y="454"/>
      <point x="492" y="371"/>
      <point x="483" y="244" type="curve"/>
      <point x="486" y="370" type="line"/>
      <point x="512" y="442"/>
      <point x="582" y="512"/>
      <point x="673" y="512" type="curve" smooth="yes"/>
      <point x="763" y="512"/>
      <point x="824" y="459"/>
    </contour>
  </outline>
</glyph>
<glyph name="p" format="1">
  <advance width="572"/>
  <unicode hex="0070"/>
  <outline>
    <contour>
      <point x="524" y="252" type="curve" smooth="yes"/>
      <point x="524" y="92"/>
      <point x="411" y="-7"/>
      <point x="300" y="-7" type="curve" smooth="yes"/>
      <point x="236" y="-7"/>
      <point x="187" y="10"/>
      <point x="145" y="59" type="curve"/>
      <point x="154" y="111" type="line"/>
      <point x="192" y="59"/>
      <point x="232" y="43"/>
      <point x="290" y="43" type="curve" smooth="yes"/>
      <point x="384" y="43"/>
      <point x="457" y="125"/>
      <point x="457" y="252" type="curve" smooth="yes"/>
      <point x="457" y="380"/>
      <point x="395" y="455"/>
      <point x="298" y="455" type="curve" smooth="yes"/>
      <point x="236" y="455"/>
      <point x="191" y="424"/>
      <point x="154" y="359" type="curve"/>
      <point x="145" y="416" type="line"/>
      <point x="187" y="475"/>
      <point x="233" y="512"/>
      <point x="310" y="512" type="curve" smooth="yes"/>
      <point x="425" y="512"/>
      <point x="524" y="423"/>
    </contour>
    <contour>
      <point x="159" y="455" type="curve" smooth="yes"/>
      <point x="159" y="-183" type="line" smooth="yes"/>
      <point x="159" y="-201"/>
      <point x="167" y="-209"/>
      <point x="182" y="-214" type="curve"/>
      <point x="173" y="-230"/>
      <point x="158" y="-243"/>
      <point x="140" y="-243" type="curve" smooth="yes"/>
      <point x="110" y="-243"/>
      <point x="96" y="-222"/>
      <point x="96" y="-185" type="curve" smooth="yes"/>
      <point x="96" y="452" type="line" smooth="yes"/>
      <point x="96" y="470"/>
      <point x="87" y="478"/>
      <point x="73" y="483" type="curve"/>
      <point x="80" y="498"/>
      <point x="96" y="512"/>
      <point x="114" y="512" type="curve" smooth="yes"/>
      <point x="144" y="512"/>
      <point x="159" y="492"/>
    </contour>
  </outline>
</glyph>
<glyph name="q" format="1">
  <advance width="561"/>
  <unicode hex="0071"/>
  <outline>
    <contour>
      <point x="416" y="416" type="line"/>
      <point x="396" y="470"/>
      <point x="348" y="512"/>
      <point x="274" y="512" type="curve" smooth="yes"/>
      <point x="149" y="512"/>
      <point x="52" y="405"/>
      <point x="52" y="243" type="curve" smooth="yes"/>
      <point x="52" y="81"/>
      <point x="155" y="-8"/>
      <point x="271" y="-8" type="curve" smooth="yes"/>
      <point x="351" y="-8"/>
      <point x="389" y="29"/>
      <point x="426" y="80" type="curve"/>
      <point x="423" y="133" type="line"/>
      <point x="391" y="76"/>
      <point x="345" y="41"/>
      <point x="279" y="41" type="curve" smooth="yes"/>
      <point x="192" y="41"/>
      <point x="119" y="106"/>
      <point x="119" y="243" type="curve" smooth="yes"/>
      <point x="119" y="392"/>
      <point x="185" y="463"/>
      <point x="279" y="463" type="curve" smooth="yes"/>
      <point x="357" y="463"/>
      <point x="409" y="407"/>
      <point x="409" y="320" type="curve"/>
    </contour>
    <contour>
      <point x="473" y="512" type="line"/>
      <point x="455" y="512" type="line" smooth="yes"/>
      <point x="428" y="512"/>
      <point x="409" y="491"/>
      <point x="409" y="452" type="curve"/>
      <point x="409" y="-185" type="line" smooth="yes"/>
      <point x="409" y="-222"/>
      <point x="424" y="-243"/>
      <point x="454" y="-243" type="curve" smooth="yes"/>
      <point x="471" y="-243"/>
      <point x="487" y="-230"/>
      <point x="496" y="-214" type="curve"/>
      <point x="481" y="-209"/>
      <point x="473" y="-201"/>
      <point x="473" y="-183" type="curve" smooth="yes"/>
    </contour>
  </outline>
</glyph>
<glyph name="t" format="1">
  <advance width="388"/>
  <unicode hex="0074"/>
  <outline>
    <contour>
      <point x="190" y="700" type="move" name="topright"/>
    </contour>
    <contour>
      <point x="218" y="0" type="move" name="bottom"/>
    </contour>
    <contour>
      <point x="159" y="600" type="curve" smooth="yes"/>
      <point x="159" y="119" type="line" smooth="yes"/>
      <point x="159" y="69"/>
      <point x="177" y="49"/>
      <point x="224" y="49" type="curve" smooth="yes"/>
      <point x="273" y="49"/>
      <point x="314" y="72"/>
      <point x="346" y="102" type="curve"/>
      <point x="351" y="98"/>
      <point x="359" y="91"/>
      <point x="359" y="77" type="curve" smooth="yes"/>
      <point x="359" y="37"/>
      <point x="300" y="-8"/>
      <point x="211" y="-8" type="curve" smooth="yes"/>
      <point x="132" y="-8"/>
      <point x="95" y="37"/>
      <point x="95" y="120" type="curve" smooth="yes"/>
      <point x="95" y="597" type="line" smooth="yes"/>
      <point x="95" y="616"/>
      <point x="86" y="623"/>
      <point x="72" y="629" type="curve"/>
      <point x="80" y="644"/>
      <point x="96" y="657"/>
      <point x="114" y="657" type="curve" smooth="yes"/>
      <point x="143" y="657"/>
      <point x="159" y="637"/>
    </contour>
    <contour>
      <point x="331" y="503" type="line"/>
      <point x="334" y="498"/>
      <point x="335" y="495"/>
      <point x="335" y="487" type="curve" smooth="yes"/>
      <point x="335" y="468"/>
      <point x="304" y="448"/>
      <point x="174" y="448" type="curve" smooth="yes"/>
      <point x="97" y="448" type="line" smooth="yes"/>
      <point x="28" y="450"/>
      <point x="11" y="467"/>
      <point x="11" y="484" type="curve" smooth="yes"/>
      <point x="11" y="493"/>
      <point x="14" y="502"/>
      <point x="21" y="508" type="curve"/>
      <point x="34" y="506"/>
      <point x="48" y="503"/>
      <point x="76" y="503" type="curve" smooth="yes"/>
    </contour>
  </outline>
</glyph>
<glyph name="w" format="1">
  <advance width="805"/>
  <unicode hex="0077"/>
  <outline>
    <contour>
      <point x="116" y="454" type="curve" smooth="yes"/>
      <point x="241" y="22" type="line"/>
      <point x="232" y="22" type="line"/>
      <point x="312" y="119"/>
      <point x="374" y="257"/>
      <point x="402" y="439" type="curve"/>
      <point x="442" y="396" type="line"/>
      <point x="431" y="249"/>
      <point x="317" y="-8"/>
      <point x="233" y="-8" type="curve" smooth="yes"/>
      <point x="204" y="-8"/>
      <point x="187" y="11"/>
      <point x="175" y="48" type="curve" smooth="yes"/>
      <point x="52" y="441" type="line" smooth="yes"/>
      <point x="47" y="458"/>
      <point x="36" y="470"/>
      <point x="12" y="468" type="curve"/>
      <point x="9" y="495"/>
      <point x="32" y="512"/>
      <point x="56" y="512" type="curve" smooth="yes"/>
      <point x="83" y="512"/>
      <point x="105" y="493"/>
    </contour>
    <contour>
      <point x="439" y="454" type="curve"/>
      <point x="569" y="23" type="line"/>
      <point x="557" y="23" type="line"/>
      <point x="654" y="146"/>
      <point x="736" y="330"/>
      <point x="688" y="500" type="curve"/>
      <point x="699" y="507"/>
      <point x="710" y="512"/>
      <point x="724" y="512" type="curve" smooth="yes"/>
      <point x="747" y="512"/>
      <point x="770" y="489"/>
      <point x="770" y="434" type="curve" smooth="yes"/>
      <point x="770" y="219"/>
      <point x="620" y="-8"/>
      <point x="565" y="-8" type="curve" smooth="yes"/>
      <point x="535" y="-8"/>
      <point x="517" y="9"/>
      <point x="504" y="48" type="curve" smooth="yes"/>
      <point x="375" y="441" type="line"/>
      <point x="371" y="458"/>
      <point x="359" y="470"/>
      <point x="335" y="468" type="curve"/>
      <point x="332" y="495"/>
      <point x="355" y="512"/>
      <point x="379" y="512" type="curve" smooth="yes"/>
      <point x="406" y="512"/>
      <point x="428" y="493"/>
    </contour>
  </outline>
</glyph>
<glyph name="x" format="1">
  <advance width="497"/>
  <unicode hex="0078"/>
  <outline>
    <contour>
      <point x="225" y="253" type="line"/>
      <point x="84" y="68" type="line" smooth="yes"/>
      <point x="66" y="45"/>
      <point x="53" y="36"/>
      <point x="35" y="36" type="curve"/>
      <point x="35" y="8"/>
      <point x="55" y="-7"/>
      <point x="80" y="-7" type="curve" smooth="yes"/>
      <point x="103" y="-7"/>
      <point x="117" y="4"/>
      <point x="139" y="40" type="curve" smooth="yes"/>
      <point x="253" y="228" type="line"/>
    </contour>
    <contour>
      <point x="120" y="483" type="line"/>
      <point x="105" y="503"/>
      <point x="91" y="512"/>
      <point x="72" y="512" type="curve" smooth="yes"/>
      <point x="50" y="512"/>
      <point x="35" y="496"/>
      <point x="35" y="469" type="curve"/>
      <point x="48" y="469"/>
      <point x="54" y="466"/>
      <point x="66" y="449" type="curve" smooth="yes"/>
      <point x="376" y="22" type="line" smooth="yes"/>
      <point x="391" y="2"/>
      <point x="406" y="-7"/>
      <point x="425" y="-7" type="curve" smooth="yes"/>
      <point x="447" y="-7"/>
      <point x="462" y="9"/>
      <point x="462" y="36" type="curve"/>
      <point x="449" y="36"/>
      <point x="443" y="39"/>
      <point x="431" y="56" type="curve" smooth="yes"/>
    </contour>
    <contour>
      <point x="272" y="252" type="line"/>
      <point x="413" y="437" type="line" smooth="yes"/>
      <point x="431" y="460"/>
      <point x="444" y="469"/>
      <point x="462" y="469" type="curve"/>
      <point x="462" y="497"/>
      <point x="442" y="512"/>
      <point x="417" y="512" type="curve" smooth="yes"/>
      <point x="394" y="512"/>
      <point x="380" y="501"/>
      <point x="358" y="465" type="curve" smooth="yes"/>
      <point x="244" y="277" type="line"/>
    </contour>
  </outline>
</glyph>
<glyph name="y" format="1">
  <advance width="535"/>
  <unicode hex="0079"/>
  <outline>
    <contour>
      <point x="264" y="503" type="move" name="top"/>
    </contour>
    <contour>
      <point x="475" y="428" type="line"/>
      <point x="497" y="481"/>
      <point x="468" y="512"/>
      <point x="440" y="512" type="curve" smooth="yes"/>
      <point x="424" y="512"/>
      <point x="411" y="507"/>
      <point x="399" y="498" type="curve"/>
      <point x="412" y="484"/>
      <point x="419" y="464"/>
      <point x="407" y="432" type="curve" smooth="yes"/>
      <point x="201" y="-124" type="line" smooth="yes"/>
      <point x="186" y="-164"/>
      <point x="167" y="-179"/>
      <point x="142" y="-179" type="curve" smooth="yes"/>
      <point x="122" y="-179"/>
      <point x="106" y="-174"/>
      <point x="95" y="-160" type="curve"/>
      <point x="87" y="-169"/>
      <point x="82" y="-179"/>
      <point x="82" y="-191" type="curve" smooth="yes"/>
      <point x="82" y="-215"/>
      <point x="100" y="-243"/>
      <point x="145" y="-243" type="curve" smooth="yes"/>
      <point x="190" y="-243"/>
      <point x="224" y="-217"/>
      <point x="250" y="-150" type="curve" smooth="yes"/>
    </contour>
    <contour>
      <point x="113" y="460" type="line"/>
      <point x="101" y="496"/>
      <point x="85" y="512"/>
      <point x="61" y="512" type="curve" smooth="yes"/>
      <point x="42" y="512"/>
      <point x="27" y="504"/>
      <point x="20" y="490" type="curve"/>
      <point x="36" y="483"/>
      <point x="43" y="468"/>
      <point x="48" y="452" type="curve" smooth="yes"/>
      <point x="197" y="27" type="line" smooth="yes"/>
      <point x="208" y="-5"/>
      <point x="241" y="-18"/>
      <point x="273" y="-1" type="curve"/>
    </contour>
  </outline>
</glyph>
<glyph name="braceleft" format="1">
  <advance width="330"/>
  <unicode hex="007B"/>
  <outline>
    <contour>
      <point x="279" y="785" type="curve"/>
      <point x="267" y="797"/>
      <point x="254" y="805"/>
      <point x="231" y="805" type="curve" smooth="yes"/>
      <point x="180" y="805"/>
      <point x="104" y="759"/>
      <point x="104" y="625" type="curve" smooth="yes"/>
      <point x="104" y="579"/>
      <point x="118" y="484"/>
      <point x="118" y="417" type="curve" smooth="yes"/>
      <point x="118" y="318"/>
      <point x="54" y="314"/>
      <point x="54" y="293" type="curve" smooth="yes"/>
      <point x="54" y="272"/>
      <point x="118" y="266"/>
      <point x="118" y="168" type="curve" smooth="yes"/>
      <point x="118" y="98"/>
      <point x="104" y="-2"/>
      <point x="104" y="-55" type="curve" smooth="yes"/>
      <point x="104" y="-187"/>
      <point x="180" y="-234"/>
      <point x="231" y="-234" type="curve" smooth="yes"/>
      <point x="254" y="-234"/>
      <point x="267" y="-227"/>
      <point x="279" y="-214" type="curve"/>
      <point x="216" y="-209"/>
      <point x="166" y="-167"/>
      <point x="166" y="-87" type="curve" smooth="yes"/>
      <point x="166" y="-27"/>
      <point x="181" y="116"/>
      <point x="181" y="177" type="curve" smooth="yes"/>
      <point x="181" y="257"/>
      <point x="106" y="289"/>
      <point x="102" y="292" type="curve"/>
      <point x="104" y="293"/>
      <point x="181" y="327"/>
      <point x="181" y="409" type="curve" smooth="yes"/>
      <point x="181" y="467"/>
      <point x="166" y="601"/>
      <point x="166" y="657" type="curve" smooth="yes"/>
      <point x="166" y="738"/>
      <point x="216" y="781"/>
    </contour>
  </outline>
</glyph>
<glyph name="bar" format="1">
  <advance width="253"/>
  <unicode hex="007C"/>
  <outline>
    <contour>
      <point x="156" y="-99" type="curve"/>
      <point x="156" y="811" type="line" smooth="yes"/>
      <point x="156" y="848"/>
      <point x="140" y="867"/>
      <point x="111" y="867" type="curve" smooth="yes"/>
      <point x="93" y="867"/>
      <point x="77" y="855"/>
      <point x="69" y="839" type="curve"/>
      <point x="84" y="833"/>
      <point x="92" y="827"/>
      <point x="92" y="808" type="curve" smooth="yes"/>
      <point x="92" y="-101" type="line" smooth="yes"/>
      <point x="92" y="-139"/>
      <point x="107" y="-158"/>
      <point x="136" y="-158" type="curve" smooth="yes"/>
      <point x="154" y="-158"/>
      <point x="170" y="-145"/>
      <point x="179" y="-129" type="curve"/>
      <point x="164" y="-124"/>
      <point x="156" y="-117"/>
    </contour>
  </outline>
</glyph>
<glyph name="asciitilde" format="1">
  <advance width="646"/>
  <unicode hex="007E"/>
  <outline>
    <contour>
      <point x="545" y="347" type="curve"/>
      <point x="542" y="313"/>
      <point x="519" y="293"/>
      <point x="480" y="293" type="curve" smooth="yes"/>
      <point x="441" y="293"/>
      <point x="234" y="345"/>
      <point x="173" y="345" type="curve" smooth="yes"/>
      <point x="111" y="345"/>
      <point x="80" y="310"/>
      <point x="80" y="273" type="curve" smooth="yes"/>
      <point x="80" y="253"/>
      <point x="90" y="240"/>
      <point x="101" y="237" type="curve"/>
      <point x="104" y="270"/>
      <point x="127" y="290"/>
      <point x="166" y="290" type="curve" smooth="yes"/>
      <point x="214" y="290"/>
      <point x="421" y="238"/>
      <point x="473" y="238" type="curve" smooth="yes"/>
      <point x="535" y="238"/>
      <point x="566" y="274"/>
      <point x="566" y="309" type="curve" smooth="yes"/>
      <point x="566" y="330"/>
      <point x="556" y="342"/>
    </contour>
  </outline>
</glyph>
<glyph name="currency" format="1">
  <advance width="609"/>
  <unicode hex="00A4"/>
  <outline>
    <contour>
      <point x="306" y="486" type="curve" smooth="yes"/>
      <point x="210" y="486"/>
      <point x="114" y="423"/>
      <point x="114" y="289" type="curve" smooth="yes"/>
      <point x="114" y="156"/>
      <point x="210" y="91"/>
      <point x="306" y="91" type="curve" smooth="yes"/>
      <point x="401" y="91"/>
      <point x="494" y="156"/>
      <point x="494" y="289" type="curve" smooth="yes"/>
      <point x="494" y="421"/>
      <point x="401" y="486"/>
    </contour>
    <contour>
      <point x="294" y="444" type="curve" smooth="yes"/>
      <point x="366" y="444"/>
      <point x="428" y="401"/>
      <point x="438" y="289" type="curve" smooth="yes"/>
      <point x="446" y="176"/>
      <point x="388" y="133"/>
      <point x="316" y="133" type="curve" smooth="yes"/>
      <point x="243" y="133"/>
      <point x="182" y="176"/>
      <point x="173" y="289" type="curve" smooth="yes"/>
      <point x="164" y="401"/>
      <point x="221" y="444"/>
    </contour>
    <contour>
      <point x="163" y="378" type="line"/>
      <point x="201" y="415" type="line"/>
      <point x="154" y="464" type="line" smooth="yes"/>
      <point x="125" y="493"/>
      <point x="98" y="499"/>
      <point x="79" y="477" type="curve" smooth="yes"/>
      <point x="78" y="472"/>
      <point x="76" y="466"/>
      <point x="75" y="467" type="curve"/>
    </contour>
    <contour>
      <point x="454" y="464" type="curve"/>
      <point x="408" y="415" type="line"/>
      <point x="445" y="378" type="line"/>
      <point x="534" y="467" type="line"/>
      <point x="532" y="466"/>
      <point x="531" y="472"/>
      <point x="530" y="477" type="curve" smooth="yes"/>
      <point x="511" y="499"/>
      <point x="483" y="493"/>
    </contour>
    <contour>
      <point x="153" y="96" type="curve"/>
      <point x="195" y="137" type="line"/>
      <point x="158" y="175" type="line"/>
      <point x="75" y="94" type="line"/>
      <point x="75" y="95"/>
      <point x="77" y="89"/>
      <point x="79" y="85" type="curve" smooth="yes"/>
      <point x="98" y="63"/>
      <point x="123" y="68"/>
    </contour>
    <contour>
      <point x="450" y="175" type="line"/>
      <point x="412" y="137" type="line"/>
      <point x="456" y="96" type="line" smooth="yes"/>
      <point x="484" y="68"/>
      <point x="511" y="63"/>
      <point x="530" y="85" type="curve" smooth="yes"/>
      <point x="532" y="89"/>
      <point x="534" y="95"/>
      <point x="534" y="94" type="curve"/>
    </contour>
  </outline>
</glyph>
<glyph name="yen" format="1">
  <advance width="592"/>
  <unicode hex="00A5"/>
  <outline>
    <contour>
      <point x="515" y="230" type="curve" smooth="yes"/>
      <point x="515" y="200"/>
      <point x="483" y="187"/>
      <point x="445" y="187" type="curve" smooth="yes"/>
      <point x="69" y="187" type="line"/>
      <point x="68" y="190"/>
      <point x="66" y="196"/>
      <point x="66" y="202" type="curve" smooth="yes"/>
      <point x="66" y="233"/>
      <point x="98" y="245"/>
      <point x="136" y="245" type="curve" smooth="yes"/>
      <point x="512" y="245" type="line"/>
      <point x="513" y="241"/>
      <point x="515" y="236"/>
    </contour>
    <contour>
      <point x="283" y="324" type="line"/>
      <point x="69" y="324" type="line"/>
      <point x="68" y="326"/>
      <point x="66" y="332"/>
      <point x="66" y="338" type="curve" smooth="yes"/>
      <point x="66" y="369"/>
      <point x="98" y="381"/>
      <point x="136" y="381" type="curve" smooth="yes"/>
      <point x="260" y="381" type="line"/>
    </contour>
    <contour>
      <point x="339" y="381" type="line"/>
      <point x="512" y="381" type="line"/>
      <point x="513" y="377"/>
      <point x="515" y="372"/>
      <point x="515" y="366" type="curve" smooth="yes"/>
      <point x="515" y="336"/>
      <point x="483" y="324"/>
      <point x="445" y="324" type="curve" smooth="yes"/>
      <point x="303" y="324" type="line"/>
    </contour>
    <component base="Y"/>
  </outline>
</glyph>
<glyph name="brokenbar" format="1">
  <advance width="253"/>
  <unicode hex="00A6"/>
  <outline>
    <contour>
      <point x="158" y="509" type="curve"/>
      <point x="158" y="766" type="line" smooth="yes"/>
      <point x="158" y="804"/>
      <point x="143" y="823"/>
      <point x="114" y="823" type="curve" smooth="yes"/>
      <point x="95" y="823"/>
      <point x="80" y="810"/>
      <point x="72" y="794" type="curve"/>
      <point x="87" y="789"/>
      <point x="95" y="782"/>
      <point x="95" y="764" type="curve" smooth="yes"/>
      <point x="95" y="506" type="line" smooth="yes"/>
      <point x="95" y="469"/>
      <point x="110" y="450"/>
      <point x="139" y="450" type="curve" smooth="yes"/>
      <point x="158" y="450"/>
      <point x="172" y="462"/>
      <point x="181" y="478" type="curve"/>
      <point x="166" y="484"/>
      <point x="158" y="490"/>
    </contour>
    <contour>
      <point x="158" y="-3" type="curve"/>
      <point x="158" y="255" type="line" smooth="yes"/>
      <point x="158" y="292"/>
      <point x="143" y="312"/>
      <point x="114" y="312" type="curve" smooth="yes"/>
      <point x="95" y="312"/>
      <point x="80" y="299"/>
      <point x="72" y="283" type="curve"/>
      <point x="87" y="278"/>
      <point x="95" y="271"/>
      <point x="95" y="252" type="curve" smooth="yes"/>
      <point x="95" y="-5" type="line" smooth="yes"/>
      <point x="95" y="-43"/>
      <point x="110" y="-62"/>
      <point x="139" y="-62" type="curve" smooth="yes"/>
      <point x="158" y="-62"/>
      <point x="172" y="-49"/>
      <point x="181" y="-33" type="curve"/>
      <point x="166" y="-28"/>
      <point x="158" y="-21"/>
    </contour>
  </outline>
</glyph>
<glyph name="section" format="1">
  <advance width="628"/>
  <unicode hex="00A7"/>
  <outline>
    <contour>
      <point x="512" y="580" type="curve" smooth="yes"/>
      <point x="512" y="546"/>
      <point x="497" y="527"/>
      <point x="469" y="527" type="curve" smooth="yes"/>
      <point x="461" y="527"/>
      <point x="454" y="528"/>
      <point x="447" y="531" type="curve"/>
      <point x="449" y="541"/>
      <point x="450" y="549"/>
      <point x="450" y="558" type="curve" smooth="yes"/>
      <point x="450" y="603"/>
      <point x="406" y="667"/>
      <point x="308" y="667" type="curve" smooth="yes"/>
      <point x="224" y="667"/>
      <point x="166" y="624"/>
      <point x="166" y="547" type="curve" smooth="yes"/>
      <point x="166" y="368"/>
      <point x="537" y="376"/>
      <point x="537" y="178" type="curve" smooth="yes"/>
      <point x="537" y="122"/>
      <point x="487" y="53"/>
      <point x="432" y="53" type="curve" smooth="yes"/>
      <point x="416" y="53"/>
      <point x="398" y="56"/>
      <point x="380" y="65" type="curve"/>
      <point x="439" y="74"/>
      <point x="478" y="127"/>
      <point x="478" y="181" type="curve" smooth="yes"/>
      <point x="478" y="332"/>
      <point x="107" y="322"/>
      <point x="107" y="539" type="curve" smooth="yes"/>
      <point x="107" y="647"/>
      <point x="212" y="720"/>
      <point x="311" y="720" type="curve" smooth="yes"/>
      <point x="438" y="720"/>
      <point x="512" y="652"/>
    </contour>
    <contour>
      <point x="245" y="298" type="curve"/>
      <point x="198" y="286"/>
      <point x="166" y="248"/>
      <point x="166" y="193" type="curve" smooth="yes"/>
      <point x="166" y="21"/>
      <point x="537" y="23"/>
      <point x="537" y="-161" type="curve" smooth="yes"/>
      <point x="537" y="-277"/>
      <point x="431" y="-366"/>
      <point x="305" y="-366" type="curve" smooth="yes"/>
      <point x="180" y="-366"/>
      <point x="87" y="-293"/>
      <point x="87" y="-192" type="curve" smooth="yes"/>
      <point x="87" y="-154"/>
      <point x="109" y="-127"/>
      <point x="136" y="-127" type="curve" smooth="yes"/>
      <point x="153" y="-127"/>
      <point x="164" y="-133"/>
      <point x="171" y="-147" type="curve"/>
      <point x="162" y="-159"/>
      <point x="151" y="-175"/>
      <point x="151" y="-199" type="curve" smooth="yes"/>
      <point x="151" y="-260"/>
      <point x="203" y="-311"/>
      <point x="304" y="-311" type="curve" smooth="yes"/>
      <point x="391" y="-311"/>
      <point x="478" y="-251"/>
      <point x="478" y="-172" type="curve" smooth="yes"/>
      <point x="478" y="-17"/>
      <point x="107" y="-29"/>
      <point x="107" y="186" type="curve" smooth="yes"/>
      <point x="107" y="261"/>
      <point x="154" y="309"/>
      <point x="204" y="309" type="curve" smooth="yes"/>
      <point x="218" y="309"/>
      <point x="233" y="305"/>
    </contour>
  </outline>
</glyph>
<glyph name="guillemotleft" format="1">
  <advance width="620"/>
  <unicode hex="00AB"/>
  <outline>
    <contour>
      <point x="531" y="635" type="curve"/>
      <point x="449" y="546"/>
      <point x="391" y="461"/>
      <point x="391" y="404" type="curve" smooth="yes"/>
      <point x="391" y="349"/>
      <point x="449" y="262"/>
      <point x="531" y="175" type="curve"/>
      <point x="528" y="168"/>
      <point x="519" y="154"/>
      <point x="504" y="154" type="curve" smooth="yes"/>
      <point x="468" y="154"/>
      <point x="309" y="329"/>
      <point x="309" y="404" type="curve" smooth="yes"/>
      <point x="309" y="481"/>
      <point x="469" y="656"/>
      <point x="504" y="656" type="curve" smooth="yes"/>
      <point x="519" y="656"/>
      <point x="528" y="642"/>
    </contour>
    <contour>
      <point x="311" y="635" type="curve"/>
      <point x="228" y="546"/>
      <point x="171" y="461"/>
      <point x="171" y="404" type="curve" smooth="yes"/>
      <point x="171" y="349"/>
      <point x="228" y="262"/>
      <point x="311" y="175" type="curve"/>
      <point x="308" y="168"/>
      <point x="298" y="154"/>
      <point x="284" y="154" type="curve" smooth="yes"/>
      <point x="248" y="154"/>
      <point x="89" y="329"/>
      <point x="89" y="404" type="curve" smooth="yes"/>
      <point x="89" y="481"/>
      <point x="249" y="656"/>
      <point x="284" y="656" type="curve" smooth="yes"/>
      <point x="298" y="656"/>
      <point x="308" y="642"/>
    </contour>
  </outline>
</glyph>
<glyph name="logicalnot" format="1">
  <advance width="708"/>
  <unicode hex="00AC"/>
  <outline>
    <contour>
      <point x="622" y="410" type="line"/>
      <point x="622" y="445"/>
      <point x="607" y="460"/>
      <point x="572" y="460" type="curve" smooth="yes"/>
      <point x="122" y="460" type="line" smooth="yes"/>
      <point x="108" y="460"/>
      <point x="61" y="463"/>
      <point x="61" y="425" type="curve" smooth="yes"/>
      <point x="61" y="420"/>
      <point x="63" y="415"/>
      <point x="65" y="411" type="curve"/>
      <point x="539" y="411" type="line" smooth="yes"/>
      <point x="550" y="411"/>
      <point x="559" y="409"/>
      <point x="559" y="395" type="curve" smooth="yes"/>
      <point x="559" y="292" type="line" smooth="yes"/>
      <point x="559" y="255"/>
      <point x="573" y="236"/>
      <point x="603" y="236" type="curve" smooth="yes"/>
      <point x="621" y="236"/>
      <point x="637" y="248"/>
      <point x="645" y="264" type="curve"/>
      <point x="630" y="270"/>
      <point x="622" y="276"/>
      <point x="622" y="295" type="curve" smooth="yes"/>
    </contour>
  </outline>
</glyph>
<glyph name="registered" format="1">
  <advance width="672"/>
  <unicode hex="00AE"/>
  <outline>
    <contour>
      <point x="599" y="544" type="curve" smooth="yes"/>
      <point x="599" y="705"/>
      <point x="486" y="813"/>
      <point x="336" y="813" type="curve" smooth="yes"/>
      <point x="186" y="813"/>
      <point x="73" y="705"/>
      <point x="73" y="544" type="curve" smooth="yes"/>
      <point x="73" y="383"/>
      <point x="186" y="276"/>
      <point x="336" y="276" type="curve" smooth="yes"/>
      <point x="486" y="276"/>
      <point x="599" y="383"/>
    </contour>
    <contour>
      <point x="443" y="411" type="curve"/>
      <point x="345" y="539" type="line"/>
      <point x="292" y="540" type="line"/>
      <point x="390" y="405" type="line" smooth="yes"/>
      <point x="405" y="384"/>
      <point x="421" y="376"/>
      <point x="437" y="376" type="curve" smooth="yes"/>
      <point x="445" y="376"/>
      <point x="462" y="379"/>
      <point x="470" y="397" type="curve"/>
      <point x="458" y="396"/>
      <point x="450" y="400"/>
    </contour>
    <contour>
      <point x="459" y="624" type="curve" smooth="yes"/>
      <point x="459" y="680"/>
      <point x="412" y="723"/>
      <point x="329" y="723" type="curve" smooth="yes"/>
      <point x="264" y="723" type="line" smooth="yes"/>
      <point x="243" y="723"/>
      <point x="234" y="717"/>
      <point x="228" y="707" type="curve"/>
      <point x="234" y="703"/>
      <point x="237" y="700"/>
      <point x="237" y="692" type="curve" smooth="yes"/>
      <point x="237" y="404" type="line" smooth="yes"/>
      <point x="237" y="384"/>
      <point x="248" y="376"/>
      <point x="264" y="376" type="curve" smooth="yes"/>
      <point x="280" y="376"/>
      <point x="288" y="381"/>
      <point x="294" y="389" type="curve"/>
      <point x="286" y="391"/>
      <point x="282" y="394"/>
      <point x="282" y="405" type="curve" smooth="yes"/>
      <point x="282" y="523" type="line"/>
      <point x="329" y="523" type="line" smooth="yes"/>
      <point x="412" y="523"/>
      <point x="459" y="566"/>
    </contour>
    <contour>
      <point x="282" y="688" type="line"/>
      <point x="330" y="688" type="line" smooth="yes"/>
      <point x="378" y="688"/>
      <point x="410" y="668"/>
      <point x="410" y="623" type="curve" smooth="yes"/>
      <point x="410" y="578"/>
      <point x="378" y="559"/>
      <point x="330" y="559" type="curve" smooth="yes"/>
      <point x="282" y="559" type="line"/>
    </contour>
    <contour>
      <point x="110" y="545" type="curve" smooth="yes"/>
      <point x="110" y="672"/>
      <point x="197" y="781"/>
      <point x="337" y="781" type="curve" smooth="yes"/>
      <point x="477" y="781"/>
      <point x="562" y="674"/>
      <point x="562" y="545" type="curve" smooth="yes"/>
      <point x="562" y="415"/>
      <point x="475" y="307"/>
      <point x="336" y="307" type="curve" smooth="yes"/>
      <point x="196" y="307"/>
      <point x="110" y="415"/>
    </contour>
  </outline>
</glyph>
<glyph name="acute" format="1">
  <advance width="239"/>
  <unicode hex="00B4"/>
  <outline>
    <contour>
      <point x="43" y="503" type="move" name="_top"/>
    </contour>
    <contour>
      <point x="60" y="580" type="curve"/>
      <point x="171" y="668" type="line" smooth="yes"/>
      <point x="192" y="683"/>
      <point x="208" y="684"/>
      <point x="227" y="675" type="curve"/>
      <point x="236" y="711"/>
      <point x="220" y="734"/>
      <point x="190" y="739" type="curve" smooth="yes"/>
      <point x="169" y="742"/>
      <point x="151" y="735"/>
      <point x="125" y="708" type="curve" smooth="yes"/>
      <point x="13" y="582" type="line"/>
      <point x="16" y="571"/>
      <point x="32" y="557"/>
    </contour>
  </outline>
</glyph>
<glyph name="paragraph" format="1">
  <advance width="640"/>
  <unicode hex="00B6"/>
  <outline>
    <contour>
      <point x="493" y="712" type="curve"/>
      <point x="253" y="712" type="line" smooth="yes"/>
      <point x="134" y="712"/>
      <point x="61" y="623"/>
      <point x="61" y="493" type="curve" smooth="yes"/>
      <point x="61" y="367"/>
      <point x="134" y="276"/>
      <point x="253" y="276" type="curve" smooth="yes"/>
      <point x="274" y="276" type="line"/>
      <point x="274" y="47" type="line" smooth="yes"/>
      <point x="274" y="10"/>
      <point x="293" y="-2"/>
      <point x="316" y="-2" type="curve" smooth="yes"/>
      <point x="323" y="-2"/>
      <point x="330" y="-1"/>
      <point x="337" y="0" type="curve"/>
      <point x="337" y="615" type="line" smooth="yes"/>
      <point x="337" y="639"/>
      <point x="344" y="650"/>
      <point x="372" y="650" type="curve" smooth="yes"/>
      <point x="428" y="650" type="line"/>
      <point x="426" y="637"/>
      <point x="425" y="622"/>
      <point x="425" y="600" type="curve" smooth="yes"/>
      <point x="425" y="47" type="line" smooth="yes"/>
      <point x="425" y="10"/>
      <point x="444" y="-2"/>
      <point x="468" y="-2" type="curve" smooth="yes"/>
      <point x="474" y="-2"/>
      <point x="482" y="-1"/>
      <point x="488" y="0" type="curve"/>
      <point x="488" y="627" type="line" smooth="yes"/>
      <point x="488" y="657"/>
      <point x="489" y="685"/>
    </contour>
  </outline>
</glyph>
<glyph name="cedilla" format="1">
  <advance width="309"/>
  <unicode hex="00B8"/>
  <outline>
    <contour>
      <point x="164" y="0" type="move" name="_bottom"/>
    </contour>
    <contour>
      <point x="148" y="-194" type="curve" smooth="yes"/>
      <point x="206" y="-194"/>
      <point x="232" y="-174"/>
      <point x="232" y="-144" type="curve" smooth="yes"/>
      <point x="232" y="-121"/>
      <point x="212" y="-106"/>
      <point x="169" y="-106" type="curve" smooth="yes"/>
      <point x="150" y="-106" type="line" smooth="yes"/>
      <point x="128" y="-106"/>
      <point x="124" y="-96"/>
      <point x="130" y="-68" type="curve" smooth="yes"/>
      <point x="152" y="33" type="line"/>
      <point x="199" y="33" type="line"/>
      <point x="173" y="-86" type="line"/>
      <point x="142" y="-77" type="line"/>
      <point x="160" y="-72"/>
      <point x="172" y="-69"/>
      <point x="193" y="-69" type="curve" smooth="yes"/>
      <point x="247" y="-69"/>
      <point x="298" y="-96"/>
      <point x="298" y="-144" type="curve" smooth="yes"/>
      <point x="298" y="-197"/>
      <point x="244" y="-243"/>
      <point x="160" y="-243" type="curve" smooth="yes"/>
      <point x="73" y="-243"/>
      <point x="17" y="-201"/>
      <point x="17" y="-167" type="curve" smooth="yes"/>
      <point x="17" y="-160"/>
      <point x="20" y="-152"/>
      <point x="27" y="-145" type="curve"/>
      <point x="59" y="-176"/>
      <point x="95" y="-194"/>
    </contour>
  </outline>
</glyph>
<glyph name="guillemotright" format="1">
  <advance width="620"/>
  <unicode hex="00BB"/>
  <outline>
    <contour>
      <point x="311" y="404" type="curve" smooth="yes"/>
      <point x="311" y="329"/>
      <point x="152" y="154"/>
      <point x="116" y="154" type="curve" smooth="yes"/>
      <point x="102" y="154"/>
      <point x="91" y="168"/>
      <point x="89" y="175" type="curve"/>
      <point x="172" y="262"/>
      <point x="229" y="349"/>
      <point x="229" y="404" type="curve" smooth="yes"/>
      <point x="229" y="461"/>
      <point x="172" y="546"/>
      <point x="89" y="635" type="curve"/>
      <point x="91" y="642"/>
      <point x="102" y="656"/>
      <point x="116" y="656" type="curve" smooth="yes"/>
      <point x="151" y="656"/>
      <point x="311" y="481"/>
    </contour>
    <contour>
      <point x="531" y="404" type="curve" smooth="yes"/>
      <point x="531" y="329"/>
      <point x="372" y="154"/>
      <point x="336" y="154" type="curve" smooth="yes"/>
      <point x="322" y="154"/>
      <point x="311" y="168"/>
      <point x="309" y="175" type="curve"/>
      <point x="392" y="262"/>
      <point x="449" y="349"/>
      <point x="449" y="404" type="curve" smooth="yes"/>
      <point x="449" y="461"/>
      <point x="392" y="546"/>
      <point x="309" y="635" type="curve"/>
      <point x="311" y="642"/>
      <point x="322" y="656"/>
      <point x="336" y="656" type="curve" smooth="yes"/>
      <point x="371" y="656"/>
      <point x="531" y="481"/>
    </contour>
  </outline>
</glyph>
<glyph name="onequarter" format="1">
  <advance width="656"/>
  <unicode hex="00BC"/>
  <outline>
    <contour>
      <point x="565" y="398" type="curve" smooth="yes"/>
      <point x="565" y="31" type="line" smooth="yes"/>
      <point x="565" y="20"/>
      <point x="571" y="16"/>
      <point x="582" y="12" type="curve"/>
      <point x="574" y="2"/>
      <point x="563" y="-5"/>
      <point x="551" y="-5" type="curve" smooth="yes"/>
      <point x="530" y="-5"/>
      <point x="520" y="7"/>
      <point x="520" y="29" type="curve" smooth="yes"/>
      <point x="520" y="352" type="line" smooth="yes"/>
      <point x="520" y="359"/>
      <point x="517" y="362"/>
      <point x="513" y="362" type="curve" smooth="yes"/>
      <point x="488" y="362"/>
      <point x="371" y="203"/>
      <point x="371" y="145" type="curve" smooth="yes"/>
      <point x="371" y="135"/>
      <point x="375" y="131"/>
      <point x="387" y="131" type="curve" smooth="yes"/>
      <point x="580" y="131" type="line" smooth="yes"/>
      <point x="591" y="131"/>
      <point x="611" y="133"/>
      <point x="621" y="142" type="curve"/>
      <point x="626" y="137"/>
      <point x="630" y="129"/>
      <point x="630" y="123" type="curve" smooth="yes"/>
      <point x="630" y="108"/>
      <point x="614" y="96"/>
      <point x="589" y="96" type="curve" smooth="yes"/>
      <point x="382" y="96" type="line" smooth="yes"/>
      <point x="346" y="96"/>
      <point x="326" y="111"/>
      <point x="326" y="136" type="curve" smooth="yes"/>
      <point x="326" y="225"/>
      <point x="476" y="425"/>
      <point x="535" y="425" type="curve" smooth="yes"/>
      <point x="548" y="425"/>
      <point x="565" y="419"/>
    </contour>
    <contour>
      <point x="503" y="720" type="curve" smooth="yes"/>
      <point x="510" y="720"/>
      <point x="521" y="718"/>
      <point x="529" y="704" type="curve"/>
      <point x="523" y="700"/>
      <point x="517" y="688"/>
      <point x="511" y="678" type="curve" smooth="yes"/>
      <point x="138" y="19" type="line" smooth="yes"/>
      <point x="129" y="3"/>
      <point x="121" y="-8"/>
      <point x="107" y="-8" type="curve" smooth="yes"/>
      <point x="100" y="-8"/>
      <point x="89" y="-7"/>
      <point x="80" y="7" type="curve"/>
      <point x="85" y="11"/>
      <point x="92" y="24"/>
      <point x="98" y="34" type="curve" smooth="yes"/>
      <point x="471" y="694" type="line" smooth="yes"/>
      <point x="476" y="701"/>
      <point x="488" y="720"/>
    </contour>
    <contour>
      <point x="160" y="328" type="line"/>
      <point x="160" y="317"/>
      <point x="166" y="314"/>
      <point x="177" y="310" type="curve"/>
      <point x="171" y="299"/>
      <point x="159" y="293"/>
      <point x="148" y="293" type="curve" smooth="yes"/>
      <point x="127" y="293"/>
      <point x="116" y="305"/>
      <point x="116" y="327" type="curve" smooth="yes"/>
      <point x="116" y="662" type="line" smooth="yes"/>
      <point x="116" y="677"/>
      <point x="109" y="685"/>
      <point x="90" y="685" type="curve" smooth="yes"/>
      <point x="72" y="685"/>
      <point x="65" y="679"/>
      <point x="46" y="668" type="curve"/>
      <point x="41" y="670"/>
      <point x="37" y="673"/>
      <point x="37" y="679" type="curve" smooth="yes"/>
      <point x="37" y="693"/>
      <point x="65" y="720"/>
      <point x="107" y="720" type="curve" smooth="yes"/>
      <point x="142" y="720"/>
      <point x="160" y="700"/>
      <point x="160" y="669" type="curve" smooth="yes"/>
    </contour>
  </outline>
</glyph>
<glyph name="onehalf" format="1">
  <advance width="715"/>
  <unicode hex="00BD"/>
  <outline>
    <contour>
      <point x="481" y="720" type="curve" smooth="yes"/>
      <point x="467" y="720"/>
      <point x="455" y="701"/>
      <point x="450" y="694" type="curve" smooth="yes"/>
      <point x="77" y="34" type="line" smooth="yes"/>
      <point x="71" y="24"/>
      <point x="64" y="11"/>
      <point x="59" y="7" type="curve"/>
      <point x="69" y="-7"/>
      <point x="78" y="-8"/>
      <point x="86" y="-8" type="curve" smooth="yes"/>
      <point x="100" y="-8"/>
      <point x="107" y="3"/>
      <point x="117" y="19" type="curve" smooth="yes"/>
      <point x="490" y="678" type="line" smooth="yes"/>
      <point x="496" y="688"/>
      <point x="502" y="700"/>
      <point x="508" y="704" type="curve"/>
      <point x="499" y="718"/>
      <point x="489" y="720"/>
    </contour>
    <contour>
      <point x="646" y="301" type="curve" smooth="yes"/>
      <point x="646" y="372"/>
      <point x="586" y="419"/>
      <point x="510" y="419" type="curve" smooth="yes"/>
      <point x="426" y="419"/>
      <point x="374" y="370"/>
      <point x="374" y="323" type="curve" smooth="yes"/>
      <point x="374" y="297"/>
      <point x="391" y="277"/>
      <point x="418" y="277" type="curve" smooth="yes"/>
      <point x="428" y="277"/>
      <point x="439" y="282"/>
      <point x="447" y="288" type="curve"/>
      <point x="435" y="298"/>
      <point x="430" y="306"/>
      <point x="430" y="322" type="curve" smooth="yes"/>
      <point x="430" y="360"/>
      <point x="463" y="385"/>
      <point x="511" y="385" type="curve" smooth="yes"/>
      <point x="557" y="385"/>
      <point x="590" y="356"/>
      <point x="590" y="305" type="curve" smooth="yes"/>
      <point x="590" y="237"/>
      <point x="538" y="167"/>
      <point x="376" y="31" type="curve"/>
      <point x="376" y="16"/>
      <point x="392" y="0"/>
      <point x="417" y="0" type="curve" smooth="yes"/>
      <point x="591" y="0" type="line" smooth="yes"/>
      <point x="623" y="0"/>
      <point x="642" y="-4"/>
      <point x="657" y="-8" type="curve"/>
      <point x="663" y="-6"/>
      <point x="671" y="3"/>
      <point x="671" y="11" type="curve" smooth="yes"/>
      <point x="671" y="22"/>
      <point x="661" y="43"/>
      <point x="588" y="43" type="curve" smooth="yes"/>
      <point x="522" y="43"/>
      <point x="474" y="40"/>
      <point x="392" y="33" type="curve"/>
      <point x="411" y="16" type="line"/>
      <point x="559" y="140"/>
      <point x="646" y="210"/>
    </contour>
    <contour>
      <point x="153" y="328" type="curve"/>
      <point x="153" y="669" type="line" smooth="yes"/>
      <point x="153" y="700"/>
      <point x="134" y="720"/>
      <point x="99" y="720" type="curve" smooth="yes"/>
      <point x="58" y="720"/>
      <point x="29" y="693"/>
      <point x="29" y="679" type="curve" smooth="yes"/>
      <point x="29" y="673"/>
      <point x="32" y="670"/>
      <point x="37" y="668" type="curve"/>
      <point x="56" y="679"/>
      <point x="65" y="685"/>
      <point x="82" y="685" type="curve" smooth="yes"/>
      <point x="101" y="685"/>
      <point x="108" y="677"/>
      <point x="108" y="662" type="curve" smooth="yes"/>
      <point x="108" y="327" type="line" smooth="yes"/>
      <point x="108" y="305"/>
      <point x="119" y="293"/>
      <point x="140" y="293" type="curve" smooth="yes"/>
      <point x="152" y="293"/>
      <point x="163" y="299"/>
      <point x="169" y="310" type="curve"/>
      <point x="159" y="314"/>
      <point x="153" y="317"/>
    </contour>
  </outline>
</glyph>
<glyph name="questiondown" format="1">
  <advance width="478"/>
  <unicode hex="00BF"/>
  <outline>
    <contour>
      <point x="254" y="211" type="curve" smooth="yes"/>
      <point x="254" y="94"/>
      <point x="71" y="75"/>
      <point x="71" y="-95" type="curve" smooth="yes"/>
      <point x="71" y="-171"/>
      <point x="134" y="-243"/>
      <point x="241" y="-243" type="curve" smooth="yes"/>
      <point x="340" y="-243"/>
      <point x="409" y="-179"/>
      <point x="409" y="-100" type="curve" smooth="yes"/>
      <point x="409" y="-36"/>
      <point x="373" y="4"/>
      <point x="323" y="4" type="curve" smooth="yes"/>
      <point x="307" y="4"/>
      <point x="284" y="-2"/>
      <point x="281" y="-16" type="curve"/>
      <point x="327" y="-35"/>
      <point x="349" y="-72"/>
      <point x="349" y="-112" type="curve" smooth="yes"/>
      <point x="349" y="-173"/>
      <point x="311" y="-205"/>
      <point x="251" y="-205" type="curve" smooth="yes"/>
      <point x="177" y="-205"/>
      <point x="139" y="-141"/>
      <point x="139" y="-87" type="curve" smooth="yes"/>
      <point x="139" y="54"/>
      <point x="324" y="92"/>
      <point x="324" y="231" type="curve" smooth="yes"/>
      <point x="324" y="277"/>
      <point x="287" y="310"/>
      <point x="247" y="310" type="curve" smooth="yes"/>
      <point x="224" y="310"/>
      <point x="204" y="294"/>
      <point x="203" y="268" type="curve"/>
      <point x="236" y="267"/>
      <point x="254" y="243"/>
    </contour>
    <contour>
      <point x="187" y="458" type="curve" smooth="yes"/>
      <point x="187" y="432"/>
      <point x="205" y="413"/>
      <point x="231" y="413" type="curve" smooth="yes"/>
      <point x="262" y="413"/>
      <point x="293" y="443"/>
      <point x="293" y="475" type="curve" smooth="yes"/>
      <point x="293" y="500"/>
      <point x="275" y="520"/>
      <point x="248" y="520" type="curve" smooth="yes"/>
      <point x="218" y="520"/>
      <point x="187" y="491"/>
    </contour>
  </outline>
</glyph>
<glyph name="AE" format="1">
  <advance width="927"/>
  <unicode hex="00C6"/>
  <outline>
    <contour>
      <point x="579" y="712" type="move" name="top"/>
    </contour>
    <contour>
      <point x="830" y="12" type="move" name="ogonek"/>
    </contour>
    <contour>
      <point x="582" y="0" type="move" name="bottom"/>
    </contour>
    <contour>
      <point x="708" y="391" type="line"/>
      <point x="769" y="391"/>
      <point x="797" y="385"/>
      <point x="797" y="359" type="curve" smooth="yes"/>
      <point x="797" y="341"/>
      <point x="787" y="330"/>
      <point x="774" y="324" type="curve"/>
      <point x="759" y="335"/>
      <point x="736" y="339"/>
      <point x="702" y="339" type="curve" smooth="yes"/>
      <point x="458" y="339" type="line"/>
      <point x="458" y="391" type="line"/>
    </contour>
    <contour>
      <point x="778" y="712" type="line"/>
      <point x="839" y="712"/>
      <point x="867" y="695"/>
      <point x="867" y="668" type="curve" smooth="yes"/>
      <point x="867" y="650"/>
      <point x="855" y="637"/>
      <point x="837" y="633" type="curve"/>
      <point x="822" y="653"/>
      <point x="801" y="660"/>
      <point x="765" y="660" type="curve" smooth="yes"/>
      <point x="477" y="660" type="line"/>
      <point x="477" y="120" type="line" smooth="yes"/>
      <point x="477" y="70"/>
      <point x="497" y="51"/>
      <point x="552" y="51" type="curve" smooth="yes"/>
      <point x="765" y="51" type="line" smooth="yes"/>
      <point x="801" y="51"/>
      <point x="823" y="64"/>
      <point x="837" y="93" type="curve"/>
      <point x="855" y="89"/>
      <point x="867" y="72"/>
      <point x="867" y="58" type="curve" smooth="yes"/>
      <point x="867" y="24"/>
      <point x="839" y="0"/>
      <point x="761" y="0" type="curve" smooth="yes"/>
      <point x="554" y="0" type="line" smooth="yes"/>
      <point x="460" y="0"/>
      <point x="413" y="32"/>
      <point x="413" y="123" type="curve" smooth="yes"/>
      <point x="413" y="697" type="line"/>
      <point x="439" y="698" type="line"/>
      <point x="111" y="39" type="line" smooth="yes"/>
      <point x="95" y="6"/>
      <point x="85" y="-5"/>
      <point x="65" y="-5" type="curve" smooth="yes"/>
      <point x="45" y="-5"/>
      <point x="32" y="6"/>
      <point x="21" y="24" type="curve"/>
      <point x="38" y="27"/>
      <point x="54" y="43"/>
      <point x="63" y="63" type="curve" smooth="yes"/>
      <point x="369" y="671" type="line" smooth="yes"/>
      <point x="381" y="696"/>
      <point x="407" y="712"/>
      <point x="432" y="712" type="curve" smooth="yes"/>
    </contour>
    <contour>
      <point x="448" y="223" type="line"/>
      <point x="448" y="171" type="line"/>
      <point x="145" y="171" type="line"/>
      <point x="167" y="223" type="line"/>
    </contour>
  </outline>
</glyph>
<glyph name="Eth" format="1">
  <advance width="729"/>
  <unicode hex="00D0"/>
  <outline>
    <contour>
      <point x="379" y="371" type="curve" smooth="yes"/>
      <point x="379" y="341"/>
      <point x="347" y="329"/>
      <point x="309" y="329" type="curve" smooth="yes"/>
      <point x="31" y="329" type="line"/>
      <point x="29" y="332"/>
      <point x="27" y="338"/>
      <point x="27" y="343" type="curve" smooth="yes"/>
      <point x="27" y="375"/>
      <point x="59" y="387"/>
      <point x="97" y="387" type="curve" smooth="yes"/>
      <point x="376" y="387" type="line"/>
      <point x="377" y="383"/>
      <point x="379" y="377"/>
    </contour>
    <component base="D"/>
  </outline>
</glyph>
<glyph name="multiply" format="1">
  <advance width="610"/>
  <unicode hex="00D7"/>
  <outline>
    <contour>
      <point x="345" y="416" type="line"/>
      <point x="513" y="609" type="line"/>
      <point x="507" y="617"/>
      <point x="498" y="621"/>
      <point x="489" y="621" type="curve" smooth="yes"/>
      <point x="470" y="621"/>
      <point x="457" y="606"/>
      <point x="440" y="587" type="curve" smooth="yes"/>
      <point x="316" y="446" type="line"/>
      <point x="209" y="564" type="line" smooth="yes"/>
      <point x="173" y="601"/>
      <point x="161" y="621"/>
      <point x="130" y="621" type="curve" smooth="yes"/>
      <point x="113" y="621"/>
      <point x="95" y="612"/>
      <point x="84" y="595" type="curve"/>
      <point x="271" y="393" type="line"/>
      <point x="100" y="195" type="line"/>
      <point x="106" y="185"/>
      <point x="113" y="183"/>
      <point x="122" y="183" type="curve" smooth="yes"/>
      <point x="143" y="183"/>
      <point x="159" y="200"/>
      <point x="172" y="215" type="curve" smooth="yes"/>
      <point x="300" y="363" type="line"/>
      <point x="407" y="249" type="line" smooth="yes"/>
      <point x="438" y="215"/>
      <point x="459" y="192"/>
      <point x="489" y="192" type="curve" smooth="yes"/>
      <point x="514" y="192"/>
      <point x="521" y="206"/>
      <point x="526" y="217" type="curve"/>
    </contour>
  </outline>
</glyph>
<glyph name="Oslash" format="1">
  <advance width="757"/>
  <unicode hex="00D8"/>
  <outline>
    <contour>
      <point x="669" y="720" type="curve" smooth="yes"/>
      <point x="681" y="720"/>
      <point x="695" y="712"/>
      <point x="699" y="694" type="curve"/>
      <point x="676" y="683"/>
      <point x="653" y="660"/>
      <point x="640" y="644" type="curve" smooth="yes"/>
      <point x="149" y="24" type="line" smooth="yes"/>
      <point x="128" y="0"/>
      <point x="111" y="-8"/>
      <point x="93" y="-8" type="curve" smooth="yes"/>
      <point x="79" y="-8"/>
      <point x="66" y="0"/>
      <point x="62" y="19" type="curve"/>
      <point x="84" y="30"/>
      <point x="108" y="53"/>
      <point x="120" y="68" type="curve" smooth="yes"/>
      <point x="612" y="688" type="line" smooth="yes"/>
      <point x="632" y="712"/>
      <point x="650" y="720"/>
    </contour>
    <component base="O"/>
  </outline>
</glyph>
<glyph name="Thorn" format="1">
  <advance width="614"/>
  <unicode hex="00DE"/>
  <outline>
    <contour>
      <point x="156" y="51" type="line"/>
      <point x="156" y="33"/>
      <point x="164" y="26"/>
      <point x="179" y="21" type="curve"/>
      <point x="170" y="5"/>
      <point x="154" y="-8"/>
      <point x="136" y="-8" type="curve" smooth="yes"/>
      <point x="107" y="-8"/>
      <point x="92" y="12"/>
      <point x="92" y="49" type="curve" smooth="yes"/>
      <point x="92" y="660" type="line" smooth="yes"/>
      <point x="92" y="679"/>
      <point x="84" y="686"/>
      <point x="69" y="691" type="curve"/>
      <point x="77" y="707"/>
      <point x="93" y="720"/>
      <point x="111" y="720" type="curve" smooth="yes"/>
      <point x="140" y="720"/>
      <point x="156" y="700"/>
      <point x="156" y="663" type="curve" smooth="yes"/>
    </contour>
    <contour>
      <point x="563" y="376" type="curve" smooth="yes"/>
      <point x="563" y="238"/>
      <point x="448" y="155"/>
      <point x="317" y="155" type="curve" smooth="yes"/>
      <point x="249" y="155"/>
      <point x="201" y="168"/>
      <point x="138" y="195" type="curve"/>
      <point x="138" y="243" type="line"/>
      <point x="202" y="220"/>
      <point x="252" y="210"/>
      <point x="306" y="210" type="curve" smooth="yes"/>
      <point x="424" y="210"/>
      <point x="492" y="278"/>
      <point x="492" y="376" type="curve" smooth="yes"/>
      <point x="492" y="474"/>
      <point x="424" y="542"/>
      <point x="306" y="542" type="curve" smooth="yes"/>
      <point x="252" y="542"/>
      <point x="202" y="530"/>
      <point x="138" y="509" type="curve"/>
      <point x="138" y="557" type="line"/>
      <point x="201" y="581"/>
      <point x="249" y="597"/>
      <point x="317" y="597" type="curve" smooth="yes"/>
      <point x="448" y="597"/>
      <point x="563" y="514"/>
    </contour>
  </outline>
</glyph>
<glyph name="germandbls" format="1">
  <advance width="539"/>
  <unicode hex="00DF"/>
  <outline>
    <contour>
      <point x="401" y="570" type="curve" smooth="yes"/>
      <point x="401" y="488"/>
      <point x="356" y="439"/>
      <point x="275" y="399" type="curve"/>
      <point x="262" y="418" type="line"/>
      <point x="322" y="383" type="line" smooth="yes"/>
      <point x="421" y="324"/>
      <point x="483" y="266"/>
      <point x="483" y="166" type="curve" smooth="yes"/>
      <point x="483" y="58"/>
      <point x="406" y="-8"/>
      <point x="318" y="-8" type="curve" smooth="yes"/>
      <point x="255" y="-8"/>
      <point x="228" y="17"/>
      <point x="228" y="43" type="curve" smooth="yes"/>
      <point x="228" y="48"/>
      <point x="229" y="51"/>
      <point x="232" y="56" type="curve"/>
      <point x="250" y="44"/>
      <point x="273" y="39"/>
      <point x="294" y="39" type="curve" smooth="yes"/>
      <point x="368" y="39"/>
      <point x="416" y="94"/>
      <point x="416" y="163" type="curve" smooth="yes"/>
      <point x="416" y="232"/>
      <point x="382" y="279"/>
      <point x="301" y="335" type="curve" smooth="yes"/>
      <point x="256" y="366"/>
      <point x="224" y="385"/>
      <point x="224" y="396" type="curve"/>
      <point x="224" y="412"/>
      <point x="332" y="458"/>
      <point x="332" y="568" type="curve" smooth="yes"/>
      <point x="332" y="642"/>
      <point x="283" y="687"/>
      <point x="232" y="687" type="curve" smooth="yes"/>
      <point x="174" y="687"/>
      <point x="134" y="647"/>
      <point x="134" y="543" type="curve" smooth="yes"/>
      <point x="134" y="51" type="line" smooth="yes"/>
      <point x="134" y="33"/>
      <point x="142" y="26"/>
      <point x="157" y="21" type="curve"/>
      <point x="148" y="5"/>
      <point x="132" y="-8"/>
      <point x="115" y="-8" type="curve" smooth="yes"/>
      <point x="85" y="-8"/>
      <point x="70" y="12"/>
      <point x="70" y="49" type="curve" smooth="yes"/>
      <point x="70" y="543" type="line" smooth="yes"/>
      <point x="70" y="662"/>
      <point x="141" y="722"/>
      <point x="232" y="722" type="curve" smooth="yes"/>
      <point x="330" y="722"/>
      <point x="401" y="657"/>
    </contour>
  </outline>
</glyph>
<glyph name="ae" format="1">
  <advance width="782"/>
  <unicode hex="00E6"/>
  <outline>
    <contour>
      <point x="789" y="503" type="move" name="top"/>
    </contour>
    <contour>
      <point x="943" y="12" type="move" name="ogonek"/>
    </contour>
    <contour>
      <point x="752" y="0" type="move" name="bottom"/>
    </contour>
    <contour>
      <point x="362" y="249" type="line"/>
      <point x="193" y="243"/>
      <point x="126" y="188"/>
      <point x="126" y="125" type="curve" smooth="yes"/>
      <point x="126" y="69"/>
      <point x="162" y="48"/>
      <point x="213" y="48" type="curve" smooth="yes"/>
      <point x="273" y="48"/>
      <point x="327" y="80"/>
      <point x="373" y="150" type="curve"/>
      <point x="400" y="125" type="line"/>
      <point x="349" y="44"/>
      <point x="288" y="-8"/>
      <point x="204" y="-8" type="curve" smooth="yes"/>
      <point x="119" y="-8"/>
      <point x="58" y="37"/>
      <point x="58" y="119" type="curve" smooth="yes"/>
      <point x="58" y="214"/>
      <point x="148" y="283"/>
      <point x="362" y="288" type="curve"/>
    </contour>
    <contour>
      <point x="418" y="381" type="curve"/>
      <point x="389" y="381" type="line"/>
      <point x="434" y="463"/>
      <point x="510" y="512"/>
      <point x="586" y="512" type="curve" smooth="yes"/>
      <point x="686" y="512"/>
      <point x="745" y="429"/>
      <point x="745" y="349" type="curve" smooth="yes"/>
      <point x="745" y="291"/>
      <point x="715" y="261"/>
      <point x="638" y="259" type="curve" smooth="yes"/>
      <point x="402" y="252" type="line"/>
      <point x="402" y="286" type="line"/>
      <point x="634" y="302" type="line" smooth="yes"/>
      <point x="662" y="304"/>
      <point x="677" y="316"/>
      <point x="677" y="351" type="curve" smooth="yes"/>
      <point x="677" y="412"/>
      <point x="637" y="461"/>
      <point x="576" y="461" type="curve" smooth="yes"/>
      <point x="492" y="461"/>
      <point x="425" y="383"/>
      <point x="425" y="250" type="curve" smooth="yes"/>
      <point x="423" y="107"/>
      <point x="492" y="47"/>
      <point x="594" y="47" type="curve" smooth="yes"/>
      <point x="646" y="47"/>
      <point x="695" y="67"/>
      <point x="728" y="97" type="curve"/>
      <point x="736" y="92"/>
      <point x="740" y="85"/>
      <point x="740" y="74" type="curve" smooth="yes"/>
      <point x="740" y="38"/>
      <point x="674" y="-8"/>
      <point x="587" y="-8" type="curve" smooth="yes"/>
      <point x="458" y="-8"/>
      <point x="355" y="79"/>
      <point x="355" y="234" type="curve" smooth="yes"/>
      <point x="355" y="339" type="line" smooth="yes"/>
      <point x="355" y="430"/>
      <point x="327" y="474"/>
      <point x="251" y="474" type="curve" smooth="yes"/>
      <point x="177" y="474"/>
      <point x="147" y="438"/>
      <point x="147" y="403" type="curve" smooth="yes"/>
      <point x="147" y="390"/>
      <point x="150" y="378"/>
      <point x="160" y="368" type="curve"/>
      <point x="149" y="361"/>
      <point x="134" y="357"/>
      <point x="125" y="357" type="curve" smooth="yes"/>
      <point x="100" y="357"/>
      <point x="78" y="372"/>
      <point x="78" y="403" type="curve" smooth="yes"/>
      <point x="78" y="462"/>
      <point x="153" y="512"/>
      <point x="251" y="512" type="curve" smooth="yes"/>
      <point x="348" y="512"/>
      <point x="411" y="462"/>
    </contour>
  </outline>
</glyph>
<glyph name="eth" format="1">
  <advance width="565"/>
  <unicode hex="00F0"/>
  <outline>
    <contour>
      <point x="130" y="252" type="curve" smooth="yes"/>
      <point x="119" y="402"/>
      <point x="179" y="461"/>
      <point x="269" y="461" type="curve" smooth="yes"/>
      <point x="360" y="461"/>
      <point x="425" y="402"/>
      <point x="436" y="252" type="curve" smooth="yes"/>
      <point x="447" y="103"/>
      <point x="389" y="42"/>
      <point x="298" y="42" type="curve" smooth="yes"/>
      <point x="207" y="42"/>
      <point x="141" y="103"/>
    </contour>
    <contour>
      <point x="503" y="256" type="curve" smooth="yes"/>
      <point x="503" y="493"/>
      <point x="304" y="754"/>
      <point x="217" y="754" type="curve" smooth="yes"/>
      <point x="208" y="754"/>
      <point x="196" y="748"/>
      <point x="191" y="739" type="curve"/>
      <point x="295" y="652"/>
      <point x="381" y="523"/>
      <point x="427" y="395" type="curve"/>
      <point x="456" y="410" type="line"/>
      <point x="419" y="471"/>
      <point x="360" y="512"/>
      <point x="282" y="512" type="curve" smooth="yes"/>
      <point x="165" y="512"/>
      <point x="61" y="427"/>
      <point x="61" y="252" type="curve" smooth="yes"/>
      <point x="61" y="78"/>
      <point x="165" y="-8"/>
      <point x="282" y="-8" type="curve" smooth="yes"/>
      <point x="394" y="-8"/>
      <point x="503" y="70"/>
    </contour>
    <contour>
      <point x="483" y="690" type="curve"/>
      <point x="241" y="626" type="line" smooth="yes"/>
      <point x="205" y="616"/>
      <point x="187" y="599"/>
      <point x="186" y="582" type="curve" smooth="yes"/>
      <point x="186" y="576"/>
      <point x="187" y="569"/>
      <point x="193" y="564" type="curve"/>
      <point x="426" y="626" type="line" smooth="yes"/>
      <point x="471" y="638"/>
      <point x="488" y="657"/>
      <point x="490" y="673" type="curve" smooth="yes"/>
      <point x="490" y="679"/>
      <point x="489" y="684"/>
    </contour>
  </outline>
</glyph>
<glyph name="divide" format="1">
  <advance width="557"/>
  <unicode hex="00F7"/>
  <outline>
    <contour>
      <point x="91" y="428" type="line"/>
      <point x="75" y="428"/>
      <point x="34" y="428"/>
      <point x="34" y="390" type="curve" smooth="yes"/>
      <point x="34" y="385"/>
      <point x="36" y="379"/>
      <point x="38" y="376" type="curve"/>
      <point x="467" y="376" type="line" smooth="yes"/>
      <point x="483" y="376"/>
      <point x="524" y="376"/>
      <point x="524" y="416" type="curve" smooth="yes"/>
      <point x="524" y="421"/>
      <point x="523" y="426"/>
      <point x="521" y="428" type="curve"/>
    </contour>
    <contour>
      <point x="337" y="251" type="curve" smooth="yes"/>
      <point x="337" y="278"/>
      <point x="318" y="299"/>
      <point x="290" y="299" type="curve" smooth="yes"/>
      <point x="257" y="299"/>
      <point x="224" y="267"/>
      <point x="224" y="233" type="curve" smooth="yes"/>
      <point x="224" y="206"/>
      <point x="244" y="186"/>
      <point x="272" y="186" type="curve" smooth="yes"/>
      <point x="306" y="186"/>
      <point x="337" y="217"/>
    </contour>
    <contour>
      <point x="337" y="575" type="curve" smooth="yes"/>
      <point x="337" y="602"/>
      <point x="318" y="622"/>
      <point x="290" y="622" type="curve" smooth="yes"/>
      <point x="257" y="622"/>
      <point x="224" y="591"/>
      <point x="224" y="557" type="curve" smooth="yes"/>
      <point x="224" y="530"/>
      <point x="244" y="509"/>
      <point x="272" y="509" type="curve" smooth="yes"/>
      <point x="306" y="509"/>
      <point x="337" y="541"/>
    </contour>
  </outline>
</glyph>
<glyph name="thorn" format="1">
  <advance width="578"/>
  <unicode hex="00FE"/>
  <outline>
    <contour>
      <point x="159" y="698" type="curve" smooth="yes"/>
      <point x="159" y="-183" type="line" smooth="yes"/>
      <point x="159" y="-201"/>
      <point x="167" y="-209"/>
      <point x="182" y="-214" type="curve"/>
      <point x="173" y="-230"/>
      <point x="158" y="-243"/>
      <point x="140" y="-243" type="curve" smooth="yes"/>
      <point x="110" y="-243"/>
      <point x="96" y="-223"/>
      <point x="96" y="-185" type="curve" smooth="yes"/>
      <point x="96" y="694" type="line" smooth="yes"/>
      <point x="96" y="714"/>
      <point x="87" y="720"/>
      <point x="73" y="726" type="curve"/>
      <point x="80" y="742"/>
      <point x="96" y="754"/>
      <point x="114" y="754" type="curve" smooth="yes"/>
      <point x="144" y="754"/>
      <point x="159" y="735"/>
    </contour>
    <contour>
      <point x="524" y="252" type="curve" smooth="yes"/>
      <point x="524" y="77"/>
      <point x="411" y="-7"/>
      <point x="300" y="-7" type="curve" smooth="yes"/>
      <point x="229" y="-7"/>
      <point x="183" y="21"/>
      <point x="145" y="76" type="curve"/>
      <point x="154" y="138" type="line"/>
      <point x="192" y="72"/>
      <point x="237" y="53"/>
      <point x="299" y="53" type="curve" smooth="yes"/>
      <point x="384" y="53"/>
      <point x="457" y="125"/>
      <point x="457" y="252" type="curve" smooth="yes"/>
      <point x="457" y="380"/>
      <point x="384" y="453"/>
      <point x="299" y="453" type="curve" smooth="yes"/>
      <point x="237" y="453"/>
      <point x="189" y="429"/>
      <point x="154" y="357" type="curve"/>
      <point x="145" y="419" type="line"/>
      <point x="180" y="476"/>
      <point x="224" y="512"/>
      <point x="304" y="512" type="curve" smooth="yes"/>
      <point x="411" y="512"/>
      <point x="524" y="429"/>
    </contour>
  </outline>
</glyph>
<glyph name="dotlessi" format="1">
  <advance width="254"/>
  <unicode hex="0131"/>
  <outline>
    <contour>
      <point x="128" y="503" type="move" name="top"/>
    </contour>
    <contour>
      <point x="229" y="12" type="move" name="ogonek"/>
    </contour>
    <contour>
      <point x="159" y="51" type="curve"/>
      <point x="159" y="455" type="line" smooth="yes"/>
      <point x="159" y="492"/>
      <point x="144" y="512"/>
      <point x="114" y="512" type="curve" smooth="yes"/>
      <point x="96" y="512"/>
      <point x="80" y="498"/>
      <point x="73" y="483" type="curve"/>
      <point x="87" y="478"/>
      <point x="96" y="470"/>
      <point x="96" y="452" type="curve" smooth="yes"/>
      <point x="96" y="49" type="line" smooth="yes"/>
      <point x="96" y="12"/>
      <point x="110" y="-8"/>
      <point x="140" y="-8" type="curve" smooth="yes"/>
      <point x="158" y="-8"/>
      <point x="173" y="5"/>
      <point x="182" y="21" type="curve"/>
      <point x="167" y="26"/>
      <point x="159" y="33"/>
    </contour>
  </outline>
</glyph>
<glyph name="Lslash" format="1">
  <advance width="582"/>
  <unicode hex="0141"/>
  <outline>
    <contour>
      <point x="295" y="486" type="curve" smooth="yes"/>
      <point x="308" y="458"/>
      <point x="284" y="434"/>
      <point x="250" y="418" type="curve" smooth="yes"/>
      <point x="32" y="310" type="line"/>
      <point x="30" y="312"/>
      <point x="26" y="317"/>
      <point x="24" y="322" type="curve" smooth="yes"/>
      <point x="9" y="350"/>
      <point x="33" y="371"/>
      <point x="67" y="388" type="curve" smooth="yes"/>
      <point x="284" y="497" type="line"/>
      <point x="288" y="495"/>
      <point x="292" y="491"/>
    </contour>
    <component base="L" xOffset="11"/>
  </outline>
</glyph>
<glyph name="lslash" format="1">
  <advance width="316"/>
  <unicode hex="0142"/>
  <outline>
    <contour>
      <point x="294" y="487" type="curve" smooth="yes"/>
      <point x="307" y="460"/>
      <point x="283" y="436"/>
      <point x="249" y="419" type="curve" smooth="yes"/>
      <point x="31" y="312" type="line"/>
      <point x="29" y="313"/>
      <point x="25" y="318"/>
      <point x="23" y="323" type="curve" smooth="yes"/>
      <point x="8" y="352"/>
      <point x="31" y="372"/>
      <point x="66" y="390" type="curve" smooth="yes"/>
      <point x="283" y="499" type="line"/>
      <point x="286" y="497"/>
      <point x="291" y="492"/>
    </contour>
    <component base="l" xOffset="28"/>
  </outline>
</glyph>
<glyph name="OE" format="1">
  <advance width="1053"/>
  <unicode hex="0152"/>
  <outline>
    <contour>
      <point x="991" y="12" type="move" name="ogonek"/>
    </contour>
    <contour>
      <point x="137" y="337" type="curve" smooth="yes"/>
      <point x="118" y="541"/>
      <point x="220" y="661"/>
      <point x="388" y="661" type="curve" smooth="yes"/>
      <point x="453" y="661"/>
      <point x="493" y="654"/>
      <point x="540" y="643" type="curve"/>
      <point x="540" y="66" type="line"/>
      <point x="502" y="54"/>
      <point x="455" y="47"/>
      <point x="403" y="47" type="curve" smooth="yes"/>
      <point x="274" y="47"/>
      <point x="154" y="131"/>
    </contour>
    <contour>
      <point x="835" y="391" type="curve"/>
      <point x="584" y="391" type="line"/>
      <point x="584" y="339" type="line"/>
      <point x="828" y="339" type="line" smooth="yes"/>
      <point x="863" y="339"/>
      <point x="885" y="335"/>
      <point x="901" y="324" type="curve"/>
      <point x="914" y="330"/>
      <point x="924" y="341"/>
      <point x="924" y="359" type="curve" smooth="yes"/>
      <point x="924" y="385"/>
      <point x="896" y="391"/>
    </contour>
    <contour>
      <point x="905" y="712" type="curve"/>
      <point x="442" y="712" type="line" smooth="yes"/>
      <point x="201" y="712"/>
      <point x="74" y="582"/>
      <point x="74" y="357" type="curve" smooth="yes"/>
      <point x="74" y="128"/>
      <point x="181" y="0"/>
      <point x="423" y="0" type="curve" smooth="yes"/>
      <point x="887" y="0" type="line" smooth="yes"/>
      <point x="965" y="0"/>
      <point x="993" y="24"/>
      <point x="993" y="58" type="curve" smooth="yes"/>
      <point x="993" y="72"/>
      <point x="981" y="89"/>
      <point x="964" y="93" type="curve"/>
      <point x="950" y="64"/>
      <point x="928" y="51"/>
      <point x="891" y="51" type="curve" smooth="yes"/>
      <point x="678" y="51" type="line" smooth="yes"/>
      <point x="623" y="51"/>
      <point x="604" y="70"/>
      <point x="604" y="118" type="curve" smooth="yes"/>
      <point x="604" y="660" type="line"/>
      <point x="891" y="660" type="line" smooth="yes"/>
      <point x="928" y="660"/>
      <point x="948" y="653"/>
      <point x="964" y="633" type="curve"/>
      <point x="981" y="637"/>
      <point x="993" y="650"/>
      <point x="993" y="668" type="curve" smooth="yes"/>
      <point x="993" y="695"/>
      <point x="965" y="712"/>
    </contour>
  </outline>
</glyph>
<glyph name="circumflex" format="1">
  <advance width="273"/>
  <unicode hex="02C6"/>
  <outline>
    <contour>
      <point x="137" y="503" type="move" name="_top"/>
    </contour>
    <contour>
      <point x="196" y="682" type="line"/>
      <point x="178" y="711"/>
      <point x="163" y="725"/>
      <point x="137" y="725" type="curve"/>
      <point x="110" y="725"/>
      <point x="95" y="711"/>
      <point x="77" y="682" type="curve" smooth="yes"/>
      <point x="12" y="580" type="line"/>
      <point x="13" y="574"/>
      <point x="21" y="568"/>
      <point x="34" y="568" type="curve" smooth="yes"/>
      <point x="41" y="568"/>
      <point x="50" y="572"/>
      <point x="62" y="584" type="curve" smooth="yes"/>
      <point x="161" y="690" type="line"/>
      <point x="112" y="690" type="line"/>
      <point x="211" y="584" type="line" smooth="yes"/>
      <point x="223" y="572"/>
      <point x="232" y="568"/>
      <point x="239" y="568" type="curve" smooth="yes"/>
      <point x="253" y="568"/>
      <point x="260" y="574"/>
      <point x="261" y="580" type="curve"/>
    </contour>
  </outline>
</glyph>
<glyph name="caron" format="1">
  <advance width="273"/>
  <unicode hex="02C7"/>
  <outline>
    <contour>
      <point x="137" y="503" type="move" name="_top"/>
    </contour>
    <contour>
      <point x="62" y="708" type="line"/>
      <point x="50" y="720"/>
      <point x="41" y="725"/>
      <point x="34" y="725" type="curve" smooth="yes"/>
      <point x="21" y="725"/>
      <point x="13" y="720"/>
      <point x="12" y="713" type="curve"/>
      <point x="77" y="610" type="line" smooth="yes"/>
      <point x="95" y="581"/>
      <point x="110" y="568"/>
      <point x="137" y="568" type="curve"/>
      <point x="163" y="568"/>
      <point x="178" y="581"/>
      <point x="196" y="610" type="curve" smooth="yes"/>
      <point x="261" y="713" type="line"/>
      <point x="260" y="720"/>
      <point x="253" y="725"/>
      <point x="239" y="725" type="curve" smooth="yes"/>
      <point x="232" y="725"/>
      <point x="223" y="720"/>
      <point x="211" y="708" type="curve" smooth="yes"/>
      <point x="112" y="602" type="line"/>
      <point x="161" y="602" type="line"/>
    </contour>
  </outline>
</glyph>
<glyph name="dotaccent" format="1">
  <advance width="126"/>
  <unicode hex="02D9"/>
  <outline>
    <contour>
      <point x="63" y="503" type="move" name="_top"/>
    </contour>
    <contour>
      <point x="114" y="659" type="curve" smooth="yes"/>
      <point x="114" y="684"/>
      <point x="97" y="702"/>
      <point x="71" y="702" type="curve" smooth="yes"/>
      <point x="41" y="702"/>
      <point x="12" y="673"/>
      <point x="12" y="642" type="curve" smooth="yes"/>
      <point x="12" y="618"/>
      <point x="29" y="600"/>
      <point x="54" y="600" type="curve" smooth="yes"/>
      <point x="85" y="600"/>
      <point x="114" y="629"/>
    </contour>
  </outline>
</glyph>
<glyph name="ogonek" format="1">
  <advance width="225"/>
  <unicode hex="02DB"/>
  <outline>
    <contour>
      <point x="186" y="0" type="move" name="_ogonek"/>
    </contour>
    <contour>
      <point x="191" y="-4" type="curve" smooth="yes"/>
      <point x="191" y="1"/>
      <point x="185" y="6"/>
      <point x="173" y="10" type="curve"/>
      <point x="81" y="-13"/>
      <point x="10" y="-62"/>
      <point x="10" y="-131" type="curve" smooth="yes"/>
      <point x="10" y="-189"/>
      <point x="59" y="-223"/>
      <point x="127" y="-223" type="curve" smooth="yes"/>
      <point x="181" y="-223"/>
      <point x="215" y="-195"/>
      <point x="215" y="-174" type="curve" smooth="yes"/>
      <point x="215" y="-168"/>
      <point x="213" y="-163"/>
      <point x="210" y="-159" type="curve"/>
      <point x="188" y="-168"/>
      <point x="167" y="-175"/>
      <point x="142" y="-175" type="curve" smooth="yes"/>
      <point x="102" y="-175"/>
      <point x="77" y="-159"/>
      <point x="77" y="-128" type="curve" smooth="yes"/>
      <point x="77" y="-46"/>
      <point x="191" y="-31"/>
    </contour>
  </outline>
</glyph>
<glyph name="pi" format="1">
  <advance width="653"/>
  <unicode hex="03C0"/>
  <outline>
    <contour>
      <point x="194" y="476" type="line"/>
      <point x="194" y="51" type="line" smooth="yes"/>
      <point x="194" y="33"/>
      <point x="203" y="26"/>
      <point x="217" y="21" type="curve"/>
      <point x="209" y="5"/>
      <point x="194" y="-8"/>
      <point x="176" y="-8" type="curve" smooth="yes"/>
      <point x="146" y="-8"/>
      <point x="130" y="12"/>
      <point x="130" y="49" type="curve" smooth="yes"/>
      <point x="130" y="476" type="line"/>
    </contour>
    <contour>
      <point x="514" y="476" type="line"/>
      <point x="514" y="51" type="line" smooth="yes"/>
      <point x="514" y="33"/>
      <point x="523" y="26"/>
      <point x="537" y="21" type="curve"/>
      <point x="529" y="5"/>
      <point x="514" y="-8"/>
      <point x="496" y="-8" type="curve" smooth="yes"/>
      <point x="466" y="-8"/>
      <point x="450" y="12"/>
      <point x="450" y="49" type="curve" smooth="yes"/>
      <point x="450" y="476" type="line"/>
    </contour>
    <contour>
      <point x="568" y="505" type="line"/>
      <point x="604" y="505"/>
      <point x="613" y="488"/>
      <point x="613" y="469" type="curve" smooth="yes"/>
      <point x="613" y="457"/>
      <point x="606" y="444"/>
      <point x="600" y="438" type="curve"/>
      <point x="591" y="444"/>
      <point x="570" y="451"/>
      <point x="547" y="451" type="curve" smooth="yes"/>
      <point x="84" y="451" type="line" smooth="yes"/>
      <point x="50" y="451"/>
      <point x="40" y="467"/>
      <point x="40" y="487" type="curve" smooth="yes"/>
      <point x="40" y="498"/>
      <point x="46" y="511"/>
      <point x="53" y="517" type="curve"/>
      <point x="68" y="509"/>
      <point x="84" y="505"/>
      <point x="106" y="505" type="curve" smooth="yes"/>
    </contour>
  </outline>
</glyph>
<glyph name="dvCandrabindu" format="1">
  <advance width="0"/>
  <unicode hex="0901"/>
  <outline>
    <contour>
      <point x="-170" y="646" type="move" name="_abvm.bindu"/>
    </contour>
    <contour>
      <point x="-156" y="899" type="curve" smooth="yes"/>
      <point x="-131" y="899"/>
      <point x="-114" y="917"/>
      <point x="-114" y="941" type="curve" smooth="yes"/>
      <point x="-114" y="971"/>
      <point x="-143" y="999"/>
      <point x="-172" y="999" type="curve" smooth="yes"/>
      <point x="-197" y="999"/>
      <point x="-214" y="981"/>
      <point x="-214" y="957" type="curve" smooth="yes"/>
      <point x="-214" y="927"/>
      <point x="-186" y="899"/>
    </contour>
    <contour>
      <point x="-324" y="894" type="curve"/>
      <point x="-335" y="890"/>
      <point x="-337" y="882"/>
      <point x="-337" y="876" type="curve" smooth="yes"/>
      <point x="-337" y="843"/>
      <point x="-251" y="768"/>
      <point x="-136" y="768" type="curve" smooth="yes"/>
      <point x="-51" y="768"/>
      <point x="27" y="804"/>
      <point x="27" y="858" type="curve" smooth="yes"/>
      <point x="27" y="877"/>
      <point x="14" y="892"/>
      <point x="-5" y="896" type="curve"/>
      <point x="-34" y="838"/>
      <point x="-100" y="813"/>
      <point x="-161" y="813" type="curve" smooth="yes"/>
      <point x="-225" y="813"/>
      <point x="-283" y="839"/>
    </contour>
  </outline>
</glyph>
<glyph name="dvAA" format="1">
  <advance width="959"/>
  <unicode hex="0906"/>
  <outline>
    <contour>
      <point x="539" y="353" type="line"/>
      <point x="529" y="273"/>
      <point x="526" y="180"/>
      <point x="526" y="78" type="curve" smooth="yes"/>
      <point x="526" y="38"/>
      <point x="531" y="-5"/>
      <point x="572" y="-5" type="curve" smooth="yes"/>
      <point x="576" y="-5"/>
      <point x="583" y="-4"/>
      <point x="589" y="-1" type="curve"/>
      <point x="581" y="11"/>
      <point x="579" y="46"/>
      <point x="579" y="80" type="curve" smooth="yes"/>
      <point x="579" y="238"/>
      <point x="583" y="378"/>
      <point x="583" y="515" type="curve" smooth="yes"/>
      <point x="583" y="554"/>
      <point x="579" y="600"/>
      <point x="542" y="600" type="curve" smooth="yes"/>
      <point x="531" y="600"/>
      <point x="525" y="598"/>
      <point x="520" y="595" type="curve"/>
      <point x="528" y="583"/>
      <point x="530" y="547"/>
      <point x="530" y="513" type="curve" smooth="yes"/>
      <point x="530" y="456"/>
      <point x="530" y="402"/>
      <point x="529" y="349" type="curve"/>
      <point x="541" y="367" type="line"/>
      <point x="522" y="352"/>
      <point x="492" y="337"/>
      <point x="441" y="337" type="curve" smooth="yes"/>
      <point x="314" y="337"/>
      <point x="292" y="441"/>
      <point x="190" y="441" type="curve" smooth="yes"/>
      <point x="158" y="441"/>
      <point x="133" y="424"/>
      <point x="133" y="395" type="curve" smooth="yes"/>
      <point x="133" y="356"/>
      <point x="174" y="340"/>
      <point x="205" y="340" type="curve" smooth="yes"/>
      <point x="235" y="340"/>
      <point x="262" y="348"/>
      <point x="288" y="362" type="curve"/>
      <point x="299" y="354"/>
      <point x="333" y="322"/>
      <point x="333" y="268" type="curve" smooth="yes"/>
      <point x="333" y="201"/>
      <point x="283" y="163"/>
      <point x="219" y="163" type="curve" smooth="yes"/>
      <point x="129" y="163"/>
      <point x="58" y="241"/>
      <point x="21" y="317" type="curve"/>
      <point x="10" y="314"/>
      <point x="5" y="308"/>
      <point x="5" y="297" type="curve" smooth="yes"/>
      <point x="5" y="256"/>
      <point x="102" y="110"/>
      <point x="243" y="110" type="curve" smooth="yes"/>
      <point x="326" y="110"/>
      <point x="386" y="160"/>
      <point x="386" y="243" type="curve" smooth="yes"/>
      <point x="386" y="279"/>
      <point x="371" y="315"/>
      <point x="348" y="347" type="curve"/>
      <point x="298" y="369" type="line"/>
      <point x="342" y="315"/>
      <point x="403" y="291"/>
      <point x="465" y="291" type="curve" smooth="yes"/>
      <point x="501" y="291"/>
      <point x="534" y="298"/>
      <point x="559" y="313" type="curve"/>
    </contour>
    <contour>
      <point x="306" y="375" type="line"/>
      <point x="341" y="402"/>
      <point x="364" y="443"/>
      <point x="364" y="488" type="curve" smooth="yes"/>
      <point x="364" y="577"/>
      <point x="283" y="648"/>
      <point x="187" y="648" type="curve" smooth="yes"/>
      <point x="132" y="648"/>
      <point x="99" y="622"/>
      <point x="99" y="596" type="curve" smooth="yes"/>
      <point x="99" y="580"/>
      <point x="107" y="569"/>
      <point x="120" y="562" type="curve"/>
      <point x="146" y="584"/>
      <point x="183" y="596"/>
      <point x="219" y="596" type="curve" smooth="yes"/>
      <point x="271" y="596"/>
      <point x="318" y="570"/>
      <point x="318" y="512" type="curve" smooth="yes"/>
      <point x="318" y="470"/>
      <point x="288" y="422"/>
      <point x="222" y="394" type="curve"/>
    </contour>
    <contour>
      <point x="715" y="595" type="line"/>
      <point x="716" y="597"/>
      <point x="717" y="603"/>
      <point x="717" y="608" type="curve" smooth="yes"/>
      <point x="717" y="624"/>
      <point x="709" y="646"/>
      <point x="663" y="646" type="curve" smooth="yes"/>
      <point x="428" y="646" type="line"/>
      <point x="427" y="644"/>
      <point x="426" y="638"/>
      <point x="426" y="633" type="curve" smooth="yes"/>
      <point x="426" y="617"/>
      <point x="434" y="595"/>
      <point x="480" y="595" type="curve" smooth="yes"/>
    </contour>
    <contour>
      <point x="789" y="595" type="curve"/>
      <point x="797" y="583"/>
      <point x="799" y="547"/>
      <point x="799" y="513" type="curve" smooth="yes"/>
      <point x="799" y="355"/>
      <point x="795" y="215"/>
      <point x="795" y="78" type="curve" smooth="yes"/>
      <point x="795" y="38"/>
      <point x="800" y="-5"/>
      <point x="841" y="-5" type="curve" smooth="yes"/>
      <point x="845" y="-5"/>
      <point x="852" y="-4"/>
      <point x="858" y="-1" type="curve"/>
      <point x="850" y="11"/>
      <point x="848" y="46"/>
      <point x="848" y="80" type="curve" smooth="yes"/>
      <point x="848" y="238"/>
      <point x="852" y="378"/>
      <point x="852" y="515" type="curve" smooth="yes"/>
      <point x="852" y="554"/>
      <point x="848" y="600"/>
      <point x="811" y="600" type="curve" smooth="yes"/>
      <point x="800" y="600"/>
      <point x="794" y="598"/>
    </contour>
    <contour>
      <point x="984" y="595" type="line"/>
      <point x="985" y="597"/>
      <point x="986" y="603"/>
      <point x="986" y="608" type="curve" smooth="yes"/>
      <point x="986" y="624"/>
      <point x="978" y="646"/>
      <point x="932" y="646" type="curve" smooth="yes"/>
      <point x="653" y="646" type="line"/>
      <point x="652" y="644"/>
      <point x="651" y="638"/>
      <point x="651" y="633" type="curve" smooth="yes"/>
      <point x="651" y="617"/>
      <point x="659" y="595"/>
      <point x="705" y="595" type="curve" smooth="yes"/>
    </contour>
  </outline>
</glyph>
<glyph name="dvEcandra" format="1">
  <advance width="557"/>
  <unicode hex="090D"/>
  <outline>
    <contour>
      <point x="234" y="810" type="move" name="abvm.bindu"/>
    </contour>
    <component base="dvE"/>
    <component base="dvmEcandra" xOffset="428"/>
  </outline>
</glyph>
<glyph name="dvAI" format="1">
  <advance width="557"/>
  <unicode hex="0910"/>
  <outline>
    <contour>
      <point x="483" y="646" type="move" name="abvm.bindu"/>
    </contour>
    <component base="dvE"/>
    <component base="dvmE" xOffset="553"/>
  </outline>
</glyph>
<glyph name="dvKHA" format="1">
  <advance width="771"/>
  <unicode hex="0916"/>
  <outline>
    <contour>
      <point x="-37" y="646" type="line"/>
      <point x="-38" y="644"/>
      <point x="-39" y="638"/>
      <point x="-39" y="633" type="curve" smooth="yes"/>
      <point x="-39" y="617"/>
      <point x="-31" y="595"/>
      <point x="15" y="595" type="curve" smooth="yes"/>
      <point x="796" y="595" type="line"/>
      <point x="797" y="597"/>
      <point x="798" y="603"/>
      <point x="798" y="608" type="curve" smooth="yes"/>
      <point x="798" y="624"/>
      <point x="790" y="646"/>
      <point x="744" y="646" type="curve" smooth="yes"/>
    </contour>
    <contour>
      <point x="625" y="403" type="line"/>
      <point x="599" y="456"/>
      <point x="547" y="490"/>
      <point x="492" y="490" type="curve" smooth="yes"/>
      <point x="413" y="490"/>
      <point x="362" y="430"/>
      <point x="362" y="363" type="curve" smooth="yes"/>
      <point x="362" y="277"/>
      <point x="433" y="213"/>
      <point x="476" y="213" type="curve" smooth="yes"/>
      <point x="487" y="213"/>
      <point x="493" y="220"/>
      <point x="494" y="226" type="curve"/>
      <point x="448" y="250"/>
      <point x="416" y="294"/>
      <point x="416" y="345" type="curve" smooth="yes"/>
      <point x="416" y="392"/>
      <point x="444" y="445"/>
      <point x="508" y="445" type="curve" smooth="yes"/>
      <point x="576" y="445"/>
      <point x="611" y="381"/>
      <point x="611" y="322" type="curve" smooth="yes"/>
      <point x="611" y="206"/>
      <point x="511" y="115"/>
      <point x="370" y="115" type="curve" smooth="yes"/>
      <point x="254" y="115"/>
      <point x="159" y="182"/>
      <point x="130" y="281" type="curve"/>
      <point x="90" y="283" type="line"/>
      <point x="137" y="147"/>
      <point x="251" y="65"/>
      <point x="388" y="65" type="curve" smooth="yes"/>
      <point x="511" y="65"/>
      <point x="593" y="126"/>
      <point x="632" y="208" type="curve"/>
      <point x="617" y="193" type="line"/>
      <point x="608" y="146"/>
      <point x="607" y="116"/>
      <point x="607" y="78" type="curve" smooth="yes"/>
      <point x="607" y="38"/>
      <point x="612" y="-5"/>
      <point x="653" y="-5" type="curve" smooth="yes"/>
      <point x="657" y="-5"/>
      <point x="664" y="-4"/>
      <point x="670" y="-1" type="curve"/>
      <point x="662" y="11"/>
      <point x="660" y="46"/>
      <point x="660" y="80" type="curve" smooth="yes"/>
      <point x="660" y="238"/>
      <point x="664" y="378"/>
      <point x="664" y="515" type="curve" smooth="yes"/>
      <point x="664" y="554"/>
      <point x="660" y="600"/>
      <point x="623" y="600" type="curve" smooth="yes"/>
      <point x="612" y="600"/>
      <point x="606" y="598"/>
      <point x="601" y="595" type="curve"/>
      <point x="609" y="583"/>
      <point x="611" y="547"/>
      <point x="611" y="513" type="curve" smooth="yes"/>
      <point x="611" y="479"/>
      <point x="611" y="428"/>
      <point x="610" y="391" type="curve"/>
    </contour>
    <contour>
      <point x="128" y="295" type="line"/>
      <point x="124" y="332"/>
      <point x="116" y="405"/>
      <point x="65" y="405" type="curve" smooth="yes"/>
      <point x="42" y="405"/>
      <point x="25" y="388"/>
      <point x="25" y="360" type="curve" smooth="yes"/>
      <point x="25" y="308"/>
      <point x="82" y="271"/>
      <point x="133" y="271" type="curve" smooth="yes"/>
      <point x="222" y="271"/>
      <point x="282" y="341"/>
      <point x="282" y="426" type="curve" smooth="yes"/>
      <point x="282" y="489"/>
      <point x="257" y="553"/>
      <point x="222" y="599" type="curve"/>
      <point x="183" y="599" type="line"/>
      <point x="216" y="560"/>
      <point x="234" y="508"/>
      <point x="234" y="456" type="curve" smooth="yes"/>
      <point x="234" y="379"/>
      <point x="195" y="328"/>
      <point x="120" y="325" type="curve"/>
    </contour>
  </outline>
</glyph>
<glyph name="dvJA" format="1">
  <advance width="665"/>
  <unicode hex="091C"/>
  <outline>
    <contour>
      <point x="-37" y="646" type="line"/>
      <point x="-38" y="644"/>
      <point x="-39" y="638"/>
      <point x="-39" y="633" type="curve" smooth="yes"/>
      <point x="-39" y="617"/>
      <point x="-31" y="595"/>
      <point x="15" y="595" type="curve" smooth="yes"/>
      <point x="690" y="595" type="line"/>
      <point x="691" y="597"/>
      <point x="692" y="603"/>
      <point x="692" y="608" type="curve" smooth="yes"/>
      <point x="692" y="624"/>
      <point x="684" y="646"/>
      <point x="638" y="646" type="curve" smooth="yes"/>
    </contour>
    <contour>
      <point x="505" y="513" type="curve" smooth="yes"/>
      <point x="505" y="355"/>
      <point x="501" y="215"/>
      <point x="501" y="78" type="curve" smooth="yes"/>
      <point x="501" y="38"/>
      <point x="506" y="-5"/>
      <point x="547" y="-5" type="curve" smooth="yes"/>
      <point x="551" y="-5"/>
      <point x="558" y="-4"/>
      <point x="564" y="-1" type="curve"/>
      <point x="556" y="11"/>
      <point x="554" y="46"/>
      <point x="554" y="80" type="curve" smooth="yes"/>
      <point x="554" y="238"/>
      <point x="558" y="378"/>
      <point x="558" y="515" type="curve" smooth="yes"/>
      <point x="558" y="554"/>
      <point x="554" y="600"/>
      <point x="517" y="600" type="curve" smooth="yes"/>
      <point x="506" y="600"/>
      <point x="500" y="598"/>
      <point x="495" y="595" type="curve"/>
      <point x="503" y="583"/>
      <point x="505" y="547"/>
    </contour>
    <contour>
      <point x="535" y="437" type="line"/>
      <point x="174" y="437" type="line"/>
      <point x="173" y="435"/>
      <point x="172" y="429"/>
      <point x="172" y="424" type="curve" smooth="yes"/>
      <point x="172" y="408"/>
      <point x="180" y="386"/>
      <point x="226" y="386" type="curve" smooth="yes"/>
      <point x="535" y="386" type="line"/>
    </contour>
    <contour>
      <point x="239" y="402" type="line"/>
      <point x="284" y="366"/>
      <point x="321" y="312"/>
      <point x="321" y="255" type="curve" smooth="yes"/>
      <point x="321" y="209"/>
      <point x="288" y="176"/>
      <point x="242" y="176" type="curve" smooth="yes"/>
      <point x="125" y="176"/>
      <point x="61" y="339"/>
      <point x="35" y="427" type="curve"/>
      <point x="27" y="427"/>
      <point x="15" y="423"/>
      <point x="15" y="406" type="curve" smooth="yes"/>
      <point x="15" y="356"/>
      <point x="96" y="124"/>
      <point x="255" y="124" type="curve" smooth="yes"/>
      <point x="318" y="124"/>
      <point x="372" y="165"/>
      <point x="372" y="239" type="curve" smooth="yes"/>
      <point x="372" y="323"/>
      <point x="301" y="388"/>
      <point x="283" y="402" type="curve"/>
    </contour>
  </outline>
</glyph>
<glyph name="dvNYA" format="1">
  <advance width="674"/>
  <unicode hex="091E"/>
  <outline>
    <contour>
      <point x="-37" y="646" type="line"/>
      <point x="-38" y="644"/>
      <point x="-39" y="638"/>
      <point x="-39" y="633" type="curve" smooth="yes"/>
      <point x="-39" y="617"/>
      <point x="-31" y="595"/>
      <point x="15" y="595" type="curve" smooth="yes"/>
      <point x="699" y="595" type="line"/>
      <point x="700" y="597"/>
      <point x="701" y="603"/>
      <point x="701" y="608" type="curve" smooth="yes"/>
      <point x="701" y="624"/>
      <point x="693" y="646"/>
      <point x="647" y="646" type="curve" smooth="yes"/>
    </contour>
    <contour>
      <point x="514" y="513" type="curve" smooth="yes"/>
      <point x="514" y="355"/>
      <point x="510" y="215"/>
      <point x="510" y="78" type="curve" smooth="yes"/>
      <point x="510" y="38"/>
      <point x="515" y="-5"/>
      <point x="556" y="-5" type="curve" smooth="yes"/>
      <point x="560" y="-5"/>
      <point x="567" y="-4"/>
      <point x="573" y="-1" type="curve"/>
      <point x="565" y="11"/>
      <point x="563" y="46"/>
      <point x="563" y="80" type="curve" smooth="yes"/>
      <point x="563" y="238"/>
      <point x="567" y="378"/>
      <point x="567" y="515" type="curve" smooth="yes"/>
      <point x="567" y="554"/>
      <point x="563" y="600"/>
      <point x="526" y="600" type="curve" smooth="yes"/>
      <point x="515" y="600"/>
      <point x="509" y="598"/>
      <point x="504" y="595" type="curve"/>
      <point x="512" y="583"/>
      <point x="514" y="547"/>
    </contour>
    <contour>
      <point x="443" y="318" type="curve" smooth="yes"/>
      <point x="430" y="318"/>
      <point x="417" y="319"/>
      <point x="404" y="321" type="curve"/>
      <point x="400" y="287" type="line"/>
      <point x="418" y="276"/>
      <point x="447" y="271"/>
      <point x="473" y="271" type="curve" smooth="yes"/>
      <point x="491" y="271"/>
      <point x="508" y="273"/>
      <point x="519" y="277" type="curve"/>
      <point x="519" y="336" type="line"/>
      <point x="502" y="325"/>
      <point x="471" y="318"/>
    </contour>
    <contour>
      <point x="32" y="435" type="curve"/>
      <point x="24" y="435"/>
      <point x="13" y="431"/>
      <point x="13" y="415" type="curve" smooth="yes"/>
      <point x="13" y="376"/>
      <point x="107" y="173"/>
      <point x="263" y="173" type="curve" smooth="yes"/>
      <point x="343" y="173"/>
      <point x="411" y="223"/>
      <point x="411" y="306" type="curve" smooth="yes"/>
      <point x="411" y="401"/>
      <point x="341" y="472"/>
      <point x="251" y="472" type="curve" smooth="yes"/>
      <point x="212" y="472"/>
      <point x="172" y="449"/>
      <point x="172" y="415" type="curve" smooth="yes"/>
      <point x="172" y="383"/>
      <point x="202" y="376"/>
      <point x="202" y="376" type="curve"/>
      <point x="221" y="410"/>
      <point x="247" y="426"/>
      <point x="280" y="426" type="curve" smooth="yes"/>
      <point x="335" y="426"/>
      <point x="366" y="382"/>
      <point x="366" y="333" type="curve" smooth="yes"/>
      <point x="366" y="281"/>
      <point x="329" y="226"/>
      <point x="248" y="226" type="curve" smooth="yes"/>
      <point x="132" y="226"/>
      <point x="68" y="343"/>
    </contour>
  </outline>
</glyph>
<glyph name="dvTTHA" format="1">
  <advance width="477"/>
  <unicode hex="0920"/>
  <outline>
    <contour>
      <point x="259" y="18" type="move" name="blwm.uu"/>
    </contour>
    <contour>
      <point x="293" y="-7" type="move" name="blwm.r"/>
    </contour>
    <contour>
      <point x="289" y="646" type="move" name="abvm.e"/>
    </contour>
    <contour>
      <point x="214" y="646" type="move" name="abvm.bindu"/>
    </contour>
    <contour>
      <point x="274" y="53" type="move" name="blwm.virama"/>
    </contour>
    <contour>
      <point x="285" y="18" type="move" name="blwm.u"/>
    </contour>
    <contour>
      <point x="-37" y="646" type="line"/>
      <point x="-38" y="644"/>
      <point x="-39" y="638"/>
      <point x="-39" y="633" type="curve" smooth="yes"/>
      <point x="-39" y="617"/>
      <point x="-31" y="595"/>
      <point x="15" y="595" type="curve" smooth="yes"/>
      <point x="502" y="595" type="line"/>
      <point x="503" y="597"/>
      <point x="504" y="603"/>
      <point x="504" y="608" type="curve" smooth="yes"/>
      <point x="504" y="624"/>
      <point x="496" y="646"/>
      <point x="450" y="646" type="curve" smooth="yes"/>
    </contour>
    <contour>
      <point x="195" y="410" type="line"/>
      <point x="315" y="401"/>
      <point x="384" y="333"/>
      <point x="384" y="251" type="curve" smooth="yes"/>
      <point x="384" y="165"/>
      <point x="306" y="108"/>
      <point x="225" y="108" type="curve" smooth="yes"/>
      <point x="150" y="108"/>
      <point x="76" y="158"/>
      <point x="76" y="241" type="curve" smooth="yes"/>
      <point x="76" y="404"/>
      <point x="310" y="393"/>
      <point x="310" y="521" type="curve" smooth="yes"/>
      <point x="310" y="564"/>
      <point x="285" y="595"/>
      <point x="252" y="616" type="curve"/>
      <point x="231" y="596" type="line"/>
      <point x="248" y="586"/>
      <point x="264" y="565"/>
      <point x="264" y="542" type="curve" smooth="yes"/>
      <point x="264" y="448"/>
      <point x="25" y="437"/>
      <point x="25" y="266" type="curve" smooth="yes"/>
      <point x="25" y="147"/>
      <point x="143" y="63"/>
      <point x="246" y="63" type="curve" smooth="yes"/>
      <point x="355" y="63"/>
      <point x="435" y="134"/>
      <point x="435" y="233" type="curve" smooth="yes"/>
      <point x="435" y="321"/>
      <point x="364" y="415"/>
      <point x="235" y="437" type="curve"/>
    </contour>
  </outline>
</glyph>
<glyph name="dvDDA" format="1">
  <advance width="452"/>
  <unicode hex="0921"/>
  <outline>
    <contour>
      <point x="259" y="6" type="move" name="blwm.uu"/>
    </contour>
    <contour>
      <point x="307" y="-19" type="move" name="blwm.r"/>
    </contour>
    <contour>
      <point x="336" y="646" type="move" name="abvm.e"/>
    </contour>
    <contour>
      <point x="236" y="646" type="move" name="abvm.bindu"/>
    </contour>
    <contour>
      <point x="278" y="41" type="move" name="blwm.virama"/>
    </contour>
    <contour>
      <point x="285" y="6" type="move" name="blwm.u"/>
    </contour>
    <contour>
      <point x="282" y="597" type="line"/>
      <point x="302" y="583"/>
      <point x="318" y="558"/>
      <point x="318" y="537" type="curve" smooth="yes"/>
      <point x="318" y="515"/>
      <point x="304" y="496"/>
      <point x="267" y="496" type="curve" smooth="yes"/>
      <point x="236" y="496"/>
      <point x="211" y="497"/>
      <point x="188" y="497" type="curve" smooth="yes"/>
      <point x="113" y="497"/>
      <point x="64" y="461"/>
      <point x="64" y="396" type="curve" smooth="yes"/>
      <point x="64" y="314"/>
      <point x="159" y="258"/>
      <point x="226" y="258" type="curve" smooth="yes"/>
      <point x="250" y="258"/>
      <point x="281" y="263"/>
      <point x="309" y="263" type="curve" smooth="yes"/>
      <point x="356" y="263"/>
      <point x="382" y="234"/>
      <point x="382" y="195" type="curve" smooth="yes"/>
      <point x="382" y="130"/>
      <point x="311" y="103"/>
      <point x="249" y="103" type="curve" smooth="yes"/>
      <point x="154" y="103"/>
      <point x="77" y="144"/>
      <point x="27" y="211" type="curve"/>
      <point x="21" y="209"/>
      <point x="13" y="205"/>
      <point x="13" y="192" type="curve" smooth="yes"/>
      <point x="13" y="151"/>
      <point x="128" y="51"/>
      <point x="274" y="51" type="curve" smooth="yes"/>
      <point x="366" y="51"/>
      <point x="431" y="104"/>
      <point x="431" y="169" type="curve" smooth="yes"/>
      <point x="431" y="236"/>
      <point x="368" y="315"/>
      <point x="276" y="315" type="curve" smooth="yes"/>
      <point x="247" y="315"/>
      <point x="221" y="311"/>
      <point x="196" y="311" type="curve" smooth="yes"/>
      <point x="145" y="311"/>
      <point x="112" y="335"/>
      <point x="112" y="377" type="curve" smooth="yes"/>
      <point x="112" y="431"/>
      <point x="165" y="447"/>
      <point x="206" y="447" type="curve" smooth="yes"/>
      <point x="231" y="447"/>
      <point x="249" y="446"/>
      <point x="266" y="446" type="curve" smooth="yes"/>
      <point x="352" y="446"/>
      <point x="369" y="490"/>
      <point x="369" y="516" type="curve" smooth="yes"/>
      <point x="369" y="549"/>
      <point x="351" y="577"/>
      <point x="324" y="600" type="curve"/>
    </contour>
    <contour>
      <point x="-37" y="646" type="line"/>
      <point x="-38" y="644"/>
      <point x="-39" y="638"/>
      <point x="-39" y="633" type="curve" smooth="yes"/>
      <point x="-39" y="617"/>
      <point x="-31" y="595"/>
      <point x="15" y="595" type="curve" smooth="yes"/>
      <point x="502" y="595" type="line"/>
      <point x="503" y="597"/>
      <point x="504" y="603"/>
      <point x="504" y="608" type="curve" smooth="yes"/>
      <point x="504" y="624"/>
      <point x="496" y="646"/>
      <point x="450" y="646" type="curve" smooth="yes"/>
    </contour>
  </outline>
</glyph>
<glyph name="dvDHA" format="1">
  <advance width="592"/>
  <unicode hex="0927"/>
  <outline>
    <contour>
      <point x="375" y="646" type="line"/>
      <point x="374" y="644"/>
      <point x="373" y="638"/>
      <point x="373" y="633" type="curve" smooth="yes"/>
      <point x="373" y="611"/>
      <point x="387" y="603"/>
      <point x="401" y="596" type="curve" smooth="yes"/>
      <point x="423" y="585"/>
      <point x="432" y="571"/>
      <point x="432" y="513" type="curve" smooth="yes"/>
      <point x="432" y="418"/>
      <point x="430" y="329"/>
      <point x="429" y="244" type="curve"/>
      <point x="439" y="296" type="line"/>
      <point x="404" y="219"/>
      <point x="325" y="171"/>
      <point x="247" y="171" type="curve" smooth="yes"/>
      <point x="178" y="171"/>
      <point x="120" y="211"/>
      <point x="120" y="276" type="curve" smooth="yes"/>
      <point x="120" y="330"/>
      <point x="157" y="360"/>
      <point x="187" y="373" type="curve"/>
      <point x="124" y="392"/>
      <point x="100" y="441"/>
      <point x="100" y="488" type="curve" smooth="yes"/>
      <point x="100" y="535"/>
      <point x="134" y="595"/>
      <point x="202" y="595" type="curve" smooth="yes"/>
      <point x="223" y="595" type="line"/>
      <point x="224" y="597"/>
      <point x="225" y="603"/>
      <point x="225" y="608" type="curve" smooth="yes"/>
      <point x="225" y="624"/>
      <point x="217" y="646"/>
      <point x="171" y="646" type="curve" smooth="yes"/>
      <point x="-52" y="646" type="line"/>
      <point x="-53" y="644"/>
      <point x="-54" y="638"/>
      <point x="-54" y="633" type="curve" smooth="yes"/>
      <point x="-54" y="617"/>
      <point x="-46" y="595"/>
      <point x="0" y="595" type="curve" smooth="yes"/>
      <point x="25" y="595"/>
      <point x="64" y="596"/>
      <point x="130" y="601" type="curve"/>
      <point x="107" y="606" type="line"/>
      <point x="67" y="579"/>
      <point x="53" y="535"/>
      <point x="53" y="502" type="curve" smooth="yes"/>
      <point x="53" y="412"/>
      <point x="133" y="340"/>
      <point x="218" y="340" type="curve" smooth="yes"/>
      <point x="243" y="340"/>
      <point x="276" y="352"/>
      <point x="276" y="385" type="curve" smooth="yes"/>
      <point x="276" y="417"/>
      <point x="240" y="432"/>
      <point x="210" y="432" type="curve" smooth="yes"/>
      <point x="144" y="432"/>
      <point x="71" y="385"/>
      <point x="71" y="293" type="curve" smooth="yes"/>
      <point x="71" y="215"/>
      <point x="162" y="122"/>
      <point x="276" y="122" type="curve" smooth="yes"/>
      <point x="363" y="122"/>
      <point x="438" y="168"/>
      <point x="466" y="253" type="curve"/>
      <point x="437" y="214" type="line"/>
      <point x="428" y="168"/>
      <point x="428" y="91"/>
      <point x="428" y="78" type="curve" smooth="yes"/>
      <point x="428" y="38"/>
      <point x="433" y="-5"/>
      <point x="474" y="-5" type="curve" smooth="yes"/>
      <point x="478" y="-5"/>
      <point x="485" y="-4"/>
      <point x="491" y="-1" type="curve"/>
      <point x="483" y="11"/>
      <point x="481" y="46"/>
      <point x="481" y="80" type="curve" smooth="yes"/>
      <point x="481" y="238"/>
      <point x="485" y="378"/>
      <point x="485" y="515" type="curve" smooth="yes"/>
      <point x="485" y="554"/>
      <point x="482" y="594"/>
      <point x="444" y="600" type="curve"/>
      <point x="450" y="595" type="line"/>
      <point x="617" y="595" type="line"/>
      <point x="618" y="597"/>
      <point x="619" y="603"/>
      <point x="619" y="608" type="curve" smooth="yes"/>
      <point x="619" y="624"/>
      <point x="611" y="646"/>
      <point x="565" y="646" type="curve" smooth="yes"/>
    </contour>
  </outline>
</glyph>
<glyph name="dvPA" format="1">
  <advance width="544"/>
  <unicode hex="092A"/>
  <outline>
    <contour>
      <point x="70" y="595" type="curve"/>
      <point x="78" y="583"/>
      <point x="80" y="547"/>
      <point x="80" y="513" type="curve" smooth="yes"/>
      <point x="80" y="380"/>
      <point x="79" y="462"/>
      <point x="79" y="346" type="curve" smooth="yes"/>
      <point x="79" y="274"/>
      <point x="153" y="176"/>
      <point x="251" y="176" type="curve" smooth="yes"/>
      <point x="335" y="176"/>
      <point x="390" y="229"/>
      <point x="409" y="264" type="curve"/>
      <point x="390" y="272" type="line"/>
      <point x="381" y="207"/>
      <point x="380" y="141"/>
      <point x="380" y="78" type="curve" smooth="yes"/>
      <point x="380" y="38"/>
      <point x="385" y="-5"/>
      <point x="426" y="-5" type="curve" smooth="yes"/>
      <point x="430" y="-5"/>
      <point x="437" y="-4"/>
      <point x="443" y="-1" type="curve"/>
      <point x="435" y="11"/>
      <point x="433" y="46"/>
      <point x="433" y="80" type="curve" smooth="yes"/>
      <point x="433" y="238"/>
      <point x="437" y="378"/>
      <point x="437" y="515" type="curve" smooth="yes"/>
      <point x="437" y="554"/>
      <point x="433" y="600"/>
      <point x="396" y="600" type="curve" smooth="yes"/>
      <point x="385" y="600"/>
      <point x="379" y="598"/>
      <point x="374" y="595" type="curve"/>
      <point x="382" y="583"/>
      <point x="384" y="547"/>
      <point x="384" y="513" type="curve" smooth="yes"/>
      <point x="384" y="432"/>
      <point x="383" y="356"/>
      <point x="382" y="283" type="curve"/>
      <point x="390" y="320" type="line"/>
      <point x="348" y="260"/>
      <point x="286" y="227"/>
      <point x="227" y="227" type="curve" smooth="yes"/>
      <point x="167" y="227"/>
      <point x="132" y="270"/>
      <point x="132" y="322" type="curve" smooth="yes"/>
      <point x="132" y="480"/>
      <point x="133" y="378"/>
      <point x="133" y="515" type="curve" smooth="yes"/>
      <point x="133" y="554"/>
      <point x="129" y="600"/>
      <point x="92" y="600" type="curve" smooth="yes"/>
      <point x="81" y="600"/>
      <point x="75" y="598"/>
    </contour>
    <contour>
      <point x="-37" y="646" type="line"/>
      <point x="-38" y="644"/>
      <point x="-39" y="638"/>
      <point x="-39" y="633" type="curve" smooth="yes"/>
      <point x="-39" y="617"/>
      <point x="-31" y="595"/>
      <point x="15" y="595" type="curve" smooth="yes"/>
      <point x="569" y="595" type="line"/>
      <point x="570" y="597"/>
      <point x="571" y="603"/>
      <point x="571" y="608" type="curve" smooth="yes"/>
      <point x="571" y="624"/>
      <point x="563" y="646"/>
      <point x="517" y="646" type="curve" smooth="yes"/>
    </contour>
  </outline>
</glyph>
<glyph name="dvMA" format="1">
  <advance width="580"/>
  <unicode hex="092E"/>
  <outline>
    <contour>
      <point x="-37" y="646" type="line"/>
      <point x="-38" y="644"/>
      <point x="-39" y="638"/>
      <point x="-39" y="633" type="curve" smooth="yes"/>
      <point x="-39" y="617"/>
      <point x="-31" y="595"/>
      <point x="15" y="595" type="curve" smooth="yes"/>
      <point x="605" y="595" type="line"/>
      <point x="606" y="597"/>
      <point x="607" y="603"/>
      <point x="607" y="608" type="curve" smooth="yes"/>
      <point x="607" y="624"/>
      <point x="599" y="646"/>
      <point x="553" y="646" type="curve" smooth="yes"/>
    </contour>
    <contour>
      <point x="420" y="513" type="curve" smooth="yes"/>
      <point x="420" y="355"/>
      <point x="416" y="215"/>
      <point x="416" y="78" type="curve" smooth="yes"/>
      <point x="416" y="38"/>
      <point x="421" y="-5"/>
      <point x="462" y="-5" type="curve" smooth="yes"/>
      <point x="466" y="-5"/>
      <point x="473" y="-4"/>
      <point x="479" y="-1" type="curve"/>
      <point x="471" y="11"/>
      <point x="469" y="46"/>
      <point x="469" y="80" type="curve" smooth="yes"/>
      <point x="469" y="238"/>
      <point x="473" y="378"/>
      <point x="473" y="515" type="curve" smooth="yes"/>
      <point x="473" y="554"/>
      <point x="469" y="600"/>
      <point x="432" y="600" type="curve" smooth="yes"/>
      <point x="421" y="600"/>
      <point x="415" y="598"/>
      <point x="410" y="595" type="curve"/>
      <point x="418" y="583"/>
      <point x="420" y="547"/>
    </contour>
    <contour>
      <point x="451" y="338" type="line"/>
      <point x="365" y="348"/>
      <point x="233" y="350"/>
      <point x="153" y="350" type="curve" smooth="yes"/>
      <point x="109" y="350"/>
      <point x="61" y="345"/>
      <point x="61" y="299" type="curve" smooth="yes"/>
      <point x="61" y="261"/>
      <point x="106" y="209"/>
      <point x="149" y="209" type="curve" smooth="yes"/>
      <point x="199" y="209"/>
      <point x="202" y="311"/>
      <point x="202" y="414" type="curve" smooth="yes"/>
      <point x="202" y="561"/>
      <point x="196" y="600"/>
      <point x="159" y="600" type="curve" smooth="yes"/>
      <point x="148" y="600"/>
      <point x="142" y="598"/>
      <point x="137" y="595" type="curve"/>
      <point x="148" y="583"/>
      <point x="150" y="537"/>
      <point x="150" y="421" type="curve" smooth="yes"/>
      <point x="150" y="382"/>
      <point x="147" y="333"/>
      <point x="144" y="299" type="curve"/>
      <point x="442" y="299" type="line"/>
    </contour>
  </outline>
</glyph>
<glyph name="dvRxA" format="1">
  <advance width="390"/>
  <unicode hex="0931"/>
  <outline>
    <contour>
      <point x="175" y="646" type="move" name="abvm.bindu"/>
    </contour>
    <contour>
      <point x="280" y="-14" type="move" name="blwm.virama"/>
    </contour>
    <contour>
      <point x="266" y="646" type="move" name="abvm.e"/>
    </contour>
    <contour>
      <point x="342" y="-74" type="move" name="blwm.r"/>
    </contour>
    <component base="dvRA"/>
    <component base="dvNukta" xOffset="374" yOffset="112"/>
  </outline>
</glyph>
<glyph name="dvSSA" format="1">
  <advance width="559"/>
  <unicode hex="0937"/>
  <outline>
    <contour>
      <point x="70" y="595" type="curve"/>
      <point x="78" y="583"/>
      <point x="80" y="547"/>
      <point x="80" y="513" type="curve" smooth="yes"/>
      <point x="80" y="380"/>
      <point x="79" y="462"/>
      <point x="79" y="346" type="curve" smooth="yes"/>
      <point x="79" y="274"/>
      <point x="153" y="176"/>
      <point x="251" y="176" type="curve" smooth="yes"/>
      <point x="342" y="176"/>
      <point x="403" y="229"/>
      <point x="424" y="264" type="curve"/>
      <point x="405" y="272" type="line"/>
      <point x="396" y="207"/>
      <point x="395" y="141"/>
      <point x="395" y="78" type="curve" smooth="yes"/>
      <point x="395" y="38"/>
      <point x="399" y="-5"/>
      <point x="441" y="-5" type="curve" smooth="yes"/>
      <point x="447" y="-5"/>
      <point x="452" y="-4"/>
      <point x="458" y="-1" type="curve"/>
      <point x="450" y="11"/>
      <point x="448" y="46"/>
      <point x="448" y="80" type="curve" smooth="yes"/>
      <point x="448" y="238"/>
      <point x="452" y="378"/>
      <point x="452" y="515" type="curve" smooth="yes"/>
      <point x="452" y="554"/>
      <point x="448" y="600"/>
      <point x="411" y="600" type="curve" smooth="yes"/>
      <point x="400" y="600"/>
      <point x="394" y="598"/>
      <point x="389" y="595" type="curve"/>
      <point x="396" y="583"/>
      <point x="399" y="547"/>
      <point x="399" y="513" type="curve" smooth="yes"/>
      <point x="399" y="432"/>
      <point x="398" y="356"/>
      <point x="397" y="283" type="curve"/>
      <point x="405" y="320" type="line"/>
      <point x="359" y="260"/>
      <point x="291" y="227"/>
      <point x="227" y="227" type="curve" smooth="yes"/>
      <point x="167" y="227"/>
      <point x="132" y="270"/>
      <point x="132" y="322" type="curve" smooth="yes"/>
      <point x="132" y="475"/>
      <point x="133" y="376"/>
      <point x="133" y="509" type="curve" smooth="yes"/>
      <point x="133" y="524"/>
      <point x="131" y="544"/>
      <point x="116" y="564" type="curve"/>
      <point x="98" y="567" type="line"/>
      <point x="175" y="507"/>
      <point x="336" y="330"/>
      <point x="393" y="266" type="curve"/>
      <point x="421" y="287" type="line"/>
      <point x="165" y="559"/>
      <point x="126" y="601"/>
      <point x="94" y="601" type="curve" smooth="yes"/>
      <point x="85" y="601"/>
      <point x="77" y="599"/>
    </contour>
    <contour>
      <point x="-37" y="646" type="line"/>
      <point x="-38" y="644"/>
      <point x="-39" y="638"/>
      <point x="-39" y="633" type="curve" smooth="yes"/>
      <point x="-39" y="617"/>
      <point x="-31" y="595"/>
      <point x="15" y="595" type="curve" smooth="yes"/>
      <point x="584" y="595" type="line"/>
      <point x="585" y="597"/>
      <point x="586" y="603"/>
      <point x="586" y="608" type="curve" smooth="yes"/>
      <point x="586" y="624"/>
      <point x="578" y="646"/>
      <point x="532" y="646" type="curve" smooth="yes"/>
    </contour>
  </outline>
</glyph>
<glyph name="dvHA" format="1">
  <advance width="487"/>
  <unicode hex="0939"/>
  <outline>
    <contour>
      <point x="253" y="646" type="move" name="abvm.bindu"/>
    </contour>
    <contour>
      <point x="294" y="-77" type="move" name="blwm.virama"/>
    </contour>
    <contour>
      <point x="348" y="646" type="move" name="abvm.e"/>
    </contour>
    <contour>
      <point x="285" y="-41" type="move" name="blwm.u"/>
    </contour>
    <contour>
      <point x="281" y="-41" type="move" name="blwm.uu"/>
    </contour>
    <contour>
      <point x="186" y="262" type="line"/>
      <point x="154" y="292"/>
      <point x="128" y="320"/>
      <point x="128" y="359" type="curve" smooth="yes"/>
      <point x="128" y="398"/>
      <point x="157" y="441"/>
      <point x="219" y="441" type="curve" smooth="yes"/>
      <point x="247" y="441"/>
      <point x="270" y="440"/>
      <point x="299" y="440" type="curve" smooth="yes"/>
      <point x="354" y="440"/>
      <point x="386" y="469"/>
      <point x="386" y="510" type="curve" smooth="yes"/>
      <point x="386" y="556"/>
      <point x="355" y="594"/>
      <point x="322" y="614" type="curve"/>
      <point x="286" y="601" type="line"/>
      <point x="315" y="589"/>
      <point x="338" y="562"/>
      <point x="338" y="532" type="curve" smooth="yes"/>
      <point x="338" y="510"/>
      <point x="321" y="491"/>
      <point x="287" y="491" type="curve" smooth="yes"/>
      <point x="257" y="491"/>
      <point x="244" y="492"/>
      <point x="220" y="492" type="curve" smooth="yes"/>
      <point x="117" y="492"/>
      <point x="81" y="436"/>
      <point x="81" y="378" type="curve" smooth="yes"/>
      <point x="81" y="315"/>
      <point x="129" y="269"/>
      <point x="169" y="236" type="curve"/>
    </contour>
    <contour>
      <point x="-37" y="646" type="line"/>
      <point x="-38" y="644"/>
      <point x="-39" y="638"/>
      <point x="-39" y="633" type="curve" smooth="yes"/>
      <point x="-39" y="617"/>
      <point x="-31" y="595"/>
      <point x="15" y="595" type="curve" smooth="yes"/>
      <point x="512" y="595" type="line"/>
      <point x="513" y="597"/>
      <point x="514" y="603"/>
      <point x="514" y="608" type="curve" smooth="yes"/>
      <point x="514" y="624"/>
      <point x="506" y="646"/>
      <point x="460" y="646" type="curve" smooth="yes"/>
    </contour>
    <contour>
      <point x="309" y="114" type="curve"/>
      <point x="309" y="86"/>
      <point x="332" y="72"/>
      <point x="356" y="72" type="curve" smooth="yes"/>
      <point x="406" y="72"/>
      <point x="438" y="118"/>
      <point x="438" y="166" type="curve" smooth="yes"/>
      <point x="438" y="234"/>
      <point x="371" y="318"/>
      <point x="266" y="318" type="curve" smooth="yes"/>
      <point x="155" y="318"/>
      <point x="86" y="232"/>
      <point x="86" y="143" type="curve" smooth="yes"/>
      <point x="86" y="9"/>
      <point x="214" y="-80"/>
      <point x="339" y="-80" type="curve" smooth="yes"/>
      <point x="361" y="-80"/>
      <point x="381" y="-74"/>
      <point x="381" y="-55" type="curve" smooth="yes"/>
      <point x="381" y="-55"/>
      <point x="381" y="-50"/>
      <point x="380" y="-47" type="curve"/>
      <point x="372" y="-48"/>
      <point x="364" y="-48"/>
      <point x="356" y="-48" type="curve" smooth="yes"/>
      <point x="243" y="-48"/>
      <point x="139" y="13"/>
      <point x="139" y="124" type="curve" smooth="yes"/>
      <point x="139" y="222"/>
      <point x="222" y="271"/>
      <point x="288" y="271" type="curve" smooth="yes"/>
      <point x="350" y="271"/>
      <point x="391" y="237"/>
      <point x="391" y="189" type="curve" smooth="yes"/>
      <point x="391" y="148"/>
      <point x="361" y="116"/>
    </contour>
  </outline>
</glyph>
<glyph name="dvmAA" format="1">
  <advance width="269"/>
  <unicode hex="093E"/>
  <outline>
    <contour>
      <point x="-37" y="646" type="line"/>
      <point x="-38" y="644"/>
      <point x="-39" y="638"/>
      <point x="-39" y="633" type="curve" smooth="yes"/>
      <point x="-39" y="617"/>
      <point x="-31" y="595"/>
      <point x="15" y="595" type="curve" smooth="yes"/>
      <point x="294" y="595" type="line"/>
      <point x="295" y="597"/>
      <point x="296" y="603"/>
      <point x="296" y="608" type="curve" smooth="yes"/>
      <point x="296" y="624"/>
      <point x="288" y="646"/>
      <point x="242" y="646" type="curve" smooth="yes"/>
    </contour>
    <contour>
      <point x="109" y="513" type="curve" smooth="yes"/>
      <point x="109" y="355"/>
      <point x="105" y="215"/>
      <point x="105" y="78" type="curve" smooth="yes"/>
      <point x="105" y="38"/>
      <point x="110" y="-5"/>
      <point x="151" y="-5" type="curve" smooth="yes"/>
      <point x="155" y="-5"/>
      <point x="162" y="-4"/>
      <point x="168" y="-1" type="curve"/>
      <point x="160" y="11"/>
      <point x="158" y="46"/>
      <point x="158" y="80" type="curve" smooth="yes"/>
      <point x="158" y="238"/>
      <point x="162" y="378"/>
      <point x="162" y="515" type="curve" smooth="yes"/>
      <point x="162" y="554"/>
      <point x="158" y="600"/>
      <point x="121" y="600" type="curve" smooth="yes"/>
      <point x="110" y="600"/>
      <point x="104" y="598"/>
      <point x="99" y="595" type="curve"/>
      <point x="107" y="583"/>
      <point x="109" y="547"/>
    </contour>
  </outline>
</glyph>
<glyph name="dvmII" format="1">
  <advance width="269"/>
  <unicode hex="0940"/>
  <outline>
    <contour>
      <point x="-37" y="646" type="line"/>
      <point x="-38" y="644"/>
      <point x="-39" y="638"/>
      <point x="-39" y="633" type="curve" smooth="yes"/>
      <point x="-39" y="617"/>
      <point x="-31" y="595"/>
      <point x="15" y="595" type="curve" smooth="yes"/>
      <point x="294" y="595" type="line"/>
      <point x="295" y="597"/>
      <point x="296" y="603"/>
      <point x="296" y="608" type="curve" smooth="yes"/>
      <point x="296" y="624"/>
      <point x="288" y="646"/>
      <point x="242" y="646" type="curve" smooth="yes"/>
    </contour>
    <contour>
      <point x="109" y="513" type="curve" smooth="yes"/>
      <point x="109" y="355"/>
      <point x="105" y="215"/>
      <point x="105" y="78" type="curve" smooth="yes"/>
      <point x="105" y="38"/>
      <point x="110" y="-5"/>
      <point x="151" y="-5" type="curve" smooth="yes"/>
      <point x="155" y="-5"/>
      <point x="162" y="-4"/>
      <point x="168" y="-1" type="curve"/>
      <point x="160" y="11"/>
      <point x="158" y="46"/>
      <point x="158" y="80" type="curve" smooth="yes"/>
      <point x="158" y="238"/>
      <point x="162" y="378"/>
      <point x="162" y="515" type="curve" smooth="yes"/>
      <point x="162" y="712"/>
      <point x="46" y="904"/>
      <point x="-90" y="904" type="curve" smooth="yes"/>
      <point x="-151" y="904"/>
      <point x="-194" y="862"/>
      <point x="-194" y="807" type="curve" smooth="yes"/>
      <point x="-194" y="750"/>
      <point x="-156" y="710"/>
      <point x="-125" y="710" type="curve" smooth="yes"/>
      <point x="-121" y="710"/>
      <point x="-114" y="712"/>
      <point x="-112" y="717" type="curve"/>
      <point x="-132" y="738"/>
      <point x="-143" y="761"/>
      <point x="-143" y="785" type="curve" smooth="yes"/>
      <point x="-143" y="828"/>
      <point x="-111" y="855"/>
      <point x="-72" y="855" type="curve" smooth="yes"/>
      <point x="31" y="855"/>
      <point x="109" y="722"/>
    </contour>
  </outline>
</glyph>
<glyph name="dvmUU" format="1">
  <advance width="0"/>
  <unicode hex="0942"/>
  <outline>
    <contour>
      <point x="-101" y="-1" type="move" name="_blwm.uu"/>
    </contour>
    <contour>
      <point x="-265" y="-101" type="curve" smooth="yes"/>
      <point x="-265" y="-170"/>
      <point x="-192" y="-232"/>
      <point x="-131" y="-232" type="curve" smooth="yes"/>
      <point x="-102" y="-232"/>
      <point x="-71" y="-213"/>
      <point x="-71" y="-183" type="curve" smooth="yes"/>
      <point x="-71" y="-168"/>
      <point x="-80" y="-152"/>
      <point x="-100" y="-147" type="curve"/>
      <point x="-113" y="-167"/>
      <point x="-135" y="-180"/>
      <point x="-161" y="-180" type="curve" smooth="yes"/>
      <point x="-194" y="-180"/>
      <point x="-215" y="-159"/>
      <point x="-215" y="-129" type="curve" smooth="yes"/>
      <point x="-215" y="-83"/>
      <point x="-171" y="-47"/>
      <point x="-117" y="-47" type="curve" smooth="yes"/>
      <point x="-17" y="-47"/>
      <point x="59" y="-134"/>
      <point x="98" y="-217" type="curve"/>
      <point x="109" y="-215"/>
      <point x="114" y="-207"/>
      <point x="114" y="-198" type="curve" smooth="yes"/>
      <point x="114" y="-143"/>
      <point x="1" y="4"/>
      <point x="-143" y="4" type="curve" smooth="yes"/>
      <point x="-214" y="4"/>
      <point x="-265" y="-42"/>
    </contour>
  </outline>
</glyph>
<glyph name="dvmEcandra" format="1">
  <advance width="0"/>
  <unicode hex="0945"/>
  <outline>
    <contour>
      <point x="-170" y="646" type="move" name="_abvm.bindu"/>
    </contour>
    <contour>
      <point x="-324" y="894" type="curve"/>
      <point x="-335" y="890"/>
      <point x="-337" y="882"/>
      <point x="-337" y="876" type="curve" smooth="yes"/>
      <point x="-337" y="843"/>
      <point x="-251" y="768"/>
      <point x="-136" y="768" type="curve" smooth="yes"/>
      <point x="-51" y="768"/>
      <point x="27" y="804"/>
      <point x="27" y="858" type="curve" smooth="yes"/>
      <point x="27" y="877"/>
      <point x="14" y="892"/>
      <point x="-5" y="896" type="curve"/>
      <point x="-34" y="838"/>
      <point x="-100" y="813"/>
      <point x="-161" y="813" type="curve" smooth="yes"/>
      <point x="-225" y="813"/>
      <point x="-283" y="839"/>
    </contour>
  </outline>
</glyph>
<glyph name="dvmE" format="1">
  <advance width="0"/>
  <unicode hex="0947"/>
  <outline>
    <contour>
      <point x="-107" y="646" type="move" name="_abvm.e"/>
    </contour>
    <contour>
      <point x="-149" y="624" type="curve"/>
      <point x="-138" y="624"/>
      <point x="-130" y="629"/>
      <point x="-130" y="644" type="curve" smooth="yes"/>
      <point x="-130" y="670"/>
      <point x="-228" y="896"/>
      <point x="-349" y="896" type="curve" smooth="yes"/>
      <point x="-384" y="896"/>
      <point x="-410" y="874"/>
      <point x="-410" y="844" type="curve" smooth="yes"/>
      <point x="-410" y="824"/>
      <point x="-397" y="804"/>
      <point x="-375" y="799" type="curve"/>
      <point x="-365" y="825"/>
      <point x="-343" y="835"/>
      <point x="-325" y="835" type="curve" smooth="yes"/>
      <point x="-248" y="835"/>
      <point x="-170" y="682"/>
    </contour>
  </outline>
</glyph>
<glyph name="dvmAI" format="1">
  <advance width="0"/>
  <unicode hex="0948"/>
  <outline>
    <contour>
      <point x="-107" y="646" type="move" name="_abvm.e"/>
    </contour>
    <contour>
      <point x="-147" y="651" type="curve"/>
      <point x="-142" y="658" type="line"/>
      <point x="-190" y="725"/>
      <point x="-281" y="816"/>
      <point x="-369" y="816" type="curve" smooth="yes"/>
      <point x="-407" y="816"/>
      <point x="-439" y="794"/>
      <point x="-439" y="759" type="curve" smooth="yes"/>
      <point x="-439" y="730"/>
      <point x="-417" y="710"/>
      <point x="-395" y="710" type="curve"/>
      <point x="-389" y="745"/>
      <point x="-369" y="763"/>
      <point x="-338" y="763" type="curve" smooth="yes"/>
      <point x="-269" y="763"/>
      <point x="-188" y="675"/>
      <point x="-148" y="624" type="curve"/>
      <point x="-125" y="627"/>
      <point x="-123" y="645"/>
      <point x="-123" y="663" type="curve" smooth="yes"/>
      <point x="-123" y="752"/>
      <point x="-168" y="946"/>
      <point x="-277" y="946" type="curve" smooth="yes"/>
      <point x="-306" y="946"/>
      <point x="-332" y="925"/>
      <point x="-332" y="897" type="curve" smooth="yes"/>
      <point x="-332" y="882"/>
      <point x="-324" y="868"/>
      <point x="-308" y="860" type="curve"/>
      <point x="-301" y="876"/>
      <point x="-284" y="884"/>
      <point x="-271" y="884" type="curve" smooth="yes"/>
      <point x="-191" y="884"/>
      <point x="-155" y="729"/>
    </contour>
  </outline>
</glyph>
<glyph name="dvVirama" format="1">
  <advance width="0"/>
  <unicode hex="094D"/>
  <outline>
    <contour>
      <point x="-101" y="-1" type="move" name="_blwm.virama"/>
    </contour>
    <contour>
      <point x="-200" y="-92" type="curve"/>
      <point x="-186" y="-84"/>
      <point x="-170" y="-80"/>
      <point x="-153" y="-80" type="curve" smooth="yes"/>
      <point x="-98" y="-80"/>
      <point x="-30" y="-121"/>
      <point x="36" y="-194" type="curve"/>
      <point x="45" y="-190"/>
      <point x="48" y="-184"/>
      <point x="48" y="-178" type="curve" smooth="yes"/>
      <point x="48" y="-154"/>
      <point x="-71" y="-28"/>
      <point x="-157" y="-28" type="curve" smooth="yes"/>
      <point x="-190" y="-28"/>
      <point x="-209" y="-46"/>
      <point x="-209" y="-69" type="curve" smooth="yes"/>
      <point x="-209" y="-77"/>
      <point x="-206" y="-85"/>
    </contour>
  </outline>
</glyph>
<glyph name="dvOm" format="1">
  <advance width="965"/>
  <unicode hex="0950"/>
  <outline>
    <contour>
      <point x="437" y="302" type="line"/>
      <point x="452" y="277"/>
      <point x="478" y="265"/>
      <point x="504" y="265" type="curve" smooth="yes"/>
      <point x="643" y="265"/>
      <point x="618" y="507"/>
      <point x="735" y="507" type="curve" smooth="yes"/>
      <point x="806" y="507"/>
      <point x="837" y="420"/>
      <point x="837" y="364" type="curve" smooth="yes"/>
      <point x="837" y="240"/>
      <point x="769" y="156"/>
      <point x="661" y="153" type="curve"/>
      <point x="661" y="119"/>
      <point x="684" y="108"/>
      <point x="708" y="108" type="curve" smooth="yes"/>
      <point x="807" y="108"/>
      <point x="889" y="214"/>
      <point x="889" y="330" type="curve" smooth="yes"/>
      <point x="889" y="440"/>
      <point x="807" y="557"/>
      <point x="713" y="557" type="curve" smooth="yes"/>
      <point x="578" y="557"/>
      <point x="591" y="311"/>
      <point x="487" y="311" type="curve" smooth="yes"/>
      <point x="431" y="311"/>
      <point x="391" y="401"/>
      <point x="296" y="401" type="curve" smooth="yes"/>
      <point x="264" y="401"/>
      <point x="239" y="384"/>
      <point x="239" y="355" type="curve" smooth="yes"/>
      <point x="239" y="316"/>
      <point x="280" y="300"/>
      <point x="311" y="300" type="curve" smooth="yes"/>
      <point x="341" y="300"/>
      <point x="368" y="308"/>
      <point x="394" y="322" type="curve"/>
      <point x="405" y="314"/>
      <point x="439" y="282"/>
      <point x="439" y="228" type="curve" smooth="yes"/>
      <point x="439" y="161"/>
      <point x="389" y="123"/>
      <point x="325" y="123" type="curve" smooth="yes"/>
      <point x="235" y="123"/>
      <point x="164" y="201"/>
      <point x="127" y="277" type="curve"/>
      <point x="116" y="274"/>
      <point x="111" y="268"/>
      <point x="111" y="257" type="curve" smooth="yes"/>
      <point x="111" y="216"/>
      <point x="208" y="70"/>
      <point x="349" y="70" type="curve" smooth="yes"/>
      <point x="432" y="70"/>
      <point x="492" y="120"/>
      <point x="492" y="203" type="curve" smooth="yes"/>
      <point x="492" y="233"/>
      <point x="482" y="263"/>
      <point x="466" y="290" type="curve"/>
    </contour>
    <contour>
      <point x="534" y="791" type="curve" smooth="yes"/>
      <point x="559" y="791"/>
      <point x="576" y="809"/>
      <point x="576" y="833" type="curve" smooth="yes"/>
      <point x="576" y="863"/>
      <point x="547" y="891"/>
      <point x="518" y="891" type="curve" smooth="yes"/>
      <point x="493" y="891"/>
      <point x="476" y="873"/>
      <point x="476" y="849" type="curve" smooth="yes"/>
      <point x="476" y="819"/>
      <point x="504" y="791"/>
    </contour>
    <contour>
      <point x="366" y="786" type="curve"/>
      <point x="355" y="782"/>
      <point x="353" y="774"/>
      <point x="353" y="768" type="curve" smooth="yes"/>
      <point x="353" y="735"/>
      <point x="439" y="660"/>
      <point x="554" y="660" type="curve" smooth="yes"/>
      <point x="639" y="660"/>
      <point x="717" y="696"/>
      <point x="717" y="750" type="curve" smooth="yes"/>
      <point x="717" y="769"/>
      <point x="704" y="784"/>
      <point x="685" y="788" type="curve"/>
      <point x="656" y="730"/>
      <point x="590" y="705"/>
      <point x="529" y="705" type="curve" smooth="yes"/>
      <point x="465" y="705"/>
      <point x="407" y="731"/>
    </contour>
    <contour>
      <point x="412" y="335" type="line"/>
      <point x="447" y="362"/>
      <point x="470" y="403"/>
      <point x="470" y="448" type="curve" smooth="yes"/>
      <point x="470" y="537"/>
      <point x="389" y="608"/>
      <point x="293" y="608" type="curve" smooth="yes"/>
      <point x="238" y="608"/>
      <point x="205" y="582"/>
      <point x="205" y="556" type="curve" smooth="yes"/>
      <point x="205" y="540"/>
      <point x="213" y="529"/>
      <point x="226" y="522" type="curve"/>
      <point x="252" y="544"/>
      <point x="289" y="556"/>
      <point x="325" y="556" type="curve" smooth="yes"/>
      <point x="377" y="556"/>
      <point x="424" y="530"/>
      <point x="424" y="472" type="curve" smooth="yes"/>
      <point x="424" y="430"/>
      <point x="394" y="382"/>
      <point x="328" y="354" type="curve"/>
    </contour>
  </outline>
</glyph>
<glyph name="dvDDxA" format="1">
  <advance width="452"/>
  <unicode hex="095C"/>
  <outline>
    <contour>
      <point x="259" y="-167" type="move" name="blwm.uu"/>
    </contour>
    <contour>
      <point x="299" y="-192" type="move" name="blwm.r"/>
    </contour>
    <contour>
      <point x="336" y="646" type="move" name="abvm.e"/>
    </contour>
    <contour>
      <point x="236" y="646" type="move" name="abvm.bindu"/>
    </contour>
    <contour>
      <point x="278" y="-132" type="move" name="blwm.virama"/>
    </contour>
    <contour>
      <point x="285" y="-167" type="move" name="blwm.u"/>
    </contour>
    <component base="dvDDA"/>
    <component base="dvNukta" xOffset="542" yOffset="25"/>
  </outline>
</glyph>
<glyph name="endash" format="1">
  <advance width="618"/>
  <unicode hex="2013"/>
  <outline>
    <contour>
      <point x="117" y="319" type="line"/>
      <point x="100" y="319"/>
      <point x="60" y="319"/>
      <point x="60" y="280" type="curve" smooth="yes"/>
      <point x="60" y="275"/>
      <point x="62" y="270"/>
      <point x="64" y="266" type="curve"/>
      <point x="501" y="266" type="line" smooth="yes"/>
      <point x="518" y="266"/>
      <point x="558" y="266"/>
      <point x="558" y="306" type="curve" smooth="yes"/>
      <point x="558" y="311"/>
      <point x="556" y="316"/>
      <point x="555" y="319" type="curve"/>
    </contour>
  </outline>
</glyph>
